<svg id="Layer_1" data-name="Layer 1" xmlns="http://www.w3.org/2000/svg" viewBox="0 0 601.13 62.07"><defs><style>.cls-1{stroke:#000;stroke-miterlimit:10;stroke-width:0.5px;}</style></defs><path class="cls-1" d="M32.89,31.56a4.32,4.32,0,0,1,.66.07,4.72,4.72,0,0,0,.74.07q1.55-4.2,3-8.79c1-3.05,1.93-6,2.77-8.71s1.35-4.43,1.54-5a2.08,2.08,0,0,1,2.1-1.47c.84,0,1.26.37,1.26,1.12a.61.61,0,0,1,0,.24,1,1,0,0,0,0,.25,206.55,206.55,0,0,1-7.49,22.4,77.88,77.88,0,0,0,8.5-.95,46.87,46.87,0,0,0,6.76-1.61,30.72,30.72,0,0,0,5-2.1,14.75,14.75,0,0,0,3.47-2.48,9.5,9.5,0,0,0,2-2.7A6.64,6.64,0,0,0,63.76,19q0-5.18-6.83-9.31T40.31,5.59A47.45,47.45,0,0,0,28.51,7a25.35,25.35,0,0,0-9,4.06Q16,13.71,16,16.86q0,3.78,5.18,7.7,1.26,1,1.26,1.26c0,.14-.12.21-.35.21a4.68,4.68,0,0,1-1.44-.35,4.79,4.79,0,0,1-1.36-.7q-6.58-4.83-6.58-9.31a6.83,6.83,0,0,1,2.34-4.94A18.45,18.45,0,0,1,21.34,7a45.73,45.73,0,0,1,9-2.35,63.8,63.8,0,0,1,10.5-.84A53.06,53.06,0,0,1,52.38,4.92,27.3,27.3,0,0,1,60.71,8a15.48,15.48,0,0,1,4.83,4.37,9,9,0,0,1,1.65,5.15,9.89,9.89,0,0,1-2,5.74,18.9,18.9,0,0,1-5.64,5.08A32.1,32.1,0,0,1,50,32a57.62,57.62,0,0,1-13,1.37h-.28q-2.31,5.53-4.69,10.11a77.23,77.23,0,0,1-5.25,8.68,25.85,25.85,0,0,1-6.06,6.37,10.83,10.83,0,0,1-6.33,2.28Q9,60.82,4,53.82A16.68,16.68,0,0,1,1.25,44a10.3,10.3,0,0,1,.24-2.35c.17-.67.39-1,.67-1s.61.65.7,2a12.61,12.61,0,0,0,.42,2.73,25.31,25.31,0,0,0,1.4,4,23.69,23.69,0,0,0,2.38,4.27,11.89,11.89,0,0,0,3.67,3.36A9.32,9.32,0,0,0,15.6,58.3a5.17,5.17,0,0,0,.91-.07q8.11-.78,17.22-24.92a3,3,0,0,1-1-.6,1,1,0,0,1-.42-.73C32.33,31.7,32.52,31.56,32.89,31.56Z"/><path class="cls-1" d="M82.17,11.4q-.42-.08-.42-1a9.14,9.14,0,0,1,1.19-3.29,11.44,11.44,0,0,1,1.89-3,4.12,4.12,0,0,1,2.52-1.05c1.49,0,2.24.4,2.24,1.19a.91.91,0,0,1-.28.63q-2.52,2.31-4.62,9.59a82,82,0,0,0-2.8,13.37,87,87,0,0,0-.7,9.24q0,9.87,4.9,9.87,5.1,0,14.21-12.25a58.23,58.23,0,0,0,6.93-12.25,29.94,29.94,0,0,0,2.66-11.06V9.86a7.28,7.28,0,0,1,1.29-4.38,4.57,4.57,0,0,1,4-1.78c.7,0,1,.23,1,.7v.14Q113,11.82,111,24.88a142.39,142.39,0,0,0-2,19.77,3.39,3.39,0,0,1,.56,2q0,3.57-2.31,3.57c-1.12,0-1.68-.51-1.68-1.54q1.32-15,2.31-23.17a87.44,87.44,0,0,1-7.11,11.65A42.34,42.34,0,0,1,94,44.79q-11.13,9.32-14.63,1.26a25,25,0,0,1-1.61-9.87A74.7,74.7,0,0,1,82.17,11.4Z"/><path class="cls-1" d="M159.83,28.09a12.88,12.88,0,0,1,5.57,2.59,6.52,6.52,0,0,1,2.52,5.39,9.64,9.64,0,0,1-2.38,6.27,16.67,16.67,0,0,1-6.16,4.55,39.26,39.26,0,0,1-16.59,3.57,29.37,29.37,0,0,1-5.74-.49,1.35,1.35,0,0,1-1.37.84,3.68,3.68,0,0,1-2.24-1c-.81-.67-1.22-1.23-1.22-1.68s.25-.66.77-.66c0,0,.35.07.91.21a48,48,0,0,1-.56-9,143.45,143.45,0,0,1,1.19-16.41,139.67,139.67,0,0,1,2.73-16.35h-3.71c-1-.05-1.54-.22-1.54-.53s.3-.58.91-.84a5.25,5.25,0,0,1,2-.38h2.73c.32-2,1.75-2.94,4.27-2.94q1.05,0,1.05.63a2.8,2.8,0,0,1-.7,1.54,6.76,6.76,0,0,0-.7,1q19.46,1.81,19.46,11.27,0,3.78-3.61,7a27.57,27.57,0,0,1-7.8,5c1.3-.09,2.82-.14,4.55-.14A30,30,0,0,1,159.83,28.09Zm4.87,8.51a5.69,5.69,0,0,0-1.61-3.85A9.23,9.23,0,0,0,159,30.37a32.82,32.82,0,0,0-9.38-1.4,94.26,94.26,0,0,0-13.09,1.26q-.21,1.82-.21,7.7t.42,10.22a35.91,35.91,0,0,0,7.07.56,40,40,0,0,0,9.1-1.09,20.29,20.29,0,0,0,8.22-3.91A8.76,8.76,0,0,0,164.7,36.6ZM136.91,28l1.4.07A40.12,40.12,0,0,0,149,26a15.55,15.55,0,0,0,6.37-3.68A8.19,8.19,0,0,0,158,16.23c0-.28,0-.79-.14-1.54a7.72,7.72,0,0,0-2.66-3.75,15.49,15.49,0,0,0-4.69-2.55,42.63,42.63,0,0,0-9.38-2.31H141a106.73,106.73,0,0,0-2.52,10.81A105.28,105.28,0,0,0,136.7,28Z"/><path class="cls-1" d="M223.29,2.65q2.52,0,2.52,3.15a30.13,30.13,0,0,1-.6,5.74,31.9,31.9,0,0,1-2,6.47,32.75,32.75,0,0,1-3.43,6.23,17.68,17.68,0,0,1-5.18,4.83,16.33,16.33,0,0,1-7,2.42,70.32,70.32,0,0,1-3.68,9,33.8,33.8,0,0,1-4.37,7.28Q211.88,54,219.86,54a9.29,9.29,0,0,0,5.56-1.79A5.78,5.78,0,0,0,227,44.37a5.82,5.82,0,0,1-.91-1.82,2,2,0,0,1,.24-.95.53.53,0,0,1,.67-.31c.56.23,1.11,1,1.64,2.42a9.5,9.5,0,0,1,.81,3.18,8.35,8.35,0,0,1-3.26,7,12.46,12.46,0,0,1-7.87,2.52,16.87,16.87,0,0,1-2.07-.14c-.72-.09-1.4-.2-2-.31a20.67,20.67,0,0,1-2.2-.57l-2.1-.63a19.77,19.77,0,0,1-2.24-.84q-1.41-.59-2.1-.84a22,22,0,0,1-2.17-.94c-1-.47-1.64-.78-2-1l-2-1-1.82-.87a17.91,17.91,0,0,1-13.09,5.18,11.28,11.28,0,0,1-5.39-1.23,4.2,4.2,0,0,1-2.31-4,6,6,0,0,1,2.13-4.73A7.54,7.54,0,0,1,184,42.69q4.68,0,13.72,4.2,3-4.12,7.28-15.54A11.15,11.15,0,0,1,197.49,29q-2.76-2.38-2.76-6.93a9.14,9.14,0,0,1,.52-3.22c.35-.93.88-1.4,1.58-1.4.23,0,.35.21.35.63,0,.23-.05.71-.14,1.43A12.55,12.55,0,0,0,196.9,21a10.26,10.26,0,0,0,2.1,6.44c1.4,1.82,3.54,2.73,6.44,2.73.14-.37.53-1.52,1.19-3.43s1.35-3.91,2.1-6,1.54-4.18,2.38-6.33a30,30,0,0,1,2.59-5.29c.88-1.37,1.63-2.06,2.24-2.06a5,5,0,0,1,2.1.52c.74.35,1.12.81,1.12,1.37s-.19.63-.56.63c-.1,0-.19-.09-.28-.28S218.11,9,218,9q-1.12,0-3.22,4.41t-4.34,10.46q-2.25,6.06-2.31,6.2a14.93,14.93,0,0,0,8-4.9,25.63,25.63,0,0,0,5.18-8.79,29.32,29.32,0,0,0,1.68-9.62c0-.51,0-1-.07-1.47a1.41,1.41,0,0,0-.56-1,.93.93,0,0,1-.49-.7C221.82,3,222.31,2.65,223.29,2.65Zm-26.95,46a44.92,44.92,0,0,0-6.09-2.1,27.4,27.4,0,0,0-7.42-1.26q-3.93.07-4,2.52a4,4,0,0,0,2.45,3.74,12.67,12.67,0,0,0,6,1.3A12.18,12.18,0,0,0,196.34,48.64Z"/><path class="cls-1" d="M255.56,7.83l.14-1.4h-8.12c-.47,0-.7-.16-.7-.49a1.68,1.68,0,0,1,.59-1.09,1.84,1.84,0,0,1,1.3-.59h7.63c.42-1,1.77-1.54,4.06-1.54.7,0,1.05.23,1.05.7v.14l-.42.63q6.09,0,9-.14.42,0,.42.45c0,.31-.24.67-.7,1.09a3.81,3.81,0,0,1-2,.84h-7.63v.14q-2.67,7.49-4.45,20.79a163.57,163.57,0,0,0-1.78,19,2.26,2.26,0,0,0,.21,1.12q8.4-.14,10.08-.21.42,0,.42.45c0,.31-.24.67-.7,1.09a3.81,3.81,0,0,1-2,.84h-8.26a2.48,2.48,0,0,1-1.58.56,1.52,1.52,0,0,1-1.29-.56h-9.17c-.47,0-.7-.16-.7-.49a1.68,1.68,0,0,1,.59-1.09,1.84,1.84,0,0,1,1.3-.59h7.77Q253,23,255.56,9.93Z"/><path class="cls-1" d="M329.83,40c.18,0,.28.21.28.63a4.91,4.91,0,0,1-.32,1.54,8.58,8.58,0,0,1-.73,1.61,5.49,5.49,0,0,1-.77,1,33,33,0,0,1-11.69,7.28,38.72,38.72,0,0,1-14.07,2.87q-11.07,0-16.87-5.32T279.85,35c0-.51,0-1.05.07-1.61a27.42,27.42,0,0,1,5.84-15.09A40.22,40.22,0,0,1,299.1,6.81a33,33,0,0,1,15.68-4.23q7.77,0,10.43,3.5a10,10,0,0,0,.63-2.73,2.51,2.51,0,0,0-.14-.56,1.1,1.1,0,0,1-.07-.67c0-.16.23-.24.56-.24a2.47,2.47,0,0,1,1.12.28c.37.19.56.42.56.7a6.05,6.05,0,0,1-.25,1.71c-.16.59-.37,1.26-.63,2s-.43,1.32-.52,1.65a10.91,10.91,0,0,1,.63,3.85q0,4.76-2.1,4.76a2.29,2.29,0,0,1-1.68-.49,2.09,2.09,0,0,1-.49-1.54,9.92,9.92,0,0,1,.07-1.23,8.2,8.2,0,0,1,.24-1.22c.12-.42.22-.78.32-1.09s.22-.7.38-1.19.29-.85.39-1.08a8.78,8.78,0,0,0-3.71-3.22,12.68,12.68,0,0,0-5.74-1.26,29.19,29.19,0,0,0-14.53,4,34.78,34.78,0,0,0-11.72,10.82,27.87,27.87,0,0,0-5,14.28v1.12A16.9,16.9,0,0,0,289.19,48a20.54,20.54,0,0,0,14.18,5.08,35.1,35.1,0,0,0,7.07-.7A31.84,31.84,0,0,0,316,50.81a25.41,25.41,0,0,0,4.45-2.42,28.22,28.22,0,0,0,3.29-2.48c.7-.65,1.54-1.47,2.52-2.45l1.68-1.68a7.4,7.4,0,0,1,.91-1.09C329.31,40.21,329.64,40,329.83,40Z"/><path class="cls-1" d="M347.12,30.79l-3.5.07c-.47,0-.7-.16-.7-.49a1.59,1.59,0,0,1,.59-1.08,1.81,1.81,0,0,1,1.3-.6h3.5A154.7,154.7,0,0,1,365.53,6a2,2,0,0,1-.42-1.22,1.91,1.91,0,0,1,.77-1.37,3.36,3.36,0,0,1,2.34-.7c1,0,1.58.49,1.58,1.47a2.47,2.47,0,0,1-.21,1,89.52,89.52,0,0,1,3,10.54q1.74,7.3,2.52,12.91c1.54.05,2.31.3,2.31.77l-2.1,1.12c0,.23.16,1.49.49,3.78a119.57,119.57,0,0,1,1.68,13.79c0,.47-.34.9-1,1.3a3.86,3.86,0,0,1-1.89.59c-.58,0-.87-.19-.87-.56v-.84q0-2.66-.56-9.28t-.84-8.71l-22.4.21q-6.24,11.42-7.28,18.62c-.05.51-.49.77-1.33.77S340,50.12,340,50a.76.76,0,0,1-.07-.31l.14-1.12Q341.45,40.73,347.12,30.79Zm25-2.1a95.7,95.7,0,0,0-2.35-12q-1.65-6.37-2.62-9.38-4.27,4.54-8.93,10.6a88.13,88.13,0,0,0-7.31,10.89Z"/><path class="cls-1" d="M391.71,43.39a10.37,10.37,0,0,1,.24-2.31c.16-.7.39-1,.67-1s.56.65.7,2a12.61,12.61,0,0,0,.42,2.73,24.35,24.35,0,0,0,1.4,4A23.1,23.1,0,0,0,397.52,53a12,12,0,0,0,3.64,3.37A9.1,9.1,0,0,0,406,57.74a8.22,8.22,0,0,0,1-.07,8.87,8.87,0,0,0,4.83-2.17,21.35,21.35,0,0,0,4.48-5.43c1.4-2.31,2.7-4.69,3.92-7.14a81.34,81.34,0,0,0,3.57-8.57q1.74-4.91,2.9-8.4T429.19,18q1.37-4.44,1.86-6A118.1,118.1,0,0,0,416.8,6.74a47.67,47.67,0,0,0-13.26-1.85q-12.68,0-12.67,7.35A13,13,0,0,0,392,17.17a22,22,0,0,0,2.8,4.9q1.71,2.28,3.29,4a28,28,0,0,0,3.12,3,24.18,24.18,0,0,0,5,3.36c2,1,3.12,1.63,3.4,1.82s.51.45.42.67-.38.26-.84.17a22,22,0,0,1-9.87-4.83,39.4,39.4,0,0,1-7.35-8.58,18.32,18.32,0,0,1-3.29-10A9,9,0,0,1,392,4.36q3.36-2.76,9.8-2.76a40.18,40.18,0,0,1,8.08.87,58.83,58.83,0,0,1,6.48,1.65c1.49.51,4.13,1.53,7.91,3s6.25,2.49,7.42,2.91Q433.5,4.82,434,4.75a1,1,0,0,0,.28,0l.24,0a.52.52,0,0,0,.21,0,.9.9,0,0,1,.25,0,2.15,2.15,0,0,1,.77.14,4.72,4.72,0,0,1,.59.28,2.09,2.09,0,0,1,.53.49c.18.23.31.41.38.52s.22.35.46.7.37.58.42.67.09.29.14.45a2.72,2.72,0,0,0,.14.43,2.19,2.19,0,0,1,.1.34,2.34,2.34,0,0,1,0,.39.88.88,0,0,1-.14.49.42.42,0,0,1-.35.21,3,3,0,0,1-1.61-1c-.19-.28-.38-.42-.56-.42s-.49.2-.77.59a5.71,5.71,0,0,0-.67,1.23,3,3,0,0,0-.24.91,58.5,58.5,0,0,0,7.31,2.62,21.85,21.85,0,0,0,5.64.95c1.49,0,2.47-.33,2.94-1a1.4,1.4,0,0,1,1.19-.56c.51,0,.77.19.77.56a2.68,2.68,0,0,1-1,1.68,6.28,6.28,0,0,1-4.76,1.75q-4.62,0-12.74-3.92c-.56,1.63-1.33,4.18-2.31,7.63s-1.86,6.49-2.63,9.1-1.81,5.61-3.11,9a70.9,70.9,0,0,1-3.92,8.6,33,33,0,0,1-4.87,6.62,16.17,16.17,0,0,1-6.19,4.27,11.83,11.83,0,0,1-4.27.7,16.44,16.44,0,0,1-6.79-1.47,10.91,10.91,0,0,1-5-4.34,18.82,18.82,0,0,1-2.07-5A20,20,0,0,1,391.71,43.39Z"/><path class="cls-1" d="M469.55,7.83l.14-1.4h-8.12c-.47,0-.7-.16-.7-.49a1.63,1.63,0,0,1,.59-1.09,1.84,1.84,0,0,1,1.3-.59h7.63c.42-1,1.77-1.54,4.06-1.54.7,0,1.05.23,1.05.7v.14l-.42.63q6.09,0,9-.14.42,0,.42.45c0,.31-.24.67-.7,1.09a3.81,3.81,0,0,1-2,.84h-7.63v.14q-2.67,7.49-4.45,20.79a163.57,163.57,0,0,0-1.78,19,2.26,2.26,0,0,0,.21,1.12q8.4-.14,10.08-.21.42,0,.42.45c0,.31-.24.67-.7,1.09a3.81,3.81,0,0,1-2,.84H467.8a2.5,2.5,0,0,1-1.58.56,1.52,1.52,0,0,1-1.29-.56h-9.17c-.47,0-.7-.16-.7-.49a1.63,1.63,0,0,1,.59-1.09,1.84,1.84,0,0,1,1.3-.59h7.77Q467,23,469.55,9.93Z"/><path class="cls-1" d="M527.37,1.81c3.63,0,5.46.91,5.46,2.73,0,1-.64,2.26-1.89,3.71q16.86,2.23,16.87,17.43a23.52,23.52,0,0,1-2.07,9.73,25.88,25.88,0,0,1-5.53,8,38.24,38.24,0,0,1-7.88,5.92,37.5,37.5,0,0,1-9.27,3.78,38,38,0,0,1-9.56,1.26,26.74,26.74,0,0,1-7.8-1.09A19.84,19.84,0,0,1,499.26,50a14.75,14.75,0,0,1-4.45-5.74,19.61,19.61,0,0,1-1.6-8.12q0-12,10.77-23.24a34.23,34.23,0,0,0-5,2.1c-.23.09-.44.19-.63.28l-.56.28a3.54,3.54,0,0,1-.52.21l-.46.14a2,2,0,0,1-.38.1l-.28.07a.61.61,0,0,1-.24,0c-.19-.05-.31-.12-.35-.21,0-.51,1-1.26,2.87-2.24A47.75,47.75,0,0,1,507,10.14,33.58,33.58,0,0,1,524.64,2a1,1,0,0,0,.28,0,1.24,1.24,0,0,1,.27,0,1.27,1.27,0,0,0,.32,0l.32,0h.59a1,1,0,0,0,.31,0,1.58,1.58,0,0,1,.32,0ZM496.92,35.27a20.57,20.57,0,0,0,.94,6.4,14.72,14.72,0,0,0,2.59,4.9,15.11,15.11,0,0,0,3.92,3.36,17.92,17.92,0,0,0,4.94,2,23,23,0,0,0,5.67.67,30.25,30.25,0,0,0,8.25-1.19,31.29,31.29,0,0,0,8-3.54,34.14,34.14,0,0,0,6.83-5.49,24.31,24.31,0,0,0,6.57-16.66,15.55,15.55,0,0,0-4.09-10.82A16.05,16.05,0,0,0,530,9.72c-.32.42-.9,1.07-1.75,2a43,43,0,0,1-4.16,3.67A32.87,32.87,0,0,1,518.62,19a15.2,15.2,0,0,1-3.93,1.54c-.13,0-.21,0-.21-.07,0-.47,1.29-1.54,3.85-3.22a61.39,61.39,0,0,0,9.52-7.7c-1.07-.05-2.19-.07-3.35-.07a58,58,0,0,0-7.92.53,74.82,74.82,0,0,0-7.48,1.36,39.38,39.38,0,0,0-9.18,11.79A27.63,27.63,0,0,0,496.92,35.27ZM528.9,8a6,6,0,0,0,.91-2.59c0-1-.88-1.47-2.66-1.47h-.55L526,4a4.73,4.73,0,0,1-.67,0,27.12,27.12,0,0,0-12.81,4.69,53.49,53.49,0,0,1,10.44-1c.93,0,1.9,0,2.9.07S527.88,8,528.9,8Z"/><path class="cls-1" d="M563.2,43.6l.07,3.36c0,1.82-.32,2.73-1,2.73a1.74,1.74,0,0,1-1.33-.84,3,3,0,0,1-.63-1.82q.42-9.11,5.11-35.91a9.32,9.32,0,0,1-.07-1.26q0-6.09,4.2-6.09c1.08,0,1.61.21,1.61.63a7.7,7.7,0,0,1-.91,2.69,10.6,10.6,0,0,0-.91,2.28c0,2.1,1.14,4.55,3.4,7.35a122.93,122.93,0,0,0,9.31,10,121.45,121.45,0,0,1,8.64,9.17l.63.84,1.12-10.29q.7-6.72,2-14.42V9.93a10.09,10.09,0,0,1,.84-4.52c.56-1.09,1.73-1.64,3.5-1.64.7,0,1,.23,1,.7v.14Q594.63,16.66,593,40a12.23,12.23,0,0,1,.77,4.3,11.07,11.07,0,0,1-.7,4v.42c-.23,1.07-.77,1.61-1.61,1.61s-1.26-.52-1.26-1.54l.49-5.74a17.43,17.43,0,0,0-2.48-5,111.4,111.4,0,0,0-8.05-8.86q-6.48-6.67-8.44-8.85A13.94,13.94,0,0,1,568,11.4a113.85,113.85,0,0,0-3.39,16.8A123,123,0,0,0,563.2,43.6Z"/></svg>