<svg xmlns="http://www.w3.org/2000/svg" viewBox="0 0 351.03 238.12"><path d="M33.68 61c-1.67 2.1-3.3 4.29-4.76 6.4-.84 1.2-2.06 2.38-2.35 3.56-.25.99.3 2.03.08 3.02-.25 1.14-1.06 2.45-1.56 3.54-.83 1.84-.47 3.49-.96 5.32-1.17 4.37-2.58 8.68-3.49 13.12-.13.62-.22 1.26-.44 1.86-.59 1.54-1.85 2.84-2.72 4.22-.65 1.03-1.17 2.06-1.9 3.06-.39.53-.7 1.08-1.01 1.66-.43.8-.81 2.29-1.51 2.87-.15.12-.59.24-.77.35-.55.36-1.14 1.12-1.53 1.62-1.3 1.65-2.26 3.68-3.13 5.58-.41.89-.73 1.94-1.25 2.76-.14.22-.44.47-.56.69-.78 1.45-.48 3.26-1.13 4.75-.2.45-.39.9-.53 1.37-.28.94-.45 1.9-.67 2.86-.2.83-.3 1.64-.54 2.45-.23.77-.23 1.44-.23 2.25 0 2.41.12 4.84 0 7.24-.04.94-.42 1.98-.62 2.9-.37 1.71-.72 3.43-1.13 5.13s-.84 3.25-.93 4.95c-.04.91-.03 1.82-.02 2.73 0 .6.02 1.21 0 1.81-.04-.34.3-1.03.41-1.33.12-.32.31-.61.38-.95.04-.21 0-.47.05-.67.09-.31.31-.63.44-.92.16-.33.28-.66.42-.99.36-.89 1.11-1.69 1.61-2.54.25-.42.46-.93.77-1.29.21-.25.38-.37.52-.7.19-.46.43-.89.57-1.34.16-.5.13-1.06.32-1.54.3-.76.93-1.4 1.23-2.15.17-.42.16-.65.51-1.03.5-.54.63-1.19 1.02-1.81.28-.44.75-1.1 1.2-1.35.4-.23.66-.06.93-.44.58-.8 1.57-3.37 2.85-1.81.29.35.2.78.27 1.18.12.63.19.53.48 1.03.42.7.35 1.69.3 2.55-.09 1.55-.71 3.06-1.07 4.56s-.49 3.13-1.14 4.51c-.69 1.47-1.25 3.04-2 4.47-.41.79-.31 1.36-.37 2.28-.03.52-.27.84-.36 1.33-.09.45 0 .87-.12 1.33-.2.81-.67 1.63-.96 2.37-.3.75-.87 1.64-.79 2.48.11 1.18.78 2.07.82 3.39.03 1.19-.12 2.37-.12 3.56 0 1.39-.16 2.31-.58 3.63-.17.53-.1.98-.21 1.51-.12.57-.34.91-.35 1.52-.04 1.68.02 3.37 0 5.06 0 1.03-.01 2.98 1.33 1.98.79-.59 1.43-1.3 1.93-2.13.46-.78 1.21-1.33 1.33-2.23.09-.65-.05-1.35 0-2.01-1.38 2.4-.78 5.97-.78 8.64 0 1.33-.1 2.67.08 3.99.16 1.12.11 2.77.58 3.73.21.42-.01.49.44.69.18.08.95-.03 1.17-.03.76 0 1.53.04 2.28 0 1.41-.07 2.11-1.19 2.97-2.17.23.57.08 1.41.08 2.03v10.77c0 1.12-.28 2.71.08 3.77.48-.06 1.01-.9 1.44-1.2.53-.37 1.02-.69 1.51-1.12.87-.76 1.39-1.21 2.02-2.12.39-.57.93-1.06 1.39-1.59.54-.62 1.36-1.15 1.97-1.71.79-.73 1.59-1.59 2.57-2.06.88-.42 2.13-.73 3.11-.83 1.85-.19 3.44-.37 5.04-1.03s2.6-2.54 3.62-3.92c.47-.62 2.73-4.4 3.83-3.36.4.38.07 2.19-.03 2.71-.2 1.03-.16 1.93-.29 2.97-.18 1.47-1.55 2.92-1.07 4.53.86-.29 1.9-2.24 2.56-2.98 1.36-1.51 2.23-3.35 3.85-4.52 1.74-1.25 3.05-3.11 4.56-4.59.69-.68 1.45-1 2-1.87.49-.78.92-1.6 1.52-2.3 1.02-1.17 1.5-2.36 1.88-3.78.64-2.41 1.93-5.06 3.5-6.97.65-.79 1.3-1.38 2.12-1.97s1.52-1.46 2.37-2.09c2.75-2.04 5.19-4.45 7.94-6.51 1.58-1.19 2.75-2.68 4.05-4.15.6-.67.99-1.67 1.66-2.24-.82 1.59-1.33 3.15-1.55 4.91-.14 1.11-.66 2.12-.97 3.19-.25.87-.4 1.76-.66 2.63-.21.7-.66 1.39-.96 2.08-.27.62-.46.79-.85 1.35-.74 1.05-1.27 2.66-1.63 3.88-.26.87-.7 1.69-.91 2.58-.09.37-.07.8-.19 1.15-.33.94-1.28 1.68-1.69 2.61-.22.51-.7.99-.8 1.51-.06.34.21.77.06 1.1-.2.43-.77.42-1.19.74-.5.38-.72 1.01-1.12 1.44-.74.79-.9 1.66-1.65 2.46-.83.88-1.23 1.58-1.52 2.55-.41 1.36-.9 2.69-1.67 3.99-.55.93-.49 1.94-.49 2.93 0 1.12-.59 2.78.1 3.84 1.29-.29 1.97-1.44 2.42-2.07 1.06-1.47 2.59-2.85 3.61-4.34.97-1.41 2.46-2.92 2.51-4.39.04-1.15.98-2.29 2.13-3.23 2.77-2.26 5.44-4.58 8.31-6.83 1.56-1.22 3.8-2.16 5.33-3.35 1.19-.93 1.98-1.98 3.11-2.97 1.21-1.05 2.47-2.08 3.31-3.21 1.48-1.97 3.22-3.89 5.16-5.75 1.55-1.49 2.43-3.28 3.62-4.86.71-.94 1.7-1.82 2.6-2.72.41-.41.94-1.06 1.51-1.26.23-.08.48-.06.72-.1.56-.09 1.1-.3 1.62-.52.67-.28 1.35-.56 2.01-.86.37-.16.65-.35 1.05-.37.19 0 .39.03.57 0 .36-.04.29-.15.56-.39.17-.16.37-.26.54-.43.14-.14.27-.27.44-.38.48-.32.93-.53 1.47-.75.45-.18.75-.34 1.06-.72.38-.46.5-.61 1.13-.59.39.01.42.15.7.3.19.1.41.13.61.23.41.22.73.53 1.05.85.18.19.41.36.58.57.12.15.2.52.35.63s.45.01.62.02c.27.01.58.12.81.28.73.5 1.35 1.66.78 2.5-.09.13-.22.26-.31.38-.08.1-.16.2-.26.3-.3.29-.43.5-.57.9-.29.85-.24 2.25.04 3.13.19.59.41.48.98.48.8 0 1.59-.04 2.28-.52s1.09-1.57 1.94-1.89c.48-.18 1.29-.03 1.78-.03.45 0 1.19.13 1.61-.05.68-.29 1.12-1.22 1.47-1.84s.71-1.19 1.08-1.79c.5-.8.83-1.64 1.37-2.4.27-.38.63-.63.98-.9.21-.17.37-.41.57-.58s.42-.26.65-.4c.62-.36 1.11-.78 1.61-1.29.72-.74 1.25-1.64 1.89-2.44.35-.43.71-.82 1.01-1.27.58-.89.55-2.08.92-3.1.28-.77.71-1.53.95-2.31.08-.25.06-.56.11-.81.06-.29.05-.58.09-.87.07-.46.3-.96.44-1.41s.18-.96.32-1.43c.11-.36.2-.7.29-1.07.05-.22.04-.43.09-.64.2-.84.9-1.51 1.51-2.07.21-.19.33-.38.59-.48.64-.25.57-.31.56-.91v-1.36c0-.87-.01-1.74 0-2.62.02-2.04.53-4.16.94-6.15.31-1.52-.88-3.01-.1-4.51.92-1.79 1.73-3.66 2.48-5.49.27-.65.56-1.38.75-2.01.2-.67.25-1.32.97-1.49s1.3-.89 1.88-1.38c.58-.48 1.03-.93 1.71-1.17.41-.14.74-.19 1.13-.44.75-.48 1.34-1.17 2.07-1.66 1.62-1.1 2.73-2.4 4.12-3.78.52-.52 1.02-1.2 1.61-1.62.33-.24.73-.35 1.02-.64.48-.47 1.04-1.51 1.63-1.68.42.77-1.57 2.69-1.98 3.18-.69.84-1.21 1.81-1.7 2.77-.73 1.44-1.51 2.79-2.33 4.18-1.45 2.48-2.59 4.99-3.55 7.67-.52 1.43-1.4 2.83-1.64 4.35-.18 1.11.63 1.68 1.4 2.31.63.51.88 1 1.02 1.77.36 1.97.65 3.81.68 5.8.01 1.12-.44 2.03-.77 3.08-.4 1.26-.64 2.54-1.19 3.76-.32.7-1.23 1.94-1.13 2.72.04.29.31.37.38.65.13.5-.02 1.23-.02 1.75 0 .78-.11 1.48.25 2.12.13.1.25.21.37.32.09.19.11.4.06.61.17.49.31.94.43 1.45.1.4.13.94.25 1.31.14.43.39.47.38.99-.02.5-.36.92-.6 1.33-.33.56-.37 1.04-.64 1.63-.69 1.51-1.55 2.99-2.49 4.47-1.03 1.61-2.07 3.22-3.13 4.83-.92 1.52-1.81 3.04-2.67 4.57-1.15 1.5-2.49 2.91-3.24 4.49-.49 1.05-.97 1.98-1.73 2.98-.6.79-.59 1.5-1.72 2.09-1.76.93-3.28 2.13-4.69 3.23-2.12 1.65-3.82 3.34-5.28 5.17-1.78 2.23-3.4 4.68-4.13 7.07-.28.92-.46 1.79-.98 2.69-.29.49-.42.81-.43 1.31 0 .64-.38 1.14-.55 1.79-.59 2.24-1.7 4.41-2.75 6.61-1.07 2.24-1.74 4.52-3.35 6.68-.71.96-.65 2.04-1 3.05-.85 2.42-2.45 4.75-3.75 7.11-1.49 2.7-2.77 5.35-4.58 7.99-.79 1.15-1.09 2.29-1.71 3.46-.67 1.26-1.34 2.41-1.33 3.7v1.71c0 .32-.19.82.04 1.13 1.38-.28 2.26-1.47 3.03-2.06 2.92-2.25 6.03-4.5 8.25-6.96.94-1.04 2.25-1.95 3.1-3 .27-.34.74-1.26 1.44-1.36.25.36-.06.74.18 1.1.69-.08.85-.7 1.03-1.01 1.79-3.13 4.91-6.01 6.99-9.09.45-.67 5.25-6.37 5.61-6.29.49-.71.62-1.55.83-2.29.14-.48.92-1.69.42-2.18-.27-.26-1.17-.53-1.59-.73-.17-.08-.33-.23-.53-.28-.17-.05-.69-.07-.82-.15-.18-.1-.57-1.07-.55-1.22.03-.3.72-.78 1-1.06.47-.48 1.19-.87 1.67-1.35.74-.74 1.43-1.49 2.05-2.25.82-1.01 1.91-2.04 1.94-3.15 0-.38-.05-.76 0-1.13.05-.44.42-.82.67-1.25 1.09-1.81 3.31-3.19 5.56-4.62.61-.39 1.39-.87 1.68-1.35.08-.14-.01-.33.12-.46.18-.17.4-.06.65-.2 1.27-.68 1.63-1.78 2.44-2.6 2.14-2.18 4.1-4.4 6.42-6.54 2.16-1.99 4.55-3.91 6.81-5.87.69-.6 1.29-1.19 2.16-1.73.21.35.06.87.06 1.25v13.1c0 .55.29 1.13.17 1.67-.27 1.26-1.12 2.61-1.73 3.84-.74 1.48-1.25 2.97-1.97 4.45-.91 1.89-1.63 3.81-2.68 5.67-.92 1.65-2.01 3.3-2.69 4.98-.24.6-.22 1.23-.45 1.8-.17.42-.73.82-.87 1.24-.26.77.19 1.62-.02 2.4.34-.66.95-1.21 1.75-1.75 1.69-1.14 3.5-2.23 5.23-3.36 2.33-1.52 5.07-2.83 7.42-4.33.71-.46 1.27-.9 2.13-1.3 1.08-.5 1.69-.73 1.68-1.51-.01-.59-.06-1.19.22-1.72.3-.57.12-1.19.21-1.82.14-.94 1.65-1.68 2.43-2.49.68-.72 1.19-1.47 1.86-2.19.27-.29.63-.88 1.26-.56.98.5.22 2.37.22 3 0 1.22.18 2.3-.47 3.46-.41.73-.34 1.42-.29 2.17.12 1.83.19 3.74-1.13 5.47-.65.85-.94 1.51-2.21 2.21-2.15 1.17-3.05 2.93-4.33 4.39-.96 1.1-2.8 2.49-2.14 3.75.71-.16 1.2-.48 1.79-.72 1.13-.45 2.38-.81 3.48-1.29 1.3-.57 3.03-1.08 4.1-1.77.87.1.37 4.4.29 5.14.61-.89 2.09-1.69 3.02-2.48 1.05-.89 1.64-2 2.32-3.01.53-.78.86-1.25 1.67-1.93.41-.34.54-.72.53-1.13-.04-1.04.57-2.04.82-3.07.24-.97 1.4-1.93 2.11-2.85 1.62-2.12 3.05-4.28 4.55-6.42 1.02-1.45 2.24-2.87 3.2-4.33.36-.54.55-.88 1.13-1.34.93-.72 1.9-1.55 2.67-2.33 1.15-1.16 2.39-2.29 4.09-3.27.53-.3.96-.42.99-.86.23-.03.47-.04.71-.06.26-.88 1.17-1.54 1.91-2.35 1.34-1.44 2.63-2.89 4.08-4.31 1.11-1.09 2.12-2.22 3.3-3.29.77-.69 1.95-1.32 2.42-2.09 1.53.05.77 5.38.77 5.94 0 3.47.45 6.99-.86 10.4-.96 2.5-1.44 5.07-2.15 7.6-.19.66.08 1.33-.17 1.99-.12.31-.55.58-.34.91.69-.08 1.05-.5 1.4-.78 1.5-1.17 2.84-2.54 4.14-3.92.2-.21.33-.35.46-.6.31-.59.49-1 1.01-1.47.5-.45.7-.91 1.02-1.49.25-.44.43-1.17.77-1.55.38-.43 1.14-.67 1.62-1.06.72-.58 1.05-1.28 1.55-2.02.39-.59.95-.85 1.49-1.28.28-.22.52-.5.84-.71.23-.15.48-.22.7-.37.07-.15.17-.29.29-.41.24-.11.49-.19.74-.26.43-.11.58-.2.96-.41.52-.29 1.17-.55 1.37-1.18s.36-1.19.51-1.81c.16-.68.23-1.41.5-2.07.33-.82.66-.86 1.37-1.2 1.01-.49 1.99-1.09 3.02-1.62.72-.37 1.16-.83 1.54-1.54.19-.35.22-.7.37-1.04.22-.48.55-1.13.99-1.32.11.04.22.06.35.05-.16-3.72 1.12-7.22 2.67-10.84.35-.82.39-2.42 2.07-2.94.8-.25 2.23-.23 3.22-.17.69.05 1.85.48 2.57.2.21-.08.46-.72.63-.88.2-.19.48-.33.68-.5.54-.48 1.12-.86 1.87-1.31.25-.15.67-.54.98-.65.36-.12.94-.08 1.35-.2 1.57-.46 2.4-1.03 3.27-1.79 1.19-1.03 2.99-1.97 4.45-2.9 2.92-1.86 5.88-3.72 8.48-5.71.69-.53 1-.69 1.3-1.3.55-1.12-.31-2.23.39-3.44.43-.73.8-1.62 1.4-2.24.48-.49.97-.78 1.53-1.18.39-.28.67-.78.92-1.18.37-.58.71-1.06 1.08-1.64.59-.95 1.31-1.96 2.03-2.82.45-.54.78-1.21 1.31-1.67s1.11-.89 1.71-1.25c.5-.3 1.11-.34 1.62-.63.31-.18.66-.55.89-.83.37-.45.45-1.16.83-1.57.81-.89 1.81.51 2.16 1.17.28.52.49.82.48 1.43s-.09.93-.32 1.52c-.45 1.15-1.17 2.37-1.47 3.53-.14.53-.03 1.23-.02 1.78 0 .66-.17.85-.39 1.44-.14.4-.25.8-.38 1.2-.12.37-.35.67-.47 1.04s-.43 1.18-.27 1.53c.81-.59 1.58-1.36 2.49-1.8.49-.23 1.01-.19 1.6-.18.23 0 .52.08.73-.04l.09-.41c.17-.09.33-.2.48-.31.24-.24.31-.58.5-.86.14-.19.3-.36.48-.52.03-.13.07-.25.1-.38.56-.74 1.58-1.57 2.52-1.61 1.37-.07 2.75 0 4.12 0 1.28 0 2.54-.45 3.87-.26.53.07.44-.02.52.52.03.23 0 .54 0 .78 0 .64.16 1.46.01 2.07-.1.43-.44.83-.54 1.26-.14.6.01 1.45.01 2.07 0 1.2.06 2.42 0 3.61-.02.34-.12.68-.11 1.01.02.94.72 1.76.5 2.74-.13.58-.81.85-.91 1.46-.06.36-.12 1.36.06 1.69.08.15.33.2.41.35.15.27.05.83.05 1.1 0 .79-.13 1.7.06 2.47.13.55.44.66.66 1.08.13.25 0 .47.04.72.05.29.2.62.3.9.19.52.31.98.24 1.55-.07.48-.71 1.18-.48 1.65.63-.18 1.27-.82 1.89-1.11.31-.15.63-.15.9-.3.11-.06.29-.28.41-.37.21-.14.4-.2.59-.38.65-.61.92-1.18 1.83-1.17.63 0 1.44-.14 2.03.04-.14.91-.73 1.82-1.1 2.67-.49 1.1-.88 2.26-1.25 3.4-.47 1.43-1.3 3.78-.39 5.23.34.54.61.85 1.17 1.1.3.13.56.07.85.18.32.12.31.37.5.64.3.43.67.5 1.04.79.32.25.79.72 1.03 1.06.45.64-.2 1.37-.42 2.04-.38 1.14-.36 2.18-.36 3.37s-.05 2.28 0 3.41c.03.65.34 1.25.58 1.85.28.68.38 1.86.91 2.37s.88-.08 1.37-.39c.47-.29 1.02-.55 1.52-.74 1.06-.39 2.31-.7 3.26-1.19 1.38-.72 2.65-1.65 3.96-2.48 1.23-.78 2.11-1.94 3.17-2.9.16-.15.29-.31.44-.47.17-.19.52-.44.64-.62.18-.27.05-.46.13-.79.05-.21.23-.28.29-.49.12-.49-.25-1.08.23-1.44.34-.26 1.01-.11 1.43-.12.62 0 1.08.24 1.68.26s1.13.33 1.67.23c1.38-.25 1.16-1.14 1.16-2.3 0-1.14-.12-2.34-.57-3.34-.43-.96-.86-1.73-1.64-2.45-.54-.5-1.31-1.04-1.41-1.8-.1-.83.01-1.75.01-2.59 0-.66-.13-1.49.06-2.12.08-.28.36-.81.51-1.08.42-.77.84-1.54 1.26-2.32.58-1.06 1.27-2.06 1.69-3.2.62-1.64.6-3.42 1.83-4.87.59-.7 1.49-1.16 1.93-1.96.31-.56.59-1.22.77-1.83.16-.55.34-1.33.63-1.82.25-.41.76-.72 1.05-1.09.32-.41.57-.79.89-1.21.85-1.11 1.06-2.56 1.5-3.89.26-.79.78-1.67.77-2.57-.01-1.01.29-3.46-1.29-3.03-.6.16-1.22.39-1.75.72-.92.57-1.89.92-2.91 1.3-.78.29-1.46.25-2.29.25-.53 0-1.42.24-1.77-.31-.27-.43.06-1.08.21-1.49.2-.55.26-1.13.44-1.67.33-1.01 1-1.91 1.32-2.9.06-.17.21-.92 0-1.08-.3-.23-.37.12-.53.23-.41.29-.74.85-1.17 1.12s-.9.13-1.4.23-1.32.09-1.76.38c-.38.26-.41.82-.81 1.05-.45.26-1.2-.05-1.7.04-.43.08-.93.2-1.35.32-.58.16-1.51.64-2 .97-.38.25-.72.82-1.15.99-.37.15-1.07.11-1.47.06-1.06-.13-2.19-.48-3.24-.72-.96-.22-1.85-.35-2.26-1.3-.14-.31-.38-.73-.46-1.07-.07-.29 0-.67-.04-.98-.06-.33-.19-.6-.21-.94-.02-.28.09-.61.02-.89s-.23-.29-.28-.55c-.11-.54.01-1.26.01-1.82 0-.39-.09-.93-.01-1.3.04-.2.2-.33.27-.53.14-.39.24-1.01.27-1.43.06-.76.2-2.17-.07-2.91-.19.04-.25.2-.22.41.38-.43.63-.81.92-1.3.23-.39.35-.85.57-1.23.28-.48.46-.97.56-1.52.38-2.12.35-4.56.15-6.71-.07-.76-.35-1.47-.43-2.22-.11-1.02.24-2.12-.35-3.04-.43-.67-1.28-.98-1.69-1.67-.47-.79.09-1.9-.52-2.68-1.3-1.68-4.29-1.61-6.1-2.1-.49-2.17-.17-5.14.49-7.22.52-1.65 1.57-3.26 1.22-5.12-.4-2.15-3.21-3.85-5.25-3.92-1.63-.05-2.44.67-3.46 1.93-.82 1.02-1.82 1.98-2.4 3.16-.17.35-.24 1.04-.59 1.31-.38.29-1.59.07-2 .07-.82 0-2.75.39-3.46-.02-1.29-.74.59-3.47.93-4.66.64-2.25 1.93-4.58 2.06-6.9.06-1.2.64-1.85.87-2.99.14-.71.16-2.05-.54-2.48-.3-.19-1.3-.2-1.64-.12-.57.14-.54.46-.95.81-.66.55-1.64.52-2.47.51-1.44-.02-2.04.35-3.25 1.11-.97.6-2.04 1.99-3.09 2.28-.41-1.2-.09-2.98-.09-4.24 0-1.08-.21-2.38-.02-3.43.39-2.18 1.34-4.04 2.36-5.98.86-1.62 1.71-3.76 1.97-5.6.16-1.17.29-2.23.6-3.44.61-2.37 1.11-4.74 1.09-7.2-.02-1.82 0-3.65 0-5.47 0-.99.23-2.24-.09-3.18-.4.16-.87.83-1.27 1.16-.73.59-1.37 1.29-2.09 1.89-1.06.87-1.64 1.51-2.43 2.64-1.94 2.76-4.12 6.36-7.3 7.73-.99.42-1.87.23-2.57 1.28-.46.68-.99 1.35-1.38 2.02-1.11 1.91-1.96 4.09-3.02 6.06-.3.55-.73 1.67-1.16 2.14s-.58.39-1.18.4c-1.14.03-2.29-.02-3.43 0-1.7.02-2.64 1.5-3.59 2.81-1.21 1.66-2.03 3.45-3.12 5.15-.82 1.29-1.84 2.33-2.21 3.87-.39 1.61-1 2.63-1.78 4.07-.53.98-.88 2.01-1.42 3-.08.16-.01.44-.12.58-.16.21-.42.29-.6.5-1.35 1.55-2.29 3.8-3.21 5.68-.82 1.69-1.53 3.5-2.08 5.29-.28.93-.34 1.11-.92 1.73-.7.74-.91 1.48-1.71 2.14-.95.78-1.35 1.72-2.18 2.62-.58.63-.61.83-.93 1.57-.59 1.38-.79 1.7-2.26 1.71-2.08.02-3.94 1.02-5.8 1.85-.94.42-1.9.83-2.92 1.02-1.64.32-1.77.15-3.08 1.64-.24.28-.46.57-.64.89-.26.45-.42.96-.78 1.35-.54.6-1.35.83-1.97 1.33-.68.55-1.28 1.19-1.78 1.91-.57.82-1.01 1.63-1.5 2.53-.68 1.26-1.57 2.37-2.16 3.69.04-.8.02-1.34.31-2.06s.42-1.1.41-1.88c0-.56.03-1.05-.11-1.58-.17-.67-.49-1.22-.73-1.86-.56-1.45-.37-3.34-.34-4.88 0-.49.09-.72.3-1.16.24-.53.22-1.12.41-1.65.18-.48.3-.96.47-1.44.25-.72.64-1.41.71-2.16.13-1.34.67-2.63.73-3.97.03-.67.02-1.22.17-1.87.1-.41.05-.83.05-1.25 0-.49-.15-1.25.11-1.67.33-.54 1.5-.69 2.04-.71.29 0 .61.08.88-.04.04-.02.21-.32.28-.38.13-.1.33-.16.47-.27.37-.28.63-.68 1.01-.97.32-.25.6-.42.91-.72.35-.34.68-.56 1.06-.85.23-.18.65-.48.81-.71.15-.21.2-.67.28-.92.26-.87.42-1.76.68-2.63.28-.92.69-1.79.91-2.73.27-1.18.63-2.36.75-3.54.03-.34.2-.5.25-.81.07-.46.03-.95.1-1.42.28-1.78.57-3.45 1.29-5.1.37-.85.74-1.7 1.14-2.53.33-.69.85-1.37 1-2.13.1-.5-.03-.97-.1-1.47-.13-.87.04-4.87-.44-4.79-3.63.65-6.4 3.3-8.53 4.86-4.92 3.6-7.38 7.76-11.19 11.66-1.17 1.2-4.31 6.85-7.07 7.13.2-1.65-4.77-1.39-6.93-1.1-3.46.48-4.94 2.4-7.51 3.5-1.47.63-3.48.94-4.74 1.67.26-1.83.55-2.31-3.35-2.23-3.21.06-5.48.63-8.41 1.27-1.38.31-4.57 1.07-6 .63-1.24-.39-.77-.89-.72-1.8.08-1.19-.63-1.32-1.79-1.36-.56-.02-1.12.04-1.68.08-.71.05-1.67.24-2.33-.11-.87-.45-.76-1.42-.76-2.27 0-.74-.02-1.48-.02-2.21 0-.35-.18-1.58.04-1.84-.68.82-1.52 1.52-2.29 2.22-.71.64-.86 1.03-1.24 1.83-.36.75-.82.82-1.44 1.31-2.23 1.77-3.71 4.4-5.7 6.38-.99.98-.9 2.19-1.52 3.36-.42.78-1.27 1.34-1.9 1.97-.75.75-1.01 1.7-1.52 2.58-.66 1.14-1.79.76-3.05.76s-2.24-.26-3.13.67c-.72.75-1.43 1-2.37 1.25-.38.1-.62.03-.95.19-.14.07-.95.84-1.06.94-.65.55-1.26 1.11-1.81 1.76-.92 1.07-1.84 1.92-2.94 2.81-1.49 1.2-3.36 2.78-5.24 3.35-1.01.3-2.53-.37-3.44.14-1.11.62-1.57 2.71-1.97 3.75-.19.5-.59.85-.86 1.3-.48.77-.86 1.67-1.32 2.47s-1.05 1.55-1.49 2.36c-.13.24-.21.72-.42.89-.37.3-1.04.3-1.55.49-.56.21-.96.31-1.49.46-.88.23-1.36.82-2.21 1.17-1.41.58-2.78 1.26-4.12 1.84-.51.22-1.16.24-1.64.47-1.12.54-2.03 1.5-2.93 2.32s-1.51.71-1.69-.83c-.26-2.22 1.63-4.6.26-6.7-1.11-.26-2.32-.19-3.35.11-.97.68-1.73 1.42-2.27 2.22a69.46 69.46 0 0 1-5.63 5.03c-4.08 3.42-8.22 6.83-12.38 10.23-1.22 1-2.37 2.39-4.23 2.91-1.8-3.28.89-7.05-.39-10.39-.12-.31-2.26.64-2.49.77-.85.48-1.57 1.15-2.33 1.76-1.56 1.26-3.41 2.26-5.48 1.81-.36-1.07-.1-2.6-.11-3.73-.01-1.44-.03-2.88-.04-4.32-.02-2.88-.02-5.76.05-8.63.03-1.11.32-2.24.76-3.27.38-.89.99-1.52 1.62-2.28.3-.37.76-.46 1.06-.73.33-.31.5-.58.66-1.14.16-.6.18-1.31.56-1.83.3-.42.76-.56.75-1.14 1.09-.09 1.5-1.47 2.01-2.25.98-1.5 1.93-3.03 2.4-4.79.17-.62.54-1.5.48-2.17-.05-.56-.29-.84-.42-1.39-.21-.9-.02-2.12.31-2.88.17-.39.41-.61.58-.94.25-.48.2-.74.34-1.31.27-1.06.97-1.98 1.36-2.99.35-.91.99-1.43 1.57-2.24.69-.96 1.52-1.65 2.08-2.75.22-.42.4-.86.58-1.28.8-1.83 2.36-3.42 3.23-5.29.27-.57.35-1.17.59-1.73.36-.85 1.07-1.48 1.67-2.23.78-.98 1.71-1.82 2.44-2.83.48-.65.91-1.3 1.41-2 1.34-1.86 2.42-3.9 3.75-5.76 1.14-1.6 1.76-3.57 3.14-4.98.94-.96 2.12-1.36 3.28-1.97.72-.38 1.38-.83 1.97-1.38.72-.67 1.53-1.49 1.89-2.41.77-1.96-1.04-4.14.18-6 2.35.6 4.92 1.43 5.71 2.93.94 1.78 0 4.76-.12 6.53 3.92-3.51 4.36-7.73 7.16-11.64 1.43-2.01 2.09-4.26 3.21-6.32 1-1.83.87-3.66 1.74-5.43.39-.79 1.44-1.61 1.82-2.4.47-.98.11-1.94.53-2.93.12-.29.74-.85.92-1.28.41-.98.86-2.06 1.21-3.07.75-2.16.72-4.42 1.41-6.57.55-1.74 1.89-4.08.71-5.87-2.16.19-4.28 1.99-5.66 2.77-2.27 1.29-4.76 2.47-6.47 3.92-2.88 2.44-7.43 4.65-8.51 7.55-.37.99.12 1.99-.29 2.97-.41.97-1.67 1.8-2.71 2.6-3.94 3.08-8.1 6.08-12.22 9.1-1.36.99-1.82 2.15-2.94 3.12-.56.49-1.63.78-2.11 1.29-.52.54-1.03 1.97-1.31 2.64-.43 1.02-.54 2-1.14 3.03-1.19 2.05-2.03 4.05-2.94 6.1-1.09 2.43-1.07 5.08-.92 7.69.07 1.13.32 2.35.09 3.48-.18.86-.42 1.77-.68 2.61-.5 1.59-1.43 3.29-2.17 4.84-.39.81-.94 1.48-1.34 2.28-.19.37-.25.84-.46 1.18-.17.28-.54.46-.7.7-.55.84-.96 1.73-1.97 2.31-1.46.84-2.66-.4-4.18-.4s-2.87 1.18-3.9 2.38c-.84.98-.78 2.63-1.89 3.43-.56.4-1.23.51-1.81.87-.89.54-1.49 1.6-2.29 2.26-1.28 1.07-2.07 1.79-3.81 1.72-.77-.03-1.28-.55-2.09-.4-.7.12-1.38.67-1.81 1.23-1.16 1.54-1.67 3.44-2.95 4.88-.57.64-1.13 1.17-1.61 1.89-.68 1.02-1.52 1.7-2.4 2.53.29-3.41-.24-6.81.4-10.21.32-1.71.44-3.47.87-5.16.18-.72.39-1.43 1.06-1.85.4-.25 1.12-.19 1.38-.64.44-.74-.64-1.79-1.02-2.32s-.77-1.05-1.06-1.64c-1.31-2.67-.08-5.86-1.8-8.43-3.22 2.36-3.98-2.26-4.15-3.01-.3-1.24-.5-2.49-.62-3.74-.26-2.62-.21-5.25-.12-7.87.04-1.31.1-2.62.13-3.93.03-1.24-.1-2.47-.07-3.72 0-.29-.23-.55-.35-.84-.19-.48-.27-.97-.47-1.45-.59.16-1.01.06-1.28-.26-.08-.1-.24-.41-.44-.46-.3-.09-.42.17-.51.27-.09.09-.24.38-.52.35-.2-.02-.39-.32-.46-.39-.16-.15-.3-.26-.67-.25-.3.01-.35.14-.59.16-.1-.14-.03-.35-.03-.5V32.1v-.96c0-.1.1-.28-.07-.35-.48.16-.9.35-1.41.49-.15.04-.3.08-.45.13-.35.11-.48.26-.74.41-.19.11-.44.18-.63.28-.29.15-.49.35-.75.53-.78.51-1.35 1.11-1.9 1.7-.46.49-.99.97-.97 1.53.02.48.01.96 0 1.43 0 .18.06.35.06.52 0 .23-.28.4-.5.6-.91.82-2.29 1.54-3.03 2.4-.13.15-.11.23-.14.38-.03.14-.12.26-.2.4-.17.32-.29.62-.59.91-.25.24-.39.51-.62.76-.35.38-.7.75-1.03 1.13-.62.72-1.23 1.44-1.82 2.17-.19.23-.43.5-.46.75-.04.33.25.25.63.08.17-.07.36-.18.51-.26.34-.19.71-.36 1.05-.55.9-.51 1.52-1.13 2.37-1.66.46-.29.76-.53.79-.88.02.12-.12.23-.16.34-.04.11-.02.24 0 .35.04.21.05.32-.12.52-1.83 2.08-3.28 4.3-5.61 6.26-1.49 1.25-2.42 2.67-3.74 3.92-.2.18-.54.34-.77.52-.5.38-.84.81-1.33 1.19-.46.36-1.02.66-1.52 1-.56.38-.92.83-1.44 1.22-.55.41-1.13.74-1.53 1.2-.35.4-.55.89-.82 1.32-.4.62-1.02 1.27-1.21 1.92-.12.4-.05.57-.35.94-.27.34-.6.66-.82 1.01-.27.42-.3.87-.54 1.29-.15.27-.42.51-.57.79-.16.3-.47.53-.63.8-1.02 1.64-1.12 3.42-1.26 5.14 0-.57.57-1.16 1.11-1.65.7-.64 1.23-1.31 1.99-1.91.38-.3.73-.6 1.11-.89.22-.17.31-.49.8-.51.38.53-.24 1.24-.26 1.81 0 .27.1.55-.02.82-.1.23-.28.42-.3.66-.04.46-.3 1.43.08 1.83.42-.2.48-.79.62-1.04.26-.47 1.09-.86 1.58-1.27 1.11-.96 2.75-1.8 3.67-2.82.17-.18.27-.37.4-.55 1.16-1.75 2.19-3.54 3.28-5.31 1.53-2.47 3.4-4.99 5.33-7.39.63-.79 1.24-1.58 1.83-2.38.12-.17.04-.24.31-.34v.21c-.09-.22.11-.54.37-.72.13-.09.37-.14.49-.23.15-.11.18-.34.3-.46.25-.26.51-.54.8-.8.15-.15.59-.61.8-.63.15.22-.02.41.06.63.1.29.32.51.34.81.03.46 0 .92 0 1.38 0 1.41.16 2.8.17 4.2.01 1.35-.16 2.66-1.16 3.92"/></svg>
