<?xml version="1.0" encoding="UTF-8" standalone="no"?>
<svg
   xmlns="http://www.w3.org/2000/svg"
   viewBox="0 0 882.3 414.96">
<defs><style>.cls-1{fill:black;}</style></defs>
  <path
     id="path14"
     d="M564,109.16a5.34,5.34,0,0,0-3.19-2.06c-.84-.27-1.74-.21-2.54-.51a5.73,5.73,0,0,0-2.42-.49c-1.3,0-2.66-.22-3.86.37a12,12,0,0,0-3.16,2.92c-1.43,1.66-2.09,4.15-2.58,6.24a24.3,24.3,0,0,0-.68,5.37c0,.87,0,1.73,0,2.6a24.82,24.82,0,0,0,.61,3,10.18,10.18,0,0,0,.24,1.84,24.58,24.58,0,0,1,.95,2.38,10.55,10.55,0,0,1,.25,2.37,3.34,3.34,0,0,1-1,2.5,39,39,0,0,0-5,8.69c-.41,1-1.37,2.47-.85,3.6.37.79,2.19.87,3,1.22a21.84,21.84,0,0,1,2.87,1.79,6.72,6.72,0,0,1,2.57,2.27,28.13,28.13,0,0,1,3.06,6c.48,1.37.7,3.14,1.89,4.15.55.46,1.16.86,1.72,1.33a5.74,5.74,0,0,0,4.43,1.38c1.32,0,1.91.58,3.26,0,1.53-.63,2.54-1.24,3.61.39a6.85,6.85,0,0,0,.78,1.25c.38.41.77.44.94,1a11.16,11.16,0,0,1,0,3c0,1.49,1.66,2.42,3.09,2.6a22.46,22.46,0,0,0,2.72,0c.5,0,1.43.31,1.85,0s.41-1.44.8-2a2.5,2.5,0,0,1,1.19-.94,8.91,8.91,0,0,1,.92-.27c.47-.14.94-.32,1.42-.43,1.22-.29,2.52.07,3.72-.32.38-.12.75-.25,1.11-.4a3.83,3.83,0,0,0,1.48-1,9.08,9.08,0,0,0,1.13-2.05,12.29,12.29,0,0,0,1.48-2.94,8.08,8.08,0,0,0,0-1.39,16.46,16.46,0,0,1,.36-2.32,50.92,50.92,0,0,0,.34-7.21,4.51,4.51,0,0,0-.76-3c-.58-.6-1.9-.62-2.66-.79-1.28-.29-2.58-.45-3.87-.63-.48-.07-.88-.3-1.35-.37a13.67,13.67,0,0,0-1.81,0c-.86,0-2.73.38-3.46,0-.49-.28-.52-1.21-.7-1.66a5.07,5.07,0,0,1-.48-1.74,15.08,15.08,0,0,1,.35-5c.48-1.53,1.8-4.72.71-6.26-.71-1-1.24-2.4-2.26-3.08a8.48,8.48,0,0,0-2.9-1c-1.34-.22-2.6.07-3.93-.37a31.09,31.09,0,0,1-3.62-1.16c-.63-.29-1.71-.76-2-1.44-.41-.91.54-1.71.68-2.54s-.11-1.58.33-2.42a11.92,11.92,0,0,1,1.32-2.3c.36-.41.93-.67,1.19-1.16.52-1,.17-2.71,0-3.74a27,27,0,0,0-.66-3.68A5.25,5.25,0,0,0,564,109.16Z"
     class="cls-1" />
  <path
     id="path16"
     d="M605.4,63.35a6,6,0,0,1,.16,2c0,1-.72,1.54-1.35,2.4a6.07,6.07,0,0,0-1.05,1.66,26.34,26.34,0,0,0-.76,2.73c-.13.49-.42.95-.54,1.44s-.06,1.07-.15,1.56a14.68,14.68,0,0,0-.25,2.83,5.84,5.84,0,0,1-.94,3.16c-.58,1-1.9,1-2.83,1.69A27.82,27.82,0,0,0,594.54,86a13.11,13.11,0,0,1-4.8,3.1,19.76,19.76,0,0,1-2.17.41c-.54.11-1.49.07-1.93.49-.72.69-.14,2.24-.27,3.11a12.31,12.31,0,0,1-.55,1.5,6.49,6.49,0,0,0-.16,1.87c0,1.17,0,2.34,0,3.51,0,2.17.06,5.1-1.36,6.94-.6.77-2,1.56-1,2.61s2.11,1.87,3,3a11.12,11.12,0,0,0,2.53,2.22c3,2,1.45,5,1.58,7.84a3.82,3.82,0,0,0,1.78,2.7,7.94,7.94,0,0,0,3,0c1.09-.37,2.26-1.88,3.13-2.54.49-.36.95-.59,1.07-1.21s-.13-1.16,0-1.72a8.33,8.33,0,0,1,.38-1.09c.3-.72.53-1.46.82-2.18a6.92,6.92,0,0,1,1-2,5.22,5.22,0,0,1,1.17-.42,4.26,4.26,0,0,1,1-.46c.76-.12,1.81.12,2.39-.48.38-.39,0-2.44,0-3,0-1.14,0-2.28,0-3.42,0-.76-.09-.82.5-1.15a10.78,10.78,0,0,1,2.95-.47,26.57,26.57,0,0,1,3.22,0,13.65,13.65,0,0,0,3.26-.38,11.17,11.17,0,0,0,1.75-.57,2.62,2.62,0,0,0,.86-.54c.76-.59,1.18-1.38,2.21-1.25a8.64,8.64,0,0,1,3,1c1,.61.73,1.65.73,2.72v17a9.63,9.63,0,0,0,0,1.86c.28,1.56,1.87,2.69,2.94,3.71a5,5,0,0,0,2.51,1.44c.6.18,1.11.52,1.72.71a22,22,0,0,0,2.92.51,18.76,18.76,0,0,0,5.24.18c1.37-.22,2.13-1.71,3.47-2.15a6.8,6.8,0,0,0,2.42-1.44,4.32,4.32,0,0,1,3.45-.48c1.29.36,1.7,1.5,2.71,2.19a6.31,6.31,0,0,0,1.72.76c1,.27,1.5-.31,2.15-1,1.36-1.46,2-4.31,4.36-4.42a21.81,21.81,0,0,1,3.43,0,19.26,19.26,0,0,1,2,.61,12.92,12.92,0,0,0,1.52,0c.67.1,1,.58,1.67.73a12.27,12.27,0,0,0,3.37,0,13.81,13.81,0,0,0,4.77-1.4c1.69-.88,2.86-2.84,4.22-4.16,1.18-1.15,2.55-1.64,3.85-2.6s2.55-2.42,4-3.42c1.13-.77,1-1.25,1-2.63,0-1.86.17-3-.86-4.58a4.76,4.76,0,0,1-.84-3.41,53.14,53.14,0,0,0-.71-6.39,56.49,56.49,0,0,1-.33-5.95,7.13,7.13,0,0,0-.06-2.44c-.55-1.27-2.57-.69-3.68-.68a16.46,16.46,0,0,0-3.58,0c-.66.16-.77.71-1.23-.06a9,9,0,0,1,0-2.74c0-.93,0-1.87,0-2.8a47.28,47.28,0,0,1,.08-5.71,20.19,20.19,0,0,0,.28-2,15.13,15.13,0,0,1,0-1.78c.34-1.85,1.67-3.12,2.27-4.81a5.47,5.47,0,0,0-3.28-7.09c-.67-.23-1.21-.67-1.85-1a18.09,18.09,0,0,0-2.48-.74c-1.52-.4-2.3-1.38-3.53-2.29a4.42,4.42,0,0,0-2.7-1.23c-.76,0-1.53,0-2.3,0-1.24,0-3.54.41-4.38-.67-.39-.51-.53-1.21-.92-1.73a3.73,3.73,0,0,1-1-2c-.3-2.49,1.07-4.35,2.43-6.2.53-.72.73-3.19-.33-3.45-1.27-.32-2.9.76-4.17,1a7.32,7.32,0,0,1-2,.07c-1.52-.16-1.84-1.31-2.1-2.69a7.14,7.14,0,0,1-1.47-.58,6,6,0,0,0-2.25-.16c-1.8,0-3.67-.75-5.5-.28a26.13,26.13,0,0,0-2.85,1.1,16.06,16.06,0,0,0-2.41.75,21.34,21.34,0,0,0-2.23,1.57c-1.21.88-2,2.07-3.1,3a14.93,14.93,0,0,1-2.25,1.54c-.6.33-.9.16-1.19.86a14.5,14.5,0,0,0-.41,2.86A11.29,11.29,0,0,1,627,54.56c-1.35,2.31-4.76,2.84-7.21,2.51-1.53-.2-2.88-1.45-4.48-1.32-.45,0-.88.24-1.33.3a35.39,35.39,0,0,1-4.72,0h-2.76c-.74,0-.85,0-1.18.67a7.28,7.28,0,0,0-.43,3.47,5.37,5.37,0,0,0,.34,2.72A2.05,2.05,0,0,1,605.4,63.35Z"
     class="cls-1" />
  <path
     id="path18"
     d="M536.43,280.87c.52.12.71-.73.91-1.17a12.7,12.7,0,0,1,1.16-1.9,20.41,20.41,0,0,1,1.37-1.84,8.19,8.19,0,0,1,1-1c.39-.3.83-.47,1.21-.79a10.57,10.57,0,0,0,1.29-1.12,2.1,2.1,0,0,1,.75-.73,9.48,9.48,0,0,1,3-.53,3.86,3.86,0,0,1,.76,0,7.09,7.09,0,0,1,1,.25,12.37,12.37,0,0,0,3.44.17c.69,0,1.09,0,1.42.69a3.74,3.74,0,0,0,.85,1.13,2.17,2.17,0,0,1,.69,1.11c.13.41.37.76.48,1.17a6.81,6.81,0,0,1,.23,1.62c0,.46-.09.61.26,1a2,2,0,0,1,.58,1.39,4.57,4.57,0,0,1,0,.74.13.13,0,0,1-.12.12,1.21,1.21,0,0,0,0,.6c0,1.05,0,2.11,0,3.17a4.56,4.56,0,0,1-.13,1.38c-.21.7-.5,1.38-.72,2.08a9.74,9.74,0,0,0-.42,2.68,3.09,3.09,0,0,0,1.08,2.88,7,7,0,0,0,2.63,1.07,13,13,0,0,1,1.51.42,7.77,7.77,0,0,1,.9.48,3.52,3.52,0,0,0,.45,0c.31.06.61.24.92.32.6.16,1,.7,1.49,1.06.69.52,1.33.63,1.37,1.53a4.73,4.73,0,0,1-1,3.41,5.55,5.55,0,0,0-1,1.92,4.29,4.29,0,0,0,.67,3.52,8,8,0,0,1,.64,1.4,4,4,0,0,1-.23,3.3c-.65,1.26-2.08,1.76-3.22,2.44a6.3,6.3,0,0,1-.8.45c-1,.39-2,.56-3,.86a4.87,4.87,0,0,1-1.57.19h-4.88a3.83,3.83,0,0,1-1.88-.15,5.22,5.22,0,0,1-.81-.75,10.82,10.82,0,0,0-1-.78,5.06,5.06,0,0,0-2.44-1.23,30.19,30.19,0,0,0-3.43,0,20.65,20.65,0,0,0-4,.16,6.26,6.26,0,0,0-1.21.55c-.28.12-.57.21-.85.33a8.78,8.78,0,0,0-1.71,1c-1.2.94-2.24,2.08-3.47,3-.36.26-.71.56-1.08.8a5.83,5.83,0,0,0-.62.39,8.07,8.07,0,0,1-.58.59,1.92,1.92,0,0,1-.35.18,1.32,1.32,0,0,1-.62.12c-.43,0-.84-.22-1.26-.27a33.18,33.18,0,0,0-4.57,0,16.13,16.13,0,0,1-2.7-.14c-.64-.1-1.27-.21-1.91-.26-.88-.07-1.76,0-2.63,0a8.15,8.15,0,0,1-2.23-.53,7,7,0,0,1-2.87-1.71c-.62-.71-.36-2-.37-2.91a12.21,12.21,0,0,1,0-1.6,6.83,6.83,0,0,0,.12-.77,3.18,3.18,0,0,0-.13-1.06c-.27-.81-.9-1.06-1.5-1.6s-.85-1-1.58-1c-.35,0-.74,0-1.1,0a1.91,1.91,0,0,0-1,.61c-.74.62-1.38,1.33-2.14,1.93a2.77,2.77,0,0,1-1.63.84c-.87,0-1.66-.31-2.55-.29-.39,0-.74.15-1.14.15a3.91,3.91,0,0,0-.49,0c-.22,0-.29.09-.47.17a2.56,2.56,0,0,1-1.07,0,10.92,10.92,0,0,1-2-.37,8.87,8.87,0,0,1-3.23-1.73,11.58,11.58,0,0,1-3.47-6.3,23.4,23.4,0,0,1-.32-8,17.37,17.37,0,0,1,.58-3.19,3.1,3.1,0,0,1,.25-.56,3.42,3.42,0,0,0,.49-.85,3.93,3.93,0,0,0-.39-3.09,11.48,11.48,0,0,0-1.64-1.55c-.9-.83-1.79-1.66-2.77-2.41-.82-.62-.6-1.38-.6-2.36a17.87,17.87,0,0,1,0-2.07,2.49,2.49,0,0,1,.48-1.51c.48-.47,1.4-.47,1.68-1.14a5.6,5.6,0,0,0,0-2,2.52,2.52,0,0,1,.33-1.55,7.47,7.47,0,0,1,1.1-1.35,4.56,4.56,0,0,1,1.25-.62,2.84,2.84,0,0,1,1.77-.21,12,12,0,0,0,1.34.36,9.41,9.41,0,0,0,3.85-.24,6.87,6.87,0,0,0,1.85-.89,2.12,2.12,0,0,1,1.41-.4,2.57,2.57,0,0,1,2.16,1.82A9.67,9.67,0,0,0,499,274c.22.49.52.95.77,1.42s.47,1.65,1.1,1.81a5.73,5.73,0,0,0,1.31,0c1.68,0,3.63-.27,5.25.31.68.25,1.34.6,2,.91a4.41,4.41,0,0,1,1.59,1.18c1.82,2.22,1.31,5.76,1.06,8.39a8.17,8.17,0,0,0-.12,2.41,3.79,3.79,0,0,1,0,1,10.87,10.87,0,0,1-.38,2.11c-.39,1.42-1,2.77-1.46,4.15a3.4,3.4,0,0,0-.12.71,5.35,5.35,0,0,1-.27.86c-.29,1,1.14,1.65,1.9,2s1.25-.05,2-.35a4,4,0,0,1,1.81-.21c.65.11.67.9.66,1.45s-.15,1,.09,1.38a2.14,2.14,0,0,1,.54,1.3,3,3,0,0,0,0,1.07c.18.53.57.95.72,1.5.08.26,0,.32.28.47a1.16,1.16,0,0,0,1,0c1.11-.43,1.71-1.76,2.34-2.67.48-.7,1.14-1.3,1.59-2a20.1,20.1,0,0,0,.88-2.07,5.65,5.65,0,0,0,.64-1.92c.16-1.75.41-3.48.66-5.23a5.8,5.8,0,0,1,.86-2.35,3.46,3.46,0,0,0,.24-.85c.12-.5.27-1,.38-1.48a22.92,22.92,0,0,1,.79-2.72c.15-.43.61-1.56,1.22-1.58,0-.63.89-1.3,1.31-1.69s.65-.54.95-.8.4-.53.64-.76a6.63,6.63,0,0,1,1-.62,3.38,3.38,0,0,1,1-.61c.35-.1.72-.28,1.07-.35a3.7,3.7,0,0,1,.88,0c.5,0,.62.33,1,.58A.7.7,0,0,0,536.43,280.87Z"
     class="cls-1" />
  <path
     id="path20"
     d="M605.27,254.08l.54.23a2.93,2.93,0,0,1,1.08.56c-.87.24-1.81-.06-2.68.17a16.41,16.41,0,0,0-1.54.69,3.12,3.12,0,0,0-1,.47c-.29.22-.52.5-.83.7a3.21,3.21,0,0,0-.86.59,4.54,4.54,0,0,1-.48.67c-.34.29-.84.27-1.1.66a2.35,2.35,0,0,0-.24,1.28,1.54,1.54,0,0,0,0,.48c.05.1.18.17.25.25a.93.93,0,0,1,.31.7,2.44,2.44,0,0,1,0,.66,3,3,0,0,0-.13.69c-.17,2-.57,4-.65,6.05-.19,5.08,3.17,7.07,4.72,11.39l-.65,1.83c-.33.94.05,1.57,1.15,1.9.48,2.86.28,5.07,1.85,7.36a12.78,12.78,0,0,1,3.37,3.15c.09,1.81.21,3.62.35,5.43a20.65,20.65,0,0,0,2.45,4.63c2,3.41.86,4.24,5.87,4.39a19.49,19.49,0,0,0,5.24-.44,39.42,39.42,0,0,0,10.07-4.27c4-2.29,5.24-4.08,7-8.27,1.55-3.71,1-5.32.29-9.43l-.33-3.21a3.55,3.55,0,0,0-1.61-3.65c-.84-2.47-1.4-3.55-.85-6.45a14.66,14.66,0,0,1-4.81.19c-1.2-2.22,1.32-4.34,1.63-6.53.4-2.85-1-2.86-1.79-5.19s0-4.84-.43-7.18c-.27-1.52-1.11-2.57-1.47-4.09-2-8.55,6.26-15.28-4-19.68-.1,0-.06-.7-.06-.79a7.93,7.93,0,0,1,.09-1c.1-.77.26-1.53.4-2.29a5.55,5.55,0,0,0,.32-1.6,4.69,4.69,0,0,0-.35-1.37,2.15,2.15,0,0,1-.25-.68,1.79,1.79,0,0,0-.09-.57.49.49,0,0,0-.32-.22c-.39-.15-1.31-.14-1.59-.49a1,1,0,0,1,0-.72c.14-.69.27-1.68.94-2.07a1.64,1.64,0,0,0,.57-.4,8.61,8.61,0,0,0,.56-.87c.47-.72.88-1.59,1.77-1.79a.65.65,0,0,0,.5-.36c.15-.23.47-.49.53-.73.18-.75-1.13-.72-1.59-.86-.07-.4-.35-.68-.35-1.09a8.15,8.15,0,0,1,.1-1.71,1,1,0,0,0,0-.55,2.2,2.2,0,0,0-.68-.94,2.42,2.42,0,0,0-1.74-.49,2.4,2.4,0,0,1-1.53-.69,6.7,6.7,0,0,0-1.62-.85c-1.76-.7-3.31-.48-5.18-.25-2.9.36-6,.27-8.4,2.12a6.41,6.41,0,0,1-4.76,1.39,3.86,3.86,0,0,0-1.7.35c-.88.34-1.13.09-1.53,1.24a3.39,3.39,0,0,0-.12,1.81,1.44,1.44,0,0,1,.28.35c.09.29.08.58.19.88s.43.46.51.85a4.39,4.39,0,0,1-.06,1.58c-.67,2-4.31,2.91-6.13,2.88a9.24,9.24,0,0,0-5.12,1c-1.72,1-3.67,1.17-5.37,2.12a54.65,54.65,0,0,0-5.41,3.42,5.55,5.55,0,0,1-3.39,1c-3,.1-6.28-.35-9.31.14a36.36,36.36,0,0,0-4.56.88c-.61.19-.76.44-1,1.08a18.62,18.62,0,0,0,.67,15.12,12.61,12.61,0,0,0,3.35,4,8,8,0,0,0,2.75,1.07c1.17.34,1.55,1.19,2.55,1.75a15.9,15.9,0,0,1,1.75.88c.43.31.84.67,1.27,1,1.63,1.25,3.33,2,4.78,3.52.62.64,1.3.82,1.81,1.59A10.46,10.46,0,0,0,581,262c1.68,1.38,3.12,1.39,4.65-.21a5.75,5.75,0,0,1,2.67-1.49,49.07,49.07,0,0,0,7.49-3.77,10.84,10.84,0,0,0,2.07-1.61,8.7,8.7,0,0,0,.92-1.09c.3-.41.52-.87.82-1.29.46-.64,1.11-.05,1.62.2a4,4,0,0,0,1.33.3,5.37,5.37,0,0,1,1.6.57C604.51,253.76,604.89,253.92,605.27,254.08Z"
     class="cls-1" />
  <path
     id="path22"
     d="M669.64,139.1c-.5,0-1.44.87-1.84,1.14-.8.53-1.57,1.09-2.34,1.65-1.69,1.24-3.34,2.54-5.11,3.67a28.52,28.52,0,0,1-6.2,2.73,28,28,0,0,1-3.19,1.1,23,23,0,0,1-4.83.24c-1.3,0-3-.39-3.7,1-1.08,2.07-.86,4.75-1.74,6.91-.7,1.71-.91,3.92-2.65,5-.63.38-1.35.43-2,.81a5.93,5.93,0,0,0-1.8,2.05,14.25,14.25,0,0,0-2.31,7.4c0,.75,0,1.49,0,2.24,0,1.12.32,1.18,1.48,1.67,1.93.81,4.13,1.07,6,2a4.82,4.82,0,0,1,2,2.5,4.35,4.35,0,0,1-.83,3.61,14.51,14.51,0,0,0-1.11,1.5,8.4,8.4,0,0,0-.42,1.73c-.14.76-.16,2.47.68,2.76.41.14,1-.19,1.4-.07.92.27.68,1.79.76,2.5.23,2.18.08,4.44.59,6.56a3.59,3.59,0,0,0,2.48,2.4c1.06.43,2.52.36,3.28,1.34s.42,2.59.42,3.74-.08,2.49,0,3.72a2.62,2.62,0,0,0,1.77,2.32c1.06.42,2.44.75,2.76,2a25.25,25.25,0,0,1,.26,4.09c.25,4.08,0,3.36,2.68,6.76a26.39,26.39,0,0,1,4,7c1.35,4.54,0,10.26.19,15,.11,2.62,1.52,6.36.65,8.87s-3.48,3.16-5.26,4.88c-4.23,4.09-8.64,16.6-1.52,19.88,2.64,1.21,4,.54,6.21,3.17,1.53,1.78,2.24,4.12,3.73,5.9,2.34,2.8,3.89,2.69,6.95,4.1a4.68,4.68,0,0,0,3.79,2.55,11.32,11.32,0,0,0,4.42-.29c2.51-.5,4-1.35,6.77-1.48,2.4-.1,4.86.26,7.26.1A38.21,38.21,0,0,0,703.1,294c3.94-1.41,6.16-6,10.06-7.12,2.92-.84,4.67,0,7.48-2,3.51-2.56,5.13-6.34,9.61-7.52,3.81-1,3.47.73,7.33-3.18s6.53-8.93,8.7-13.88a98.52,98.52,0,0,1,7.66-13.88c2.07-3.29,2.09-5.43,1.68-9.3a18.64,18.64,0,0,0-1.4-6.93q-1.53-1.86-3-3.74c-1.21-1.5,1.72-7.71,1.94-10.09a23,23,0,0,0-.28-7.89c-.65-2.45-1.84-4-1.43-7.24.3-2.44,1.33-4.47.91-6.76-.23-1.28-1.41-2.67-1.77-4-.75-2.79-.24-4.44.44-7.22.48-2,1.45-9.86,3.4-10.81,4.12-2,6.28,7.05,6.39,9.72.16,3.69-.23,5.75,1,8.81a27.71,27.71,0,0,1,2.15,7.11c2.58,1.47,5.38-2.62,7.6-1.65s1.16,3.54,2.46,5c3.05,3.47,9.38,1,13.14-.2a4.35,4.35,0,0,1,4.56-1.15,6.09,6.09,0,0,0,5.54-.23,21.06,21.06,0,0,0,4.87-3.14,12.1,12.1,0,0,1,3.11-2.86,13.76,13.76,0,0,0,2.7-.55,6.16,6.16,0,0,1,1.83-2.48c.75-.13,1.49-.3,2.22-.5,3.49-2.7,7.13-10.33,3.15-13.57-2.9-2.36-4.45-1.23-3.55-5.83.46-2.34,2.07-5,2.83-7.29,1.59-4.79,6.73-12.9-.7-14.48-1.18-.05-2.36-.14-3.53-.29-1.09-.84-1.66-1.83-3-2.07a20.21,20.21,0,0,1-2-.64,11.37,11.37,0,0,1-3.09-1.36c-1.37-1-1.6-2.32-3.31-2.92s-3.09.07-4.61,1c-1,.61-3.06,2.2-4.27,1.47-.13-1.51-.48-3.53-2-4.11a5.3,5.3,0,0,0-5.17,1.1,6.43,6.43,0,0,0-1,2,26,26,0,0,1-3.1,5.87c-.7.85-1.58,1.59-2.36,2.38a5.59,5.59,0,0,1-2.46,1.89,24.38,24.38,0,0,0-2.39.56,6.28,6.28,0,0,0-1.81,1.37c-1.62,1.38-2.88,3.29-4.39,4.82a3.52,3.52,0,0,1-1.36,1,3.67,3.67,0,0,0-1,.35q-.5.69-.93,1.41a3.86,3.86,0,0,1-2.74.31,39,39,0,0,0-6.29.6c-1,.12-1.79.12-2.74.32-.61.12-1.15.29-1.74.43-1.37.31-2.89.09-3.73,1.34-1.07,1.6-.74,3.59-1,5.5a32.16,32.16,0,0,0-.42,4c0,2.38.64,5.78-.67,7.88a12,12,0,0,1-3.34,3.85,22.43,22.43,0,0,1-2.43,1.39c-.92.46-1.43.09-2,1s-1.32.69-2.27.74c-2.24.11-4.48.09-6.44,1.33-3.71,2.34-5.75,5.16-10.2,6.5a60,60,0,0,1-15.54,2.24,29,29,0,0,0-6.39.62c-2.12.53-4.5-.68-6.59-1-1.44-.22-2.58-.76-3.95-1a12.9,12.9,0,0,0-2.71-.08,4.29,4.29,0,0,0-1.29,0c-.33.15-.56.69-.88.94a12.13,12.13,0,0,1-1.43,1,10.12,10.12,0,0,1-2,.47,23.75,23.75,0,0,1-2.79,1c-1.6.25-2.45-1.25-3.84-1.79a18.23,18.23,0,0,0-2.37-.33c-.63-.17-.92-.77-1.44-1.1a28.15,28.15,0,0,0-2.67-1.72c-3.48-1.6-7-3.26-8-7.24-.39-1.49-.1-3.35-.1-4.89a14.53,14.53,0,0,1,0-3c.24-1,1.86-1.08,2.77-1.18a3.18,3.18,0,0,0,1.73-.43,9.63,9.63,0,0,0,1-2.77c.51-1.56.41-3.09,1.36-4.52a5.76,5.76,0,0,1,1.7-1.74,5.15,5.15,0,0,1,2-.54,21,21,0,0,1,2.09-.63,9.25,9.25,0,0,0,4.89-2.53,12,12,0,0,1,3.61-2.85c1-.52,2.71-1,3.47-2s.44-2.21.41-3.19c-.07-2.75-1.26-4.82-2.06-7.36-.87-2.73-.56-4.77-1-7.42C675,140.48,672.46,139,669.64,139.1Z"
     class="cls-1" />
  <path
     id="path24"
     d="M769,341a14.28,14.28,0,0,1,.37-3.62,46.63,46.63,0,0,1,1.37-4.51c.73-2,.56-4,.66-6.06a5.59,5.59,0,0,1,1.22-3.63,7,7,0,0,0,1.54-3.07c.16-.81.32-1.62.55-2.41a5.07,5.07,0,0,0,.47-2.59c-.16-.62-.83-.92-1-1.52-.27-.9.2-1.27-.7-1.9s-2-.94-2.91-1.52a5.21,5.21,0,0,1-2.31-6.81,9.53,9.53,0,0,0,1.11-2.85,6.4,6.4,0,0,1,.07-1.16,1.57,1.57,0,0,1,1.49-1.38,6.26,6.26,0,0,0,1.06,0,7.6,7.6,0,0,1,2.57-.65,20.17,20.17,0,0,1,4,.09,15.15,15.15,0,0,0,3.73.61c2.4,0,5.15-.43,7.39.52s4.59,2.63,5.1,5.19a43.23,43.23,0,0,1,1,7.25,24.32,24.32,0,0,0,0,2.83c.11.7.09.75.72,1.21a11.07,11.07,0,0,0,2.19,1.19c1.13.47,2.1.16,3.29.31a13.58,13.58,0,0,1,6.14,2.46,13.24,13.24,0,0,1,4.15,4.21c.68,1.33.59,3.15,1.1,4.62a8.89,8.89,0,0,1,.26,3.33c-.05,1-.68,1.56-1.05,2.42a9.88,9.88,0,0,0-1,2.79c-.09.7-.13.72-.66,1.15a12,12,0,0,1-4.14,2.41c-1.84.58-2.59,4.29-2,5.92A2,2,0,0,0,806.2,347c1.06,0,2.15-1.71,2.88-2.32.52-.43,1-1.23,1.59-1.41a6.89,6.89,0,0,1,2,0,3.25,3.25,0,0,1,2,.83c.66.48.32.61.68,1.24.48.84,1.64,1,2.16,1.81a12.72,12.72,0,0,1,1.38,3.42c1.4,5.19,3.19,4.61,6.7,7.45,8,6.5-3.7,16.45-11,18a40,40,0,0,1-8.27,1.14,10.56,10.56,0,0,1-2.75,0c-.34-.11-.46-.45-.73-.7a14.59,14.59,0,0,1-1.34-1c-1-1.2-1.18-2.88-1.55-4.34-.28-1.08-.5-2.9-1.8-3.22a4.82,4.82,0,0,0-2.39.37c-.7.22-1.44.25-2.12.49a29.31,29.31,0,0,0-2.52,1.58,5.47,5.47,0,0,1-3.66.13,37.88,37.88,0,0,0-4.43-1.14,23,23,0,0,1-4.06-.72,3.59,3.59,0,0,1-2-1,8.85,8.85,0,0,0-1.6-2,7.15,7.15,0,0,0-2.75-.78c-1.55-.19-3.09,0-4.65-.24-1.14-.17-1.91-.07-2.47-1.17s-.34-2.72-.34-4a17,17,0,0,1,0-2.37,24.94,24.94,0,0,1,.77-2.46,14,14,0,0,0,.24-3.48,13.84,13.84,0,0,1,.84-4.92c.46-1.31.8-3.09,1.84-4.06a.35.35,0,0,1,.07.39C769,342,769,341.48,769,341Z"
     class="cls-1" />
  <path
     id="path26"
     d="M281.26,116.74a8.13,8.13,0,0,1,1.53-.91,16.09,16.09,0,0,0,3.17-1.56,19.87,19.87,0,0,0,2.78-2.07c.44-.45.23-.56.91-.7a8.57,8.57,0,0,0,2.22-.71,3.94,3.94,0,0,1,2.73-.27c.48.17.75.62,1.09,1a10.94,10.94,0,0,0,1.93,1.6c1.55,1,3.74.39,5.49.47,1.54.06,1.87,1.12,2.18,2.5A35.29,35.29,0,0,0,308,123.7a20.63,20.63,0,0,0,.95,2.15,5.54,5.54,0,0,0,.86,1,14.75,14.75,0,0,1,2.23,2.57c.4.63,1.41,2.11,1.29,2.87a6.61,6.61,0,0,0,.82,4.35c2.15.18,5.2.46,7.08,1.51,3.14,1.77,2.41,4.53,4.54,7.31s3.71,1.92,6.71,3.2c1,.42,2.72,1.24,3.12,2.44.27.78.19,2,1.21,2.22a5.34,5.34,0,0,0,1.06,0,6.46,6.46,0,0,0,.88,0c.36,0,.44-.4.86-.32a3.34,3.34,0,0,1,1.5,1.14,8.44,8.44,0,0,1,.78,2.3,8.34,8.34,0,0,0,.79,1.87,5.56,5.56,0,0,0,1.45,1.41c1.09.9,2.55,1.41,3.35,2.64,2.2,3.37,1.56,7.31.93,11-.23,1.38,0,2.75-.24,4.12-.16,1-.51,2-.76,3.07s-.22,1.92-.39,2.89a7.53,7.53,0,0,1-1,2.24c-.66,1.27-.54,2.64-1,4-.2.55-.56,1-.8,1.5a10.21,10.21,0,0,1-.56,1.36c-.41.63-.77.81-1,1.66a2.8,2.8,0,0,1-.95,1.63c-.34.38-.49.87-.83,1.22a3.11,3.11,0,0,1-2.44.68h-2.73c-1.8,0-4.25-.27-5.89.52-1,.48-1,1.21-1.06,2.27,0,1.42.08,2.84,0,4.25a19,19,0,0,1-.62,4.4c-.46,1.72-.38,3.45-1.16,5.09-1.19,2.48-2.59,5.13-5.22,6.25a11.59,11.59,0,0,1-2.62,1,24.6,24.6,0,0,1-3.54,0,42.76,42.76,0,0,1-5.06-.25c-1.61-.18-1.68-.17-2.31-1.48-.43-.88-.89-1.94-1.87-2.08-.71-.1-1.24.05-2-.11-1.65-.31-3.34-.91-5-1.33-.61-.16-.91-.6-1.49-.85-2.61-1.1-5.32-.62-6-4.1-.36-1.84-.18-3.65-.63-5.36a32.72,32.72,0,0,0-2.75-6.65c-.28-.54-.57-1.08-.86-1.62a7.58,7.58,0,0,1-.9-1.71,2.62,2.62,0,0,1,0-.56,16.82,16.82,0,0,0-.41-2.73c-.37-1.76-.78-3.7.13-5.38a17.87,17.87,0,0,1,2.16-2.46,9.76,9.76,0,0,1,.93-1.11,1.11,1.11,0,0,1,.34-.22.86.86,0,0,0,0-.45c0-.57,0-1.15,0-1.72a5.94,5.94,0,0,1,.45-2,10.07,10.07,0,0,1,.42-1.39,5.42,5.42,0,0,1,1.54-2.49c.24-.17.54-.21.78-.36s.28-.21.45-.57a4.18,4.18,0,0,0,.34-1.23,21.83,21.83,0,0,1,1.55-3.6c-.14-2.63,1.22-5.19,2.83-7.18a1.21,1.21,0,0,1,1-.54l1.07,0a5.2,5.2,0,0,0,.68,0c.39-.25.17-1.48.17-1.76,0-.73,0-1.46,0-2.19a11.27,11.27,0,0,0-.3-1.83,1.18,1.18,0,0,1,0-.56,4,4,0,0,1,.69-.92,14.26,14.26,0,0,0,.89-1.16,5.19,5.19,0,0,0,.42-1.26,2.65,2.65,0,0,0,.19-.56c0-.23-.16-.24-.31-.38a2.75,2.75,0,0,1-.43-.74c-.26-.41-.64-.62-.77-1.12-.29-1.11.34-2.24-.5-3.23-2.26-2.69-4.34-.63-6.35-.61-2.51,0-4.63-1.53-7.37-1.31-2.49.2-3.73,1.21-6,2-1.8-1.13-2.3-3-3.48-4.63a6.24,6.24,0,0,0-2.26-2c-.8-.28-1.25,0-1.9-.77a3.42,3.42,0,0,1-1.13-2c0-1.14,0-2.3,0-3.45a11.52,11.52,0,0,1,.28-2.19c.06-.4,0-.88.05-1.26.15-.75,1.08-1.51,1.56-2.1a11.43,11.43,0,0,0,2.2-4.05,18.17,18.17,0,0,1,2.12-4.48A9,9,0,0,1,281.26,116.74Z"
     class="cls-1" />
  <path
     id="path28"
     d="M220,180.87a5.43,5.43,0,0,1,1.34-2.16A2.37,2.37,0,0,1,224,178c.52.28,1.12.41,1.62.71.7.43,1,1.26,1.88,1.44.28.06.57,0,.85.08a5.33,5.33,0,0,1,.76.37,5.13,5.13,0,0,1,1,.52c1,.75,1.57,1.93,2.81,2.36,2.5.86,6.41-.39,9.25.84a10.34,10.34,0,0,1,3.55,2.75,4.11,4.11,0,0,1,.62,1c.29.67.41,1.4.7,2.07a13.39,13.39,0,0,0,1.63,3A24.15,24.15,0,0,1,251,196a6.2,6.2,0,0,1,.6,1.21,5.69,5.69,0,0,1,.24,1.79,21.48,21.48,0,0,0,1,4.4,6.12,6.12,0,0,1,.29,1.4,4,4,0,0,1-.91,2.49,2.6,2.6,0,0,0-.63,1.44c0,.61,0,1.22,0,1.82a3.13,3.13,0,0,0,.21,1.66,11.16,11.16,0,0,0,2.31,2.24c.51.49.39,1,.23,1.62a5,5,0,0,0-.13,2.71c.43,1.31,1.85,1.24,2.86,1.88.3.19,1.31.83,1.41,1.23a1.25,1.25,0,0,1-.09.4l.33,1.22,1,2.09c.95,2,2.5,4,2.52,6.29,0,1.58-.9,2.79-1.37,4.25-.22.66-.25,1.35-.43,2a4.49,4.49,0,0,0-.37,1.59,8.57,8.57,0,0,0,.55,1.54,7.06,7.06,0,0,1,.37,2.5c0,.88-.31,1.72-.42,2.59-.16,1.39-.65,3.41.67,4.31.7.48,2.17.41,3,.44s1.75,0,2.63,0a4.64,4.64,0,0,1,.62,0c.14.06.13.18.27.26.47.28,1.1,0,1.58.2a9.31,9.31,0,0,1,1.26,1,7.91,7.91,0,0,1,1.62,1.35c.59.8,1.66.66,2.49.94a10.72,10.72,0,0,0,3.17.6,18.2,18.2,0,0,0,6.83-1.28,29.86,29.86,0,0,0,6.47-3.35c2.17-1.48,4.05-4,6.66-4.75,1.81-.53,4,.4,5.6-.31,1.16-.5,2-2.14,3.15-2.87s3.2-1.07,4.47-1.65c4.64-2.09,8.21-2.12,13.12-3.18,2.21-.47,3.61-2.48,6.08-2.89s4.67-.37,7.09-.87a17.88,17.88,0,0,1,4.41-.88,23,23,0,0,1,2.56.81c1.77-.31,4-2.27,5.81-2.11a9.7,9.7,0,0,0,1.63,2.64c.34.36.84.53,1.14.91a3.22,3.22,0,0,1,.52,1.29,11.34,11.34,0,0,1,.37,2.71A8.85,8.85,0,0,0,354,242a8.7,8.7,0,0,0,.34,2.06c.45.84,1.53,1.1,2.09,1.87a6,6,0,0,1,1.32,3.61.4.4,0,0,0-.14.46,10.46,10.46,0,0,0,0,1.77v3.5a7.67,7.67,0,0,1,0,2c-.26-.13-.31-.26-.51,0a2.76,2.76,0,0,0-.21.76,8.39,8.39,0,0,0-.53,1.77c-.19,2-.07,4-.18,6.06a16.62,16.62,0,0,1-.74,4.59,5.17,5.17,0,0,0-.5,1.67c0,.26,0,.53,0,.79,0,.42-.28,1.36-.75,1.52-.26.08-.49-.12-.79,0s-.45.76-.56,1.08a50,50,0,0,0-1.75,6.37,31.44,31.44,0,0,0-.66,5.47c0,1,0,2.06,0,3.09a7.34,7.34,0,0,1-1.24,4.33c-1,1.3-2.15,2.45-3.22,3.69S344.5,301.3,344,303a11.21,11.21,0,0,1-3.52,5.39,31.42,31.42,0,0,1-3.4,2.44,8.49,8.49,0,0,0-1.59,1.13,10.34,10.34,0,0,1-1.77,1.49,28.15,28.15,0,0,1-3,2.25,14.66,14.66,0,0,0-2.05,1.14c-1,.79-1.61,1.69-2.9,2.05a5.67,5.67,0,0,1-3.87.15,8.61,8.61,0,0,1-2.5-1.71,2.06,2.06,0,0,0-1.53-.7,33.63,33.63,0,0,0-4-.37c-1,0-1.69-.09-2.37.74a9.86,9.86,0,0,0-1.44,2.86c-.13.35-.19.63-.55.71a2.41,2.41,0,0,1-1.25-.38c-.64-.31-1.16-.8-1.8-1.13-.32-.16-.62-.35-.93-.54a6.16,6.16,0,0,0-2.19-.78c-1.56-.32-3.1-.46-4.67-.67a7.82,7.82,0,0,1-3.55-1.26,2.25,2.25,0,0,1-.68-1.36,12.6,12.6,0,0,0-.82-2.14c-.86,0-.59-.35-1-.89A2.35,2.35,0,0,0,292,311c-.67-.34-1.33-.7-2-1.07a12.22,12.22,0,0,1-2.26-1.58,16,16,0,0,1-3.24-3.17,3.55,3.55,0,0,1-.34-2.26,14.89,14.89,0,0,0,0-4.32c-.24-1.07-.87-2-.89-3.1,0-.32,0-.65,0-1a9.36,9.36,0,0,0-.1-2c-.12-.64-.33-1.28-.48-1.92a4.92,4.92,0,0,0-.56-1.48c-.45-.69-1.2-1.06-1.37-1.92.31-.18.05-.33-.09-.52a2.87,2.87,0,0,1-.46-1.59c0-1.5.11-3.16-.79-4.48-.27-.4-.71-.66-1-1.06a27.18,27.18,0,0,1-1.35-2.42c-.69-1.28-1.16-3-2.83-3.12s-3.48,0-5.19,0a35.27,35.27,0,0,1-3.55.36c-1-.1-2-.3-3-.35-.41,0-.56,0-.75-.36a7.31,7.31,0,0,1-.29-3.48c.05-.93.15-1.86.14-2.79a2.06,2.06,0,0,0-1.08-2.13,6.31,6.31,0,0,1-1.19-.94,10.39,10.39,0,0,1-1.12-1.45,3,3,0,0,0-2.38-.72c-.93,0-1.87,0-2.81,0a3.06,3.06,0,0,1-.9-.18,9.15,9.15,0,0,0-2.2-.2q-1.74,0-3.48.15l-.5.1c-.23.13-.24.33-.47.43l-.61-.1c-.57-.14-1.13-.26-1.71-.35a14.25,14.25,0,0,0-1.85,0,24.73,24.73,0,0,1-5.56-.54c-1-.22-2.08-.38-3.12-.55-.44-.07-.95-.06-1.37-.17a1.52,1.52,0,0,1-.53-.25,7.14,7.14,0,0,0-1.91-.91c-1.39-.37-2.91-.49-3.64-1.93-.48-1-.13-2.18-.91-3a1.37,1.37,0,0,0-1-.52c-.67-.05-1.33-.13-2-.19-.29,0-.31,0-.49-.12s-.16-.32-.26-.46a4.26,4.26,0,0,0-.34-.37c-.92-1.06-1.91-2.07-2.92-3-1.51-1.4-3.06-2.77-4.64-4.09a4.28,4.28,0,0,1-1.09-1.2c-1.28-1.65-3.34-1.36-5.14-1.71a9,9,0,0,1-3.58-1.14,3.32,3.32,0,0,0-1.19-.7,2,2,0,0,1-1.29-.8c-.19-.37-.1-.44-.5-.75-.1-.09-.22-.16-.32-.25a8.59,8.59,0,0,0-.85-.95c-.76-.61-.28-1.41-.69-2.24a6.25,6.25,0,0,0-1.18-1.43,1.33,1.33,0,0,1-.39-.7c-.12-.66-.07-.87-.66-1.33-.78-.61-1.6-1.46-1.27-2.53.26-.85.63-1.65.91-2.49.11-.3.18-.32.13-.54-.11-.41-.32-.29-.75-.29a22.24,22.24,0,0,1-2.31-.18c-.74-.08-1.44-.41-2.19-.52-1-.14-2-.26-3.05-.38a2.54,2.54,0,0,1-1.61-.56,6.63,6.63,0,0,1-1-1.41c-.33-.61-.58-1.31-.85-1.95a5.53,5.53,0,0,1-.53-1.32c-.13-.93.77-1.51,1.32-2.14a4.79,4.79,0,0,0,1.39-3.63,6.08,6.08,0,0,1,.39-2.67c.46-1.11.83-2.25,1.25-3.38a2.55,2.55,0,0,1,.54-1,5.86,5.86,0,0,1,1.25-.63c1-.43,2.14-.46,3-1.1,1.21-.86,2.53-1.37,3.78-2.13a15.55,15.55,0,0,1,2.39-1.07c.93-.37,2.24-.34,3.1-.85,1.18-.69-.09-1.52-.71-2a1.75,1.75,0,0,0-1.08-.56c-.48,0-1,0-1.45,0h-3.68a7.83,7.83,0,0,1-1.53,0c-.74-.18-1.32-1.16-1.56-1.81a8.81,8.81,0,0,0-1-2.3,6.46,6.46,0,0,0-6.12-2.65,34.86,34.86,0,0,0-5.87,1.5,18.11,18.11,0,0,1-2.91.6c-1.06.11-2-.34-3.1,0a6.51,6.51,0,0,1-2,.38h-1.28a18.74,18.74,0,0,1-2.12,0,4.94,4.94,0,0,1-2.22-.94,1.27,1.27,0,0,0-1.83.17c-.92.93-1.06,2.48-2.08,3.3a4.89,4.89,0,0,1-3.23.91,13.67,13.67,0,0,1-3.87-.46c-.37-.1-.43-.12-.46-.46s.07-.85.06-1.25a3.12,3.12,0,0,0-.93-2.35,2.14,2.14,0,0,0-1.88-.4c-1.79.33-3.15,1.68-4.94,2.06a3.77,3.77,0,0,1-2.82-.16c-.55-.38-1-.86-1.5-1.28a22.44,22.44,0,0,0-2.53-1.92,2.12,2.12,0,0,1-1.21-1.5,9.66,9.66,0,0,0-.4-2,5.23,5.23,0,0,0-.93-1.12,3.55,3.55,0,0,1-.63-1.22c-.2-.59-.24-1.21-.47-1.79a10.37,10.37,0,0,1-.78-2.36,12,12,0,0,1,.26-4.58,30.42,30.42,0,0,1,1.67-5.71,10.89,10.89,0,0,1,1.62-2.88,6.78,6.78,0,0,0,1.64-3.05c.31-1.18,1.45-2,2.28-2.83a10.53,10.53,0,0,1,1.24-1.34,3.42,3.42,0,0,1,1.68-.32,18.78,18.78,0,0,1,2.47-.33,4.56,4.56,0,0,1,1.43,0c.48.19.57,1,1.08,1.08s1.19-1.07,1.45-1.48a7.66,7.66,0,0,0,.9-2.31,5.37,5.37,0,0,1,.19-1.1c.24-.43.79-.35,1.23-.35a10,10,0,0,0,1.73,0c.3-.08.2-.15.43-.38s.44-.32.65-.53c.42-.43.74-.37,1.32-.36.88,0,1.77,0,2.65,0a3.64,3.64,0,0,1,1.47.09,2.29,2.29,0,0,1,1.32,1.5c.06.58,0,.76.69.75.39,0,.87.12,1.13-.17.43-.47.29-1.34,1-1.6a6.29,6.29,0,0,1,1.94,0,2.82,2.82,0,0,1,1.73.56c.19.18.28.5.47.71a8.34,8.34,0,0,0,2.68,2.12c.91.4,2.74-.19,3.55.39,1.56,1.14.69,4.34,1.68,5.8a4.43,4.43,0,0,0,3.33,1.82,10.64,10.64,0,0,1,4.29,1.17c.45.27.95.45,1.38.73a23,23,0,0,1,3.5,3.18,24.88,24.88,0,0,1,2.37,2.66l.75,1a11.3,11.3,0,0,1,.06,2.33c.09,1.09.19,2.78.92,3.67a8.71,8.71,0,0,0,3.5,2.08,16,16,0,0,0,2.62,1.08,13.47,13.47,0,0,0,2.46,0c1.22,0,2,.13,2.67-.91.46-.67.84-.61,1.64-.42a3.37,3.37,0,0,0,1.53.26c.19-.05.23-.16.36-.23a7.24,7.24,0,0,1,2.72-.31c2.44-.18,4.88-.23,7.31-.39A6.57,6.57,0,0,1,220,180.87Z"
     class="cls-1" />
  <path
     id="path30"
     d="M800.6,264.32c-4-.11-5.33.07-8.48,2.65-2.12,1.73-5.19,5-8.34,3.45-2-1-1.6-2.8-2.53-4.57-.59-1.13-1.66-.75-1.94-2.27-.18-.93.81-2.45,1.16-3.28a15.88,15.88,0,0,0-6.81,3.64,19.17,19.17,0,0,1-6.92,4.28,27.87,27.87,0,0,0-5.19,1.62c-1,.54-.6,2.1-1.86,2.08-1.45,0-1.73-1.7-2-2.85-1-4-1.1-14.5,1.34-17.51s5.11-3.23,4.89-8c-.24-4.95-1.73-3.95,2-7.67,1.95-2,2.7-3.27,6.16-2.23,2.65.8,5.09,3.28,7.75,4.43,4.62,2,6.75,5.45,7,10.5.4,8,4.55,2.72,9.32,4.88,3,1.37,8.57.71,5.55,3.18,1.23.58.77,2,2,3,1.5,1.17,3.92-2.27,5-1,.37.43.35.92.54,1.41a1.43,1.43,0,0,0,.62.62,11,11,0,0,1,2,1.87,12.59,12.59,0,0,1,1.2,1.69,2.19,2.19,0,0,1,.23.49c.22.88-.64,2-1.08,2.64-.55.87-1.13,1.72-1.75,2.53-.14.19-.34.42-.24.67s.34.34.51.45a4.44,4.44,0,0,1,.74.55c.85.84.45,2.18-.12,3.08a7,7,0,0,1-1.26,1.46,10.72,10.72,0,0,1-2,1.19,3.75,3.75,0,0,1-1.72.33,4.73,4.73,0,0,1-2.55-.43,3.82,3.82,0,0,1-1.74-2.32,7.82,7.82,0,0,1,0-1.45.53.53,0,0,1,0-.28c.07-.1.14-.06.2-.18a3.69,3.69,0,0,0,.24-.88c.16-.65.32-1.29.47-1.94a29.53,29.53,0,0,0,.67-3.87,2.45,2.45,0,0,0,0-.27C803.9,262,803.83,266.82,800.6,264.32Z"
     class="cls-1" />
  <path
     id="path32"
     d="M369,222.14c0,.13-.1.25-.16.38a14,14,0,0,0-1.29,6.11,1.92,1.92,0,0,1,1.23,1.44c.76,6,.19,10.57-2.57,16-.5,1-2.27,3.33-2.07,4.53.28,1.66,2,1.72,3,3,2.52,3.33,1.2,8,2.06,11.92.05.22,1.21.1,1.35.08a12.84,12.84,0,0,0,1.85-.35c.68-.16,1.36-.35,2.05-.5a.84.84,0,0,1,.68.08c.31.12.6,0,.92.06s.44.14.67.17a7.35,7.35,0,0,0,1.05,0c1,0,2.39.16,3.22-.48.65-.51.64-1.64.76-2.36s.38-2.28,1.09-2.84a4.75,4.75,0,0,1,1.56-.5,8.21,8.21,0,0,1,1.63-.3,8.83,8.83,0,0,0,2.72-.17c1.63-.63,3.54-1.08,4.44-2.78a8.2,8.2,0,0,0,.58-2.16,2.06,2.06,0,0,0-.14-1.27,12.31,12.31,0,0,1-.77-2.13,16.73,16.73,0,0,1-.65-4.27c0-.8-.13-1.59-.16-2.39a13.35,13.35,0,0,0-.69-2.75,16.26,16.26,0,0,1-.59-4.11,10.27,10.27,0,0,0-.07-1.84c-.25-1.3.46-2.79.95-4,.32-.77.67-1.53,1.06-2.28.19-.37.42-.21.66-.51a2,2,0,0,0,.22-.74c.14-.56.33-1.16.52-1.71a6.61,6.61,0,0,0,.64-2.11c0-.27,0-.53,0-.8a11.36,11.36,0,0,0,0-1.65c-.06-.38-.36-.46-.66-.68l-1-.82a11.1,11.1,0,0,0-2-1.18c-1.32-.69-2.55-1.61-3.82-2.4-.48-.3-.32-.42-.48-.85a4.71,4.71,0,0,0-.68-1c-.51-.56-1.54-.14-2.12,0a2.63,2.63,0,0,1-1.7.11,1.46,1.46,0,0,1-.71-.72c-.08-.32,0-.81,0-1.13s-.24-.72-.29-1.09c-.1-.79,0-1.54-.16-2.34-.42-1.91-1.84-2.67-3.7-2.9-2.22-.27-3.59.53-5.4-.76a8.91,8.91,0,0,1-2.27-2.76,26.16,26.16,0,0,1-1.74-3.57,3.3,3.3,0,0,1-.35-1.49c0-1.46,0-2.93,0-4.39a8.6,8.6,0,0,0-.27-3c-.14-.38-.44-.66-.58-1a3.54,3.54,0,0,1-.11-1.26,3,3,0,0,1,.33-1.84,10.28,10.28,0,0,1,1.43-1.59,20.11,20.11,0,0,1,1.45-1.73A5.54,5.54,0,0,0,372,179a23.34,23.34,0,0,0,.4-4.33c0-.82,0-2-.73-2.53a7,7,0,0,0-1.26-.5,13.45,13.45,0,0,1-1.35-.59c-.66-.36-1.05-1.09-1.75-1.4a7,7,0,0,0-2.59-.18,9.47,9.47,0,0,0-1.19,0c-.59.08-1.07.6-1.59.87a4.05,4.05,0,0,1-1.11.38,5.12,5.12,0,0,0-1,.38,8.86,8.86,0,0,1-2.15.57,11,11,0,0,0-1.28.2c-.56.18-.73.7-1,1.22a28.6,28.6,0,0,0-1.83,5.09,7.13,7.13,0,0,0-.32,2.67c.13,1,.6,1.88.75,2.85a3.63,3.63,0,0,0,.33,1,9.34,9.34,0,0,1,.4,1.37,5.14,5.14,0,0,1,.39,1.48,13.06,13.06,0,0,0,0,1.77,4.38,4.38,0,0,1,.06,1.2,17.78,17.78,0,0,1-1,3.59,7.46,7.46,0,0,0-.41,1.45,2.81,2.81,0,0,0,.11,1,16.57,16.57,0,0,1,.09,3.23,9.93,9.93,0,0,0,.07,2.18,4.05,4.05,0,0,0,.62,1.27,10.32,10.32,0,0,0,1.23,1.58c1,.92,2.78,1,4,1.21a28.71,28.71,0,0,0,4.62.39,8.79,8.79,0,0,1,4,1.24c.4.2.27.31.31.73a6.38,6.38,0,0,0,.6,1.55,5.18,5.18,0,0,1,.19,1.92c0,1,.31,2,.33,3a9,9,0,0,1-.32,2.47c-.12.49-.3,1-.4,1.46a6.91,6.91,0,0,0,0,1.64A5.2,5.2,0,0,1,369,222.14Z"
     class="cls-1" />
  <path
     id="path34"
     d="M450.92,268.18a1.81,1.81,0,0,0-.35-.33,9.42,9.42,0,0,0-4.57-.67,9.91,9.91,0,0,0-1.84,1.05,7.05,7.05,0,0,1-3.3,1,2.85,2.85,0,0,1-1.53-.24,14,14,0,0,0-1.66-.55c-1.11-.43-2.32,0-3.41.28a8.22,8.22,0,0,0-2.77,1.61,3.61,3.61,0,0,1-1.07.76c-.16.05-.32,0-.48.08-.46.14-.71.6-1.13.81a6.42,6.42,0,0,1-1.19.34,7.51,7.51,0,0,0-2,1.19,7.87,7.87,0,0,1-2.91,1.48,11.11,11.11,0,0,1-2.38.11,4.6,4.6,0,0,1-3.14-1.28,10.54,10.54,0,0,0-1.47-1.59,5.1,5.1,0,0,0-1.51-.92,5.61,5.61,0,0,0-.71,0c-.26,0-.48-.15-.74-.18a2.79,2.79,0,0,0-1.59.2c-.44.27-.87.61-1.3.91a22,22,0,0,1-1.84,1.32c-.43.24-.85.47-1.3.69-.65.32-.77.74-1.22,1.32a9.36,9.36,0,0,0-1.12,1.78c-.35.82-.55,1.73-.86,2.57a6.19,6.19,0,0,0-.23,2,5.42,5.42,0,0,1-2.54,3.85,6.5,6.5,0,0,1-3.58.7,29.39,29.39,0,0,1-4.58-.56c-1.36-.24-2.77-.4-4.11-.72-.23-.06-.44-.18-.67-.23a9.43,9.43,0,0,0-2.19,0c-.8,0-1.61,0-2.41,0-.36,0-.69-.11-1.05-.16a11.68,11.68,0,0,0-1.45,0c-1.21,0-2.33.33-3.55.32a6.59,6.59,0,0,1-1.6-.07c-.36-.09-.71-.24-1.06-.35a6.59,6.59,0,0,0-3.06-.1,5.54,5.54,0,0,0-2.56.86,2.31,2.31,0,0,0-1.09,1.47,18.55,18.55,0,0,0,0,3.65,16.75,16.75,0,0,0,.63,3.46,3.55,3.55,0,0,1,.21,2.17,4.88,4.88,0,0,1-1.17,1.44,4.83,4.83,0,0,1-1.51,1.13,9.92,9.92,0,0,0-2.28,2,5.11,5.11,0,0,0-1.52,2.18c-.18.57-.47,1.06-.68,1.61a17.91,17.91,0,0,0-.51,1.91,13,13,0,0,0-.33,3.35,10.26,10.26,0,0,0,1,3.2,2.35,2.35,0,0,0,1.25,1.47c.22-.32,1,.62,1.24.79a16.21,16.21,0,0,0,2.47,1.82,15.44,15.44,0,0,1,1.45.77c.52.33,1,.72,1.57,1a14.32,14.32,0,0,0,2.52.91,17.29,17.29,0,0,1,2.79,1.12c.54.27,1.68.92,2.26.38.27-.26.15-.61.27-1a7.67,7.67,0,0,1,.81-1.35c.33-.61.88-.38,1.48-.28a11.6,11.6,0,0,1,3.6,1.26c1,.51,1.71,1.3,2.65,1.87a5.56,5.56,0,0,0,1.58.83,14.83,14.83,0,0,1,2.6,1.13,21.54,21.54,0,0,0,3.13,1c.92.25,1.81.56,2.76.72a21.82,21.82,0,0,0,4.78.12,9.48,9.48,0,0,0,2.74-.46c.46-.18.93-.26,1.39-.43.63-.23,1.89-1.07,2-1.86a17.73,17.73,0,0,0,0-1.93c0-.81,0-1.62,0-2.43a4.79,4.79,0,0,0-.48-2.19,1.86,1.86,0,0,0-.28-.21,3.64,3.64,0,0,1-.35-.45c-.44-.51-.33-1.08-.64-1.64s-.69-1-1-1.58a3.29,3.29,0,0,1,.58-3.88,2.45,2.45,0,0,1,.59-.57,5.74,5.74,0,0,1,1.77-.25,34,34,0,0,1,3.5-.16h1.22c.57,0,.73-.09,1-.63a16.84,16.84,0,0,0,1-3,7.48,7.48,0,0,0,.08-1.77,3.86,3.86,0,0,0-.32-2c-.49-.9-1.38-1.54-1.95-2.38a13.35,13.35,0,0,1-.78-1.44c-.13-.24-.48-.63-.41-.9.4-.08,0-3.1,0-3.06-.05-1.32,0-2.64,0-4a11,11,0,0,1,.14-3.35,20.18,20.18,0,0,1,.82-2.25,2.38,2.38,0,0,1,.46-.82,11.62,11.62,0,0,1,1.72-1.33,3.26,3.26,0,0,0,.62-.47c.18-.18.07-.25.38-.33a2.93,2.93,0,0,1,1.71.33,10.63,10.63,0,0,1,1.09.35c1,.51,1.73,2.17,2.23,3.06a21.25,21.25,0,0,1,1.52,3.45,6.83,6.83,0,0,0,.82,1.85,7.19,7.19,0,0,0,2.62,1.92,5.27,5.27,0,0,1,1.49.77,4,4,0,0,0,1,.8c.36.17.75.17,1.12.34a4.28,4.28,0,0,0,.76.41,3.32,3.32,0,0,1,1.23.27c.72.36.83.84,1.17,1.49s1,.84,1.63,1.3a3.84,3.84,0,0,1,1.26,1.42,4.18,4.18,0,0,1,.13,1.69,21.92,21.92,0,0,1-.25,2.57,8.19,8.19,0,0,0-.24,1.77c.07,1.07.93,1.68,1.2,2.68a12.17,12.17,0,0,1,0,4c-.1,1-.35,2.76.49,3.6,1,1,2.83.45,4.08.56.56.05,1.12,0,1.68,0a7,7,0,0,1,1.71,0c.6.16.58.72.69,1.21a2.61,2.61,0,0,0,.92,1.31c.42.42.68.78,1.31.8s1,0,1.52,0a2.56,2.56,0,0,0,.83,0c.75-.21,1.32-1.49,1.75-2.08.65-.88,1.42-1.66,2-2.57s1.2-2,1.92-2.94c.35-.46.75-.9,1.06-1.39a7.93,7.93,0,0,0,.65-1.46c.22-.57.45-1.13.62-1.71a6.66,6.66,0,0,1,.41-1.76c.2-.24.34,0,.58-.15s.14-1,.14-1.25v-3.06c0-.21,0-.43,0-.64a2.85,2.85,0,0,0-.14-.5,5.2,5.2,0,0,1,0-1.25v-2a1.87,1.87,0,0,1,.06-.71c.09-.2.26-.35.3-.57a5.23,5.23,0,0,0,0-1c0-2,0-3.94,0-5.93s.09-4,0-6a3.3,3.3,0,0,0-1.24-2.38c-1.16-1.1-1.25-2.54-1.77-4a3.24,3.24,0,0,0-1-1.56c-.36-.27-.55-.32-.67-.75a7.68,7.68,0,0,0-1.55-3.39C451.21,268.59,451.07,268.37,450.92,268.18Z"
     class="cls-1" />
  <path
     id="path36"
     d="M496.42,15.36c-1.26.92-2.05,2.38-3.18,3.44a3.44,3.44,0,0,1-1.46,1c-.72.14-1.45-.11-2.15.29a5,5,0,0,0-1.48,1.43c-.37.52-.73,1-1.12,1.55a8.12,8.12,0,0,0-1.11,2,12.65,12.65,0,0,0-.37,1.53c-.26,1.09-.23,3.12-1.68,3.43a1.79,1.79,0,0,1-.86,0c-.55-.15-1.1-.33-1.67-.47a1.66,1.66,0,0,1-1-.48,3.17,3.17,0,0,0-.45-.35,3.84,3.84,0,0,1-.72-1.3c-.36-.73-.54-1.53-.83-2.3-.21-.59-.68-1-.92-1.61a8,8,0,0,1-.14-2.76v-2c0-.19-.09-.61,0-.78s.12,0,.15-.1a1.5,1.5,0,0,0,.08-.39,6.92,6.92,0,0,1,.6-2.81c.51-.81,1-1.58,1.45-2.44a4.61,4.61,0,0,1,1.24-1.69,9.71,9.71,0,0,0,1.49-1.15,4.56,4.56,0,0,0,.73-1c.07-.16.08-.42.14-.57.13-.33.28-.63.39-1a7.63,7.63,0,0,0,.14-3.12,1.46,1.46,0,0,0-.3-.91,2,2,0,0,0-1.05-.51A4.58,4.58,0,0,1,481,1.86a4.84,4.84,0,0,1-.9-.66,3.2,3.2,0,0,0-1.5-.76,9.56,9.56,0,0,0-1.51.08,5.47,5.47,0,0,0-2,.38,6.5,6.5,0,0,0-3.08,3c-.58,1.38.38,2.7,0,3.94s-1.29,1.4-2.29,1.89a6,6,0,0,1-.9.39c-.54.16-.69.63-1.06,1a1.11,1.11,0,0,0-.47.86c0,.77,0,1.55,0,2.32a2.42,2.42,0,0,0,.47,1.46,4.3,4.3,0,0,0,.94.87,3,3,0,0,1,.64,1.31,9.83,9.83,0,0,1,.42,2.47,7.39,7.39,0,0,1,0,1.41,5.53,5.53,0,0,1-1,2,5.42,5.42,0,0,0-.46,1.15,4.68,4.68,0,0,0-.24,1.48,2.26,2.26,0,0,0,0,.52c.15.34.63-.08.8-.2a2.9,2.9,0,0,1,1.16-.43,2.27,2.27,0,0,1,1.41,0c.58.22.54.72.44,1.24a3.68,3.68,0,0,0,0,2.08,8.88,8.88,0,0,1,.44,1.22c.09.42.15.84.24,1.26a16,16,0,0,0,.66,2.92,8.22,8.22,0,0,0,1.41,2.13c.27.31.52.63.76,1a1.73,1.73,0,0,0,.79.6,5.87,5.87,0,0,1,.83.66,4.19,4.19,0,0,0,.59.32c.87.48,1.12,1.56,2.21,1.75a10.35,10.35,0,0,0,1.47.08,1.34,1.34,0,0,0,.6-.07c.41-.2.45-.44.45-.84a7.29,7.29,0,0,1,.24-1.62,10.12,10.12,0,0,1,.25-1.09c.12-.3.71-.5.92-.64a4.91,4.91,0,0,1,1.69-.92c.26,0,.27-.08.42.11a3.43,3.43,0,0,1,.26,1,9.38,9.38,0,0,1,.23,2c0,.34,0,.68,0,1s0,.74,0,1.1a4.24,4.24,0,0,0,.57,1.57,9,9,0,0,1,.59,1.67,10.83,10.83,0,0,1,.24,2.05,3.29,3.29,0,0,0,.08.83,2.65,2.65,0,0,0,.48,1,4.91,4.91,0,0,0,.65.64,10.44,10.44,0,0,0,1,.58,19.71,19.71,0,0,1,1.64,1.2c.35.28.75.43,1.09.7s.37.62.75.53.26-.71.56-1a2.5,2.5,0,0,1,1-.3l1.29-.28c1.29-.29,2.56-.62,3.84-1a17.72,17.72,0,0,0,2.83-.94c.56-.26,1.12-.53,1.7-.75.8-.3,1.71-.33,2.48-.68a11.32,11.32,0,0,0,1.36-.84,5.07,5.07,0,0,0,2.3-2.76c.12-.41.07-.58.38-.91a11.92,11.92,0,0,0,1.46-1.47c.49-.74-.32-1.14-.88-1.53a3.28,3.28,0,0,1-.66-.73c-.21-.28-.46-.54-.66-.83a1,1,0,0,1-.27-.94,6.46,6.46,0,0,1,.43-1.42,22.19,22.19,0,0,1,1.63-2.78c.28-.47.55-1,.86-1.4s.93-1,1.3-1.6c1.22-1.88,2.3-4.08,1.88-6.37a12.25,12.25,0,0,0-.51-2.42,8.28,8.28,0,0,1-.49-1.48,16.87,16.87,0,0,1-.25-3.33,3.56,3.56,0,0,1,0-.87c.11.13.41,0,.48-.11s-.21-.88-.29-1a8,8,0,0,0-1.7-2,8.27,8.27,0,0,0-2.86-1.54,15.59,15.59,0,0,0-1.94-.81,4.45,4.45,0,0,0-2.79.26c-.51.27-.92.66-1.44.91a4.33,4.33,0,0,1-.56.22c-.39.13-.72.38-1.1.55-1.39.64-2.82,1.18-4.2,1.86a19.1,19.1,0,0,0-2.26,1.25Z"
     class="cls-1" />
  <path
     id="path38"
     d="M27.05,237s-6.78.84-7,1c-2.23,1.37-.74,4.3-2.76,5.85s-4.36.22-6.35-.64c-4.53-1.94-8.38-4.12-9.28,2.13-.37,2.55.29,5.25,0,7.82-.36,3-2.48,6.46-1.18,9.47C4,262.33,3.2,266.59,4.34,269c2,4.19,3.92,1.69,7.5,2.19,4.65.64,5.11,1.32,7.54-3,2.73-4.92,3.66-2.24,8.27-4.07.2-1.31-.27-3.26.42-4.46s3.27-2.05,4.38-2.91,3.87-3.33,4.38-4.61c.83-2.08-.32-4.21.49-6.3,1-2.59,5.75-5.44,4.19-8.79-.49-1.05-3.38-2.29-4.44-2.46-2.88-.49-3.49,2.07-6.15,2.11Z"
     class="cls-1" />
  <path
     id="path40"
     d="M882,358.91a12.09,12.09,0,0,0,.27-1.79,19.05,19.05,0,0,0-.32-5.64,8.54,8.54,0,0,0-2.37-4.76,4.09,4.09,0,0,0-2.22-1c-.56-.07-1,.22-1.5.28a.56.56,0,0,1-.48-.1c-.12-.11-.14-.19-.31-.24s-.62,0-.88-.14-.17-.32-.17-.59v-1.51a10.19,10.19,0,0,0-.07-1.24c0-.27,0-.68-.2-.87a1,1,0,0,0-.68-.13,12.46,12.46,0,0,0-5.4,1.35,6.32,6.32,0,0,1-2.52.73,8.61,8.61,0,0,1-3.88-.26,15.44,15.44,0,0,1-2.44-1.91c-.88-.65-1.85-1-2.48,0s-.67,2.18-1.3,3.12c-.32.47-.56.58-.7,1.12s.16,1.59-.39,1.95c-.26.16-.65,0-.93,0-1.25,0-3.31-.45-4.43.25a4.09,4.09,0,0,0-1.44,2.46c-.3,1.71-.44,3.43-.71,5.15-.15.92-.83,1.8-1,2.63-.17,1,.4,1,1.17,1.2s1.82.62,2.75.83a11,11,0,0,0,2.38.16c1.08,0,2.18-.05,3.27,0,1.32,0,1.7,1.12,2,2.23.54,1.73,1.94,5.43,4.19,3.94a7.92,7.92,0,0,1,3-1.64c1.48-.25,2.12.77,3.43,1.05C872.55,366.65,880.69,364.18,882,358.91Z"
     class="cls-1" />
  <path
     id="path42"
     d="M846,397l.12-.4a1.3,1.3,0,0,0,.08-.75c-.39-1.47-.52-3-.82-4.49a6,6,0,0,0-1.62-3.54,3.24,3.24,0,0,0-1.79-.68,1.77,1.77,0,0,0-1.07.05c-.21.13-.29.33-.45.49s-.44.1-.66.05a3,3,0,0,0-1.15-.11,1.4,1.4,0,0,0-.47.24,13.34,13.34,0,0,0-1.76,1.68,8.86,8.86,0,0,0-2,3.16,5,5,0,0,0,0,3.27c.12.33.38.58.48.92s.07.83.49,1.15a4.65,4.65,0,0,0,1.28.64,3.16,3.16,0,0,0,1.25.21,1.82,1.82,0,0,1,1,.25c.18.1.33.27.51.36a2,2,0,0,0,.5.11,3.46,3.46,0,0,0,.56,0,2.86,2.86,0,0,1,1.09.07c.25.11.16.41.16.64a22.91,22.91,0,0,0,.26,2.48,21.13,21.13,0,0,1,.06,2.39c0,1.1,0,2.2.07,3.31a2.63,2.63,0,0,0,.18,1.15c.41.81.65,1.67,1,2.5,1,2.11.55,3.39,3.45,2.51,2.67-.83,3.22-4.53,3.85-6.72a10.33,10.33,0,0,0,.44-2.59,5.46,5.46,0,0,0-.49-2.36,3.48,3.48,0,0,0-1.6-1.91c-.09,0-.2,0-.29-.06a4.21,4.21,0,0,0-1.23-.19.9.9,0,0,1-.72-.33,6.52,6.52,0,0,1-.38-.68c-.22-.38-.51-.7-.75-1a.46.46,0,0,1,0-.62,2.32,2.32,0,0,0,.3-.56C845.85,397.41,845.92,397.21,846,397Z"
     class="cls-1" />
</svg>
