<?xml version="1.0" encoding="UTF-8" standalone="no"?>
<svg
   xmlns="http://www.w3.org/2000/svg"
   viewBox="0 0 579.89 457.95"
>
  <path
     id="path14"
     d="M576.44,127.36c-1.6-1-4.13-.17-5.91-.14s-3.33,0-5-.08c-1.28-.08-2.81-.32-4,.26a16.34,16.34,0,0,0-2.13,2A38.2,38.2,0,0,0,556,134a14.09,14.09,0,0,0-1.79,2.57,38.2,38.2,0,0,0-1.21,4.21c-.51,1.57-1.17,5.3-2.88,5.76-1,.26-1.87-.05-2.81.45a3.89,3.89,0,0,0-1.94,2.63,37,37,0,0,0-.47,5.26c0,1.43.14,3,0,4.38-.27,2.83-.91,5.4-3.4,7.16-1.58,1.12-3.2,1.23-5,1.66-1.55.38-2.82,1.09-4.5.91a5.46,5.46,0,0,1-4-3c-.23-.43-.3-1-.53-1.45-1-2-1.07-4.06-1.36-6.27-.42-3.2-1.1-6.76-.63-10,.23-1.62,1.05-1.78-.6-2.78-2.4-1.45-4.91-2.87-7.16-4.55a20.64,20.64,0,0,0-5.4-3.15c-3.29-1.13-7.17-2.17-10.54-.84a10.24,10.24,0,0,1-4.86.57c-2.14-.42-2.85-3.49-2.93-5.43a10.42,10.42,0,0,0-.57-3.34c-.4-1.14-1.15-4-2.3-4.45-.62-.27-1,.33-1.53-.34l.12-.37a9.39,9.39,0,0,0-1.15-4,8.87,8.87,0,0,0-3.35-4.11c-.81-.49-2.53-.4-3.23-1a16.25,16.25,0,0,1-2.9-3.88c-.7-1.21-.89-2.61-1.77-3.73a11.83,11.83,0,0,0-2.33-2c-1.82-1.28-3.6-1-5.76-1-1.84,0-3.57-.15-5.3.61-1.25.56-2.17,1.45-3.42,1.93-3.18,1.2-5.78,3-8.7,4.74-2,1.18-4,2.51-5.86,3.86-1,.69-2,1.18-2.95,1.9a14.73,14.73,0,0,0-3.76,4.61,27.07,27.07,0,0,0-2,5.16c-.65,1.82-1.72,3.55-2.21,5.42a42.86,42.86,0,0,0-1.57,7.56,14.64,14.64,0,0,0,.4,3.81c.3,1.69.39,3.41.79,5.08.34,1.46,1.51,1.74,2.56,2.79a5.93,5.93,0,0,1,1.32,2.36A10.68,10.68,0,0,0,440,156.5c1.86,2.35,5,2.48,7.1,4.52,3,2.92,7,10.91,8.67,14.65-1.76,3.94-6.37,2.28-9.81,2.41-4.44.16-7.69,2.33-12,2.84-5.3.62-17.44-3-20.82,2.05a1.3,1.3,0,0,1-1.82-.84c-2.15,1.72-11.09-.22-12.68-2.17-1-1.25-.9-5.55-1.28-7.4-.49-2.46.44-6.51-.84-8.67a4.8,4.8,0,0,1-.65-1.81,11.72,11.72,0,0,1,1.81-3.93c.6-2.33-.59-2.71-1.56-4.51-1.44-2.68-3.61-7.76-7.14-8.24-2.31-.32-3.56,1.24-6.31.39-2.57-.8-5.85-3.93-7.57-6a10.08,10.08,0,0,1-1.48-2.81c-3.08-7.71-3.69-16.3-5.48-24.36-3.7.85-7.84-2.6-9.33-5.86-.67-1.46-.11-5.58-.63-6.32-3.51-5.07-16-2.24-21.55-2.27-4.13,0-8.24.88-10.55-3.29-1.05-1.89.36-5.24-.87-7.15-2.14-3.34-5.22-3.26-8.63-2.86-3,.35-5.69,2.29-8.87,2.61-1.93.2-4.27-.73-6.15-.29-3.41.8-6.57,4.67-10.35,5.08-4.94.54-10.21-3.63-14.77-4.89-3.16-.87-3.73.56-6.6-2-3.18-2.79-3-7.33-3.37-11.29l-2.1-.15L262,74s-1.25-4.07-1.42-4.45a13.74,13.74,0,0,0-2.82-4.45c-1.4-1.38-3.16-1.25-2.74-3.23a11.4,11.4,0,0,0,.3-4.83,14.46,14.46,0,0,0-2.18,0c1.57-1.33.83-3.6,1.34-5.35a17.82,17.82,0,0,0,1-3.52c.18-2.61,0-5.32,0-7.94,0-3.25.63-7.47,0-10.69-.39-2-2.16-2.69-3-4.43-.23-.45,0-.82-.41-1.22s-1.12-.45-1.55-.61a23.19,23.19,0,0,1-3.47-1.6,24.58,24.58,0,0,1-7.53-6.18c-1.81-2.2-2.39-3.08-5.19-3.62-2.37-.45-4.7-1.15-7.05-1.56-4.54-.8-8.78,1.8-12.8,3.57-2.35,1-4.43,3-6.93,3.67-.89.24-3.49.35-2.2,1.9A5.28,5.28,0,0,1,200.57,18c-.56-.73-.78-1.59-1.41-2.31-.88-1-2-1.89-2.91-2.84a11.28,11.28,0,0,1-1.79-2.77,14.55,14.55,0,0,0-3-3.31c-2.16-1.95-4.54-4.3-7.55-4.64a7.47,7.47,0,0,1-3.26-.8A8.92,8.92,0,0,0,178.45.12c-2-.52-4.62.32-6.57.81-1.63.41-3.76.76-5.17,1.74-4.45-1.07-9.35-.54-14-.54-2.59,0-5.81-.78-7.81,1.17-1.17,1.15-1.54,3.1-2.15,4.57-.81,1.94-2.35,4-2.77,6.06a37.76,37.76,0,0,0-.7,7.53c0,2.07-.11,4.19,0,6.26.08,1.75,1.28,2.61,2,4A12.74,12.74,0,0,0,142.72,34a7.77,7.77,0,0,1,.93,1.61,8.58,8.58,0,0,1-.74,5.74c-.89,1.71-.24,1.92,1.4,2.32a9.66,9.66,0,0,0,2.85.32c1.68-.05,1.75-.33,2.79-1.71,1.38-1.84,2.87-3.58,4.13-5.48.62-.92.78-1.36,1.77-1.58a9.53,9.53,0,0,1,2.87,0c1.92.7,2.61,5.68,3,7.3.41,1.9.45,4.18,1.51,5.85s2.71,3.6,3,5.62c.49,3.13,0,6.75,0,10,0,1.57-.82,6,1,6.85.78.35,2.37,0,3.2,0,1.91,0,3.45.11,5.16-.92a6.75,6.75,0,0,0,2.55-2.16,15.63,15.63,0,0,0,.59-3.78,32.44,32.44,0,0,1,1.89-7.65c.47-1.33,1.76-2.6,1.17-4.11a9.15,9.15,0,0,1-4.8-2c-1.63-1.57-2-2.6.28-3.94a6.4,6.4,0,0,1,8.28,1.19c2.34,2.84,1.32,8.64,1.3,12a16.43,16.43,0,0,0,1.56,7.62,13.07,13.07,0,0,1,1.56,5.6c0,1.48.09,3,0,4.48-.13,3.17-1.41,5.5-2.78,8.28-1.12,2.28-2.41,4.43-3.49,6.73s-1.68,3.69-4.06,4.57a9.46,9.46,0,0,1-9-1.71c-2-1.87-1.92-4.22-1.9-6.84,0-3,.41-6.33,0-9.31-.45-3.43-5.73-2.44-8.29-2.45-2.34,0-4.42.62-6.72.62-1.88,0-3.64,1-5.51.57-.7-2.33.88-5.6-.7-7.7-.3-.4-.79-.54-1.11-.94s-.68-1.33-1.07-1.92c-.71-1.06-1.52-2.26-2.82-2.54-3.95-.87-4.09,2.47-5.6,5.07-.78,1.35-1.61,2.56-2.3,4s-1.06,2.85-1.71,4.42a79.78,79.78,0,0,0-4,12.74c-.62,2.78-2.56,3.8-5.13,4.75a21.87,21.87,0,0,0-3.9,1.51c-.88.54-1.45,1.4-2.37,1.89-.59.31-1.23.5-1.83.79-2.58,1.23-5,2.56-8,1.63,0-3.11-4.94-3-6.93-3a19.48,19.48,0,0,0-2.53,0c-1.1.16-1.2.61-2,1.16-.54.35-1.19.52-1.72.88-.89.6-.92,1.4-1.6,2.09C90,105.17,85.26,103,81.89,104a4.87,4.87,0,0,0-2.65,2.34c-.38.71-.22,1.28-.44,1.94s-.93,1.17-1.31,1.83a23.65,23.65,0,0,0-.91,2.57,21.28,21.28,0,0,1-2.71,4.69c-6,8.06-9.49,7-16.58,10.2-4.33,1.94-5.41,6.3-9,8.82-3.36,2.33-5.43,1-9.58,1.56-8.44,1.07-12,7.27-12.07,15.22-.08,5.54.32,11.11.1,16.64a17.11,17.11,0,0,1-1.9,7.1,12.26,12.26,0,0,0-1,2.19,6.45,6.45,0,0,0-.14,2.59,15.4,15.4,0,0,1-1.17,7.6c-.84,1.92-1.59,3.66-.56,5.77.75,1.54,2.3,2.61,3.32,4a20.05,20.05,0,0,1,2.56,3.77c.78,1.8.45,3.12-.48,4.89-.83,1.56-2.21,1.9-3.9,1.89-2.14,0-4.17-.46-6.29-.5a5.25,5.25,0,0,0-3.38.77c-1.4,1-1.37,2.1-1.9,3.58a30.15,30.15,0,0,1-2.29,4.16,15.5,15.5,0,0,1-2.13,3.18c-.61.65-1,.59-1.69,1-.86.45-1.11,1.29-1.46,2.2a12.89,12.89,0,0,0-.74,4.23c-.18,4,0,8.12,0,12.15,0,2.33-.18,4.48.76,6.67a8.61,8.61,0,0,0,3.58,3.78c1.39.94,2.37,2.12,3.67,3.12,2.37,1.83,5.56.57,7.26-1.62,1.32-1.71,1.72-2,3.87-2a9.22,9.22,0,0,1,2.29.07c1.18.29,2,1.23,3,1.86a11.41,11.41,0,0,1,2.22,1.59c.58.6.8,1,1.65,1.28,1.9.58,4.14.55,6.08,1.11s3.48,2,5.33,2.29c.66.11,1.29,0,1.94.14a8.19,8.19,0,0,0,2.39.38c2.11,0,4.22,0,6.33,0s4.26.87,6.31.37c1.33-.31,3.07-.89,4.23.08.85.7,1.43,1.78,2.41,2.37s1.93.31,2.45,1.51a11.43,11.43,0,0,1,.18,1.29c.18.56.6,1.15.84,1.69a23.91,23.91,0,0,1,1,3.38c.69,2.51,3.78,3.15,6,3.88,4,1.35,7.8-1.75,11.86-.07,1.76.73,1.61,1.73,2.49,3.08,1,1.56,3.41,2.63,5.12,3.2,2.48.83,5,1.25,7.17,2.94,1.48,1.17,2.53,3.49,4.46,1.74a5.41,5.41,0,0,1,2.38-1.69c.38-.08.66.06,1-.07.84-.28,1.57-1.4,2.29-1.84,2.17-1.31,5.52-.37,7.52.89a12.12,12.12,0,0,1,3,2.58,24.52,24.52,0,0,1,1.38,2.82c1.36,2.34,3.59,4.08,5,6.36.21.33.27.77.48,1.09s.55.49.78.77c1.2,1.43,2,3.13,3.38,4.43,1.21,1.14,2.63,2.07,3.94,3.1,3,2.35,6.67,4,10,5.86,1.53.84,3.27,1,4.78,1.86s2.32,2.18,3.71,2.95c3.46,1.94,6.09-3.16,6.1-6.11,0-2.3-1.07-2.55-1.87-4.51s.14-4.1-.3-6.06a5.37,5.37,0,0,1-3.45-1.3,2,2,0,0,0-1.68-1.88l-1.58.14c-2.55-.88-5-3.21-7.27-4.62-2.85-1.77-5.25-1.45-4-5.56,1.15-3.61,4.42-5,7.23-7.1,3-2.25,4.19-2,8.15-2,3.2,0,7.81-.9,10.8.47,2.63,1.21,2.26,2.2,4.75.37,1.45-1.07,2.13-2.37,4.26-1.93,1.84.39,2.13,2.63,3.63,2.93,1.3.27,1.42-1.27,2.44-1.69,3.57-1.47,7.25,2,9,4.67a8.88,8.88,0,0,1-.29,9.53c-2.67,4-6.13,5.61-10.75,6.81-1.92.49-4.45.37-6.09,1.85-1.34,1.22-.31.69-1.1,2.56-.45,1.05-1.34,1.6-1.95,2.52-2.24,3.33-1.95,6.64-1.9,10.4,0,3.26-.32,6.59-.49,9.82-.33,6.46-8.45,6.65-13.15,7.35a18.39,18.39,0,0,0-3.5,1.07,11.61,11.61,0,0,1-4.61.54c-2-.13-2.49-1.32-4.09-2.17a40.43,40.43,0,0,1-4.75-2.79,9.33,9.33,0,0,1-2.47-2.38c-.66-1.12-.49-2.73-1.26-3.7s-1.57-.86-2-2.15a8.3,8.3,0,0,0-1.28-3.16c-1.68-2-4-1.72-6.37-1.72h-7c-1.14,0-3.6.29-3.85-1.37a6.64,6.64,0,0,1,.88-.12c.51-1.3-.4-3.6-.94-4.8a44.32,44.32,0,0,1-2-5.59c-.73-2.51-2.73-6.46-5.7-6.57a46.58,46.58,0,0,1-7.16-.81,25.93,25.93,0,0,0-3.57-.63c-1.21-.06-2.5.19-3.7,0-.94-.11-1.71-.49-2.66-.52a11.86,11.86,0,0,1-3.09-.27,33.43,33.43,0,0,1-7.89-2.87,26.79,26.79,0,0,0-3.33-2,7.44,7.44,0,0,0-2.83-.2c-3.31,0-8,.37-10.59-2.06-3.06-2.78-1.53-2.62-2.55-6.65-.93-3.68-.64-10.2-4.51-12.19-1.55-.79-2.91-2.16-4.7-2.36a9.6,9.6,0,0,0-6.82,2.07,19,19,0,0,0-2.43,2.73,8.82,8.82,0,0,0-1,4.89c0,1.85-.38,3.53-.51,5.35a21.67,21.67,0,0,0,0,5.09c.26,1.27,1.06,1.61,1.95,2.44A6.71,6.71,0,0,0,46.12,289a9.64,9.64,0,0,1,2.16,1.16c1.49,1.2,2.8,2.58,4.24,3.8a6,6,0,0,0,3.42,1.46,7.67,7.67,0,0,1,2.92.46c1.5.64,1,2.12,1,3.65a7.58,7.58,0,0,1,0,2.23c-.33.61-.6.41-1.28.43-1.11,0-2.23,0-3.33,0-1.37,0-3.26-.33-4.59.05-.56,1.36,1,2.37,1.67,3.28s.85,1.67,1.76,2.27c1.26.83,2.69.7,3.92,1.65,2.7,2.08,6.36,3.07,9.57,4,1.23.37,2.47.71,3.73,1a5.69,5.69,0,0,0,1.75.36c.41-.08.35-.4.77-.56,2-.77,4.29.49,6.33-.18,1.7-.56,3.11-1.83,4.83-2.37,2.31-.72,5.12-.4,7.47-.09,1.52.21,4.54-.29,5.7.67a16.31,16.31,0,0,1,1.4,2,19.56,19.56,0,0,0,1.44,1.44c1.14,1.08,2.22,1.59,2.93,3a10,10,0,0,1,1,5c0,1.67-.34,5.3,1.42,6.48,1.52,1,4.17.49,5.86.51a4.87,4.87,0,0,1,3.9,1.36c1.19,1.16,2.42,2.31,3.75,3.4a10.83,10.83,0,0,0,4,2.45c1.69.41,3.73.09,5.46.08a18.68,18.68,0,0,1,5.48.92,29.61,29.61,0,0,1,6.87,2.74,13.92,13.92,0,0,0,3.26,1.66,4.1,4.1,0,0,1,2.52,1.71c1.48,1.7,2.63,2.82,4.92,3.39,3.18.78,7,.06,10.13-.6a23.83,23.83,0,0,1,4.78-.13h10.85c1.71,0,4.75.62,6.18-.52,2.37-1.88,3.45-5.54,3.94-8.4a36.89,36.89,0,0,0,.07-6,51,51,0,0,0-.1-5.1c-.31-3.07-.21-6.21-1.22-9.15-.47-1.37-1.13-2.7-1.59-4a6.11,6.11,0,0,1-.47-2.4,3.92,3.92,0,0,1,1.2-3.16c1.42-1.79,4.56-1.87,6.71-1.37,1.32.32,1,.73,1.86,1.41a9.13,9.13,0,0,0,2.48.81c1,.35,1.95,1.24,2.87,1.48a28.14,28.14,0,0,1,3.38.58,18.84,18.84,0,0,0,6.13,1.48c.92,0,1.83,0,2.75,0,1.82,0,2.18-1.26,3.3-2.38s2.48-1.3,3.57-2.17c2.32-1.84,2.37-5,2.42-7.72.08-4.63,5.95-14.31.4-16.79a22.51,22.51,0,0,1,2.29-2.13c.92-.62,1.9-1.13,2.82-1.75a11.92,11.92,0,0,0,4.43-6.27c.69-2,.29-3.57.22-5.58-.09-2.59,1.27-5.1,2.47-7.32.82-1.5,2.5-2,4-2.9s3.68-1.49,5.08-2.68c1.95-1.66,3.05-4,5.1-5.52,1.67-1.25,3.13-2.68,4.81-3.93a13.52,13.52,0,0,1,4.65-2.71,3.57,3.57,0,0,0,2.61-1.85,9.31,9.31,0,0,0,.07-2.89,13.7,13.7,0,0,1,.75-4.16c.79-2.57.84-5.3,1.69-7.81,1.36-4,1.08-8.5,1-12.71-.06-2.44,1.59-4.46,3.12-6.3,1.4-1.68,2.73-1.8,4.64-.93,2.28,1.05,2,2.94,2.64,5.15.28.95,1.07,1.63,1.28,2.59a13.1,13.1,0,0,1,0,2.42c0,3.75-.39,7.51,1,11.05a6.63,6.63,0,0,0,1.27,2.61,16.78,16.78,0,0,0,2.67,1.7,5.84,5.84,0,0,1,2.79,4.49c.08.77-.08,1.42.47,2,1.18,1.27,4,1.7,5.52,2.39a11.86,11.86,0,0,1,4.8,3.56c2.29,3,1.73,5.71,2,9.11.09,1.25.27,2.5.33,3.76,0-.24,0,1.49,0,1.52a7.62,7.62,0,0,0,2.9,1.34c1.45.25,2.23-.52,3.07.93,1,1.68.79,3.07.85,5,.1,3.2-2,5.36-4,7.69-.89,1-1.92,1.93-2.78,3a15.12,15.12,0,0,1-2.95,2.66c-1.33,1-1.43,1.81-1.41,3.52,0,3.09-.21,6.15.37,9.16.37,1.89.15,3.45,1.57,4.88a27.78,27.78,0,0,0,3.16,2.71c.66.51,1.14,1.07,1.83,1.54a3,3,0,0,1,1.33,1.45c.75,1.4,1.52,2.8,2.18,4.25.79,1.72.37,3.58,1.19,5.2s1,1.82,2.94,1.83c2.55,0,4.51-.27,6-2.63s3.15-7.32,6.38-7.58a2.15,2.15,0,0,1,1.69.47,11.74,11.74,0,0,1,1.87,1.6,7.11,7.11,0,0,1,.31,1.59c.34,1.33.13,2.71.6,4,.37,1,1.05,1.83,1,3-.13,1.61-1.6,2.59-2,4.07-1.32,4.95,9.26,3.74,11.62,4.19,6,1.15,12.83.72,16.83-5.84,1.92-3.16,1-7,2.8-10.22,1.59-2.82,4.57-5.06,7.17-6.9a5.66,5.66,0,0,1,2.8-1.41c1.63-.09,3.35.2,5,.15,2.4-.09,1.5.41,2.37,2.45.66,1.52,2.05,2.22,3.46,2.9,1.17.56,2.51,1.6,3.88,1.48s1.71-1.79,2.49-2.89c1.59-2.23,3-4.48,4.51-6.79.64-1,1.49-1.92,2.09-2.94a37.29,37.29,0,0,0,2.06-4.86,45.14,45.14,0,0,1,1.58-4.45,6.64,6.64,0,0,1,2.58-2.34c1.14-.76,2.3-1.55,3.51-2.2s2.45-.49,3.72-.93a19.48,19.48,0,0,0,2.57-1.1c.69-.4.92-1.05,1.64-1.48a7.2,7.2,0,0,1,3.47-1.1c1.11,0,2.91-.24,3.92.25,2.52,1.22,2.2,3.92,2.2,6.32,0,3.71.41,7.67-.35,11.31-.27,1.27-.33,2.3-1.37,3s-2.51.8-3.61,1.51a7.11,7.11,0,0,0-2.76,3.29c-.53,1.35-.86,2.84-1.37,4.21a15.19,15.19,0,0,0-1.25,4.05c-.32,3.71,3.18,6.14,3.45,9.46a10.54,10.54,0,0,1-3.77,8.53,11.68,11.68,0,0,1-3,2.2,9.17,9.17,0,0,1-3.43.18c-2.46,0-4.76-.48-7.22-.48s-5.16-.36-7.48.52c-.63.24-1.16.68-1.8.95-.9.37-1.9.43-2.83.71a14.67,14.67,0,0,0-1.55.74,11.81,11.81,0,0,1-2.08.48,13,13,0,0,0-3.84,2.13,24.77,24.77,0,0,0-3.48,3.16c-.37.39-.59.92-1,1.3s-1,.5-1.36.86c-1,1.05-1.2,3.52-1.11,4.89.14,2,1.37,3.45,1.68,5.34.41,2.53-.56,5,.07,7.59.75,3.16,2.48,7.25,2.5,10.46-2.52,1.28-3.63,3.83-5.49,5.8-2.09,2.22-3,2.57-6,2.55-3.73,0-5,.54-6.59,4.47a26.16,26.16,0,0,0-1.38,7.45c-.26,2.47-1,4.9-1,7.4a10.58,10.58,0,0,0,1.28,4.56c.94,2.16,1.44,4.49,2.38,6.67.39.89.35,1.42,1.13,2.06a9,9,0,0,1,1.72,1.59,17.28,17.28,0,0,1,1.82,2.49c.55,1.07.32,2.72,1.52,3.1a14.12,14.12,0,0,0,3.31,0,12,12,0,0,0,2.4-.11,15,15,0,0,0,3.6-1,6.4,6.4,0,0,0,2-1.3c.62-.62,1-1.55,1.8-2a8.48,8.48,0,0,1,4.69-.4c1.81.33,2.56,1.93,3.43,3.36,2.07,3.43,3.95,7,5.74,10.58.45.91.57,1.91,1,2.81,1.87,3.91,7.75.94,10.76,2.6,1.58.87,3.61,4.9,4.12,6.63.89,3,.62,7.33,4.25,8,1,.17,2.05-.28,3-.14,2,.31,3.46,1.68,5.21,2.67a11.66,11.66,0,0,1,4.1,3.48c1.86,2.11,5.07,3.33,7.53,4.63,4.5,2.39,9.75,3.92,14.41,1.12,3.82-2.29,6.84-4.82,4.92-9.57-.88-2.16-2.77-3.84-3.81-5.9-.58-1.15-1.27-.78-1.05-2.36s2.95-3.56,3.76-5.19c1.86-3.77.92-7.48,2.16-11.32,1.3-4.06,4.25-6.22,5.17-10.64s-.79-8.35-2.91-12.24c-2.41-4.43-2.31-5.36-.17-10.56,1.39-3.38,1.73-6,.53-9.53-1.11-3.24-3-5.69-4.39-8.6a3.7,3.7,0,0,0-.87-2.92l-1.35-.68a22.13,22.13,0,0,1-4.24-3.67,15.49,15.49,0,0,0-3.57-3.52c-3-2-3.28-3.29-3.87-7.05a4,4,0,0,0-1.39-4.11l-1.57-.25c-7.45-5.44-3.52-14.53-.07-21a47.65,47.65,0,0,0,4.33-10.91c.9-3.35,2.84-6.89,3.6-10.08,1.53-6.48-1.91-4.94-4.77-9.59-2.21-3.6-2.1-7.65-.89-11.93A72.54,72.54,0,0,0,430.2,275a10.1,10.1,0,0,0,0-4.51,20.73,20.73,0,0,0-2-4.05,10.42,10.42,0,0,1-1.39-2.33,14.45,14.45,0,0,0-.67-2.05c-1.52-2.77-4.55-3.85-6.33-6.28a45.29,45.29,0,0,1-3.67-5.63,8.69,8.69,0,0,0-2.43-2.77,29.35,29.35,0,0,0-5.47-3.85c-1.76-1-1.9-2.06-1.88-3.88a27.65,27.65,0,0,0-1.95-9.62,29.44,29.44,0,0,0-1.63-3.94,29.34,29.34,0,0,1-1.38-4.39c-.59-1.87-2.61-2.12-4.07-3.12-2.15-1.49-2.65-4.63-2.61-7.07,0-2.1,0-4.2,0-6.29,0-1.75.28-3.79-.15-5.49a11.63,11.63,0,0,0-1.44-2.55c-1.07-2,.34-4.32,1.93-5.68,2.38-2,4.16-.74,5.12-2.72,5.18-1.56,8.35-3,13.67-.67,6.85,3,15,3.16,21.41,5.92,6.6,2.87,11.64,8.18,20.12,5.35,8.29-2.77,11.5-12.8,18.72-2.68,2.52,3.53,4.33,6.54,4,10.88-.13,1.71-2.4,5.33-2.39,5.95.08,3.42,3.66,4.42,4.8,7.58S479,229.39,483,231.35c5.12,2.47,9.09-5.8,13.89-5.46,2.09.15,8.66,5.06,10.27,5.73a39.94,39.94,0,0,0,5.42,1.78c6.15,1.56,13.62,2.32,19.7,0,2.09-.79,3.34-2.47,5-3.87a20,20,0,0,0,3.8-3.42c.94-1.34,1.56-2.88,2.4-4.29,1-1.69,1-3.06,1-5,0-3.38.55-7.34-.35-10.63a23.61,23.61,0,0,1-.64-7.31,6.53,6.53,0,0,1,1.76-4.57c1.08-1,1.74-2.12,2.74-3.16.82-.85,1.21-.78,2.3-.94.82-.11,1.6-.58,2.41-.77a19.34,19.34,0,0,1,3.4-.19,11.92,11.92,0,0,0,4.39-.86c1.42-.73,1.66-2.63,2.09-4.06.85-2.76,1.82-5.78,1.79-8.7,0-1.84-.22-2.52,1.44-3.49,2.14-1.26,1.66-4.72,1.1-6.76a18.62,18.62,0,0,1-.66-3.71c-.3-4.33-2.76-13.44,2.71-15.59,4.78-1.88,7.72,1.52,10.34-4.22,1-2.25.68-5.18.24-7.52-.4-2.15-1.07-5.56-3-6.94ZM190.28,257.54c1.16-3.6,9.25-3.24,9.27-3,.33,3.77,3.19,6.08,4.1,9.46.57,2.09,0,5-.41,7.08-.56,2.47-.69,2.84-2.53,2a8.46,8.46,0,0,1-4.14-3.45c-.61-1.24-.42-3.68-1.37-4.66-.59-.6-2.08-.3-2.72-.84-.84-.71-2-3.76-2.25-4.82A3.21,3.21,0,0,1,190.28,257.54Zm17.11.82a11.11,11.11,0,0,1,4.57.24c0,.41.08.82.12,1.22C210.41,259.24,208.78,258.78,207.39,258.36ZM165.73,41.19a3.08,3.08,0,0,1-.19-1c-.1-1,.21-1.69-.28-2.53-.27-.48-1-.73-1.28-1.2-.55-.88-.39-1.49-1.4-2.08s-1.56-.19-2.51-.57c-.6-.24-1.37-.84-2-1.12s-1.08-.52-1.69-.78a15,15,0,0,0-2.06-.44c-.78-.23-1-1-1.63-1.44-1-.71-1.91-.69-2.59-1.82A35.74,35.74,0,0,1,148.43,24c-.92-2.24-.31-5,.58-7.17.67-1.63.89-2.23,2.49-2.89a11.45,11.45,0,0,1,4.75-.53c2.87,0,4.49,0,6.81,1.83.82.66,1.63,2,2.63,2.41a8.55,8.55,0,0,0,2.95.13h3.78c1.18,0,3.21-.38,4.29.09.23,3,2.14,7.6,4.84,9.27,2.16,1.34,3.89,3.25,6.48,3.78,2.86.57,6.56,0,9.5,0,3.48,0,7-.16,10.47,0,1.95.09,2.28,1.42,3.44,2.77a6,6,0,0,0,.84.5,1.66,1.66,0,0,1,.07,1.1c.24.62.42,1.26.65,1.89,1.16,3.08,1.86,5.78,5,7.35.28.14.77.15,1,.36a1.88,1.88,0,0,1,.35,1.2,2.6,2.6,0,0,1-.18.79,9.29,9.29,0,0,0-.15,2.47,8.23,8.23,0,0,0,0,1.79c.26,1.1,1.7,2.14,2.68,2.61.77.38,1.59.48,2.37.8a6.45,6.45,0,0,1,3.54,3.67c.56,1.22,1,2.47,1.45,3.7.22.54.57,1,.82,1.5s.43.45.87.86c.28.25.32.27.27.74a2.08,2.08,0,0,1-1.59,1.63,10.11,10.11,0,0,1-2.2,0c-.81,0-1-.54-1.46-1.11a12.94,12.94,0,0,1-1.22-1.8,8,8,0,0,1-1.13-2c-.14-.58,0-1-.24-1.6s-.7-.92-.95-1.42c-.44-.89-.45-1.71-1.43-2.22-.54-.28-1.75-.57-2.22,0-.69.83.27,2.65-.48,3.26a2,2,0,0,1-1.36.34,4.7,4.7,0,0,1-.7-.46c-.17-.18-.14-.6-.33-.83a6.92,6.92,0,0,0-1-1.08,2.66,2.66,0,0,0-.69-.57c-.32-.1-.69,0-1-.07a10.15,10.15,0,0,0-3.27-.5c-.83.07-1.39.82-2.07,1.25-1.78,1.1-2.9,2.94-4.45,4.31-1.18,1-3.31,2.77-5,1.68-1.11-.74-1.14-2.56-1.87-3.6-1.13-1.62-2.13-2.4-2.11-4.49a33.36,33.36,0,0,1,.49-6.57A54.28,54.28,0,0,0,196.16,39c0-3.3-2.42-2.8-5-3.43a20,20,0,0,0-7.49-.35c-2.42.48-5.37,2.38-7.35,3.76-2.3,1.6-3.06,2.53-5.9,2.52-1.1,0-2.2,0-3.3,0C166.23,41.43,165.9,41.49,165.73,41.19ZM170,134.77a5.43,5.43,0,0,0,2.2-2.32c.72-1.38.89-3.3,1.31-4.78.65-2.23.32-4.69,1.2-6.81A15,15,0,0,1,176,118a20.34,20.34,0,0,1,2-1.88c1.25-1.26,2.47-3.15,4.29-3.49a8,8,0,0,1,3.48.45,11.86,11.86,0,0,0,4.32.11,2.31,2.31,0,0,0,1.7-.77c.94-1,1.67-3.05,3.1-3.56a10.11,10.11,0,0,1,3,0c1.92,0,4.41-.42,6.31,0a12.7,12.7,0,0,0,3.37.49,4.82,4.82,0,0,1,3.18.78c1.55,1.18,3.56,2.4,3.17,4.56-.48,2.58-1.21,4.89-1,7.59.06.92.38,1.79.47,2.71s0,1.93,0,2.91c.06,1.22,1,3,.45,4.18-.76.07-.79,0-1.43.42-1.16.82-1.71,3.49-1.86,4.69a36,36,0,0,0,0,4.41c0,1-.28,2.41.26,3.16s1.42,1,1.88,1.71c1.45,2.35.88,6.43.18,8.91-.37,1.36-1.27,1.49-2.32,2.19-.81.54-1.39,1.47-2.22,1.93-1.73,1-3.26.9-4.56-.46a3.34,3.34,0,0,0-2.43-1.17,16.49,16.49,0,0,0-5.78.06c-3.41,1-2.14,4.78-2.59,7.43-.56,3.34-4.81,8.05-7.87,8.16a7.27,7.27,0,0,1-4.08-.61c-1.22-.69-1.76-2-3.11-2.44a7.65,7.65,0,0,0-3.56,0c-1.06.24-2.6,2-3.47,1.85s-.72-.84-1.31-1.17a15.75,15.75,0,0,0-2.28-.68c-1.39-.55-1.84-1.33-3-2.11-1.34-.89-3.14-.86-4.21-2.16s-.54-2.73-2.06-4c-3.39-2.76-7.62,1.84-10.91-1.3-.19-.19-.41-.77-.64-1.05s-.34-.35-.49-.49c-.83-.72-1.21-.61-2.37-.6-2.21,0-5.35.63-7.1-1.07-.84-.8-.58-2.12-.58-3.14a20.31,20.31,0,0,1,.86-7,12.2,12.2,0,0,1,4-5.39,31.45,31.45,0,0,1,3.91-2.68,6.9,6.9,0,0,1,2.6-.63,15.55,15.55,0,0,1,3.09-.44c1,0,2,0,3,0,2.12,0,3.91-1,5.82-1.93,2.62-1.22,5.08-1,8-1A5.67,5.67,0,0,0,170,134.77Zm-34.34,144a7,7,0,0,1,1.07,1.47A5.7,5.7,0,0,1,135.61,278.8Zm7-2.42c-2.26-1.8-4.93.87-7.65-1.47-1.39-1.2-2.45-5-3.49-6.58-2.62-4.11-5.91-8.45-10.84-9.8a7.5,7.5,0,0,0-6,.72c-1.93.94-4.66.74-6.29,1.9-1.18.82-1.27,2.55-2.74,3.18a9.17,9.17,0,0,1-3.66.19c-2.06-.1-2.84-.07-3.52-2a5.7,5.7,0,0,0-.15-2.84,6.3,6.3,0,0,1-.92-2.69c-.25-2.95,2.17-5,2.25-7.77,0-1.41-.81-2.19-1-3.47-.52-3,2.32-6.08,5.19-6.66,2.62-.54,4,.34,6.6-1.32a23.92,23.92,0,0,0,6.34-5.64c1.16-1.64,2.82-5.26,1.91-7.34a4.12,4.12,0,0,0-1.68-1,9.75,9.75,0,0,0-.69-2,6.37,6.37,0,0,1-1.64-3.13,7.4,7.4,0,0,0-.06-2.89c-.53-.7-2.6-1.57-3.4-1.91a35.72,35.72,0,0,0-7.37-2.24A24.92,24.92,0,0,1,95.12,208c-3.38-2.35-3.32-6.4-2.61-10.35,1.1-6,4.83-5.11,9.72-5.08,5.23,0,8-1.31,11.71-5.28a16.62,16.62,0,0,0,4-7.15c.64-2.43.07-2.7-.37-5-.56-2.88,1-6.39-.1-9.17a10.09,10.09,0,0,0-1.92-2.39,7.64,7.64,0,0,1-1-4.49c-.13-1.75.14-4.37-2.48-4.48-1,1-2.07,3.46-3.57,3.65-2.56-2.64-3.37-6.12-6.64-8.14-2.1-1.3-5-1.62-7-3.11-1.54-1.17-1-1.85-1.5-3.45-.68-2.37-2.82-2.43-4.24-4.55a18.93,18.93,0,0,1-2.51-5.66c-.12-.73-.26-1.51-.4-2.31a29.14,29.14,0,0,1,.22-5.6c.11-1.07,1.25-3.76,2.36-4.11,1-.3,1.76.4,2.44,1a17.61,17.61,0,0,0,3,2.33,7.82,7.82,0,0,1,2.31,1.57,12.61,12.61,0,0,0,1.08,1,5.54,5.54,0,0,0,3.76,1.46c3.06-.05,3.77-4.2,6.21-5.48,1.64-.86,3.59.15,5.44.14a9.64,9.64,0,0,0,2.52,0c1-.3,1.26-1.54,2.23-1.84a5.59,5.59,0,0,1,1.08,0c2.65-.32,5.16-3.25,7.26-4.84a13.11,13.11,0,0,0,2.51-2.91c.72-.93,2.13-1.71,2.36-2.91a6.27,6.27,0,0,0-.12-2.8c-.24-.39-.76-.56-1-1a3.08,3.08,0,0,1-.36-1.48,2.84,2.84,0,0,1,.48-2.25c.73-.91,1.46-.57,2.53-.76a33.3,33.3,0,0,0,4.21-1.36,12.57,12.57,0,0,1,4.05-.48c1.92,0,4.11-.27,5.79.36a14,14,0,0,1,3.79,1.54c1,.78,2,1.75,2.92,2.59,1.76,1.63,4.38,2.18,6.79,2.29,1.29,0,3.57.47,3.91,1.94a8.72,8.72,0,0,1-.12,2.88c-.48,2-2.41,3.88-3.24,5.76-.7,1.6-.94,2.81-2.49,3.61-3.08,1.59-7.23.84-10.59.84-2,0-4.66-.47-6.38.7a6.31,6.31,0,0,0-2.57,3.54,14.73,14.73,0,0,1-.4,2.08c-.31.59-1.2.93-1.65,1.43-.87,1-.77,2.37-1.53,3.33-.51.65-1,.6-1.87.78s-1.76.51-2.66.68c-2.51.47-5.21-.81-7.54.6-4.61,2.79-11.7,16-1.19,15.07.34,2.72.66,5.28,1,8,3.26.21,9.36,3.33,11,6.38,2.48,4.66-2.22,9.94,4.88,12.15,5.75,1.79,8.15-5.68,13.87-.29,2.06,1.94,2.73,4.64,3.74,7.18a12.71,12.71,0,0,0,5,6.23c1.89,1.19,3.91.84,6,.4a20.54,20.54,0,0,0,4.59-1.2,16.51,16.51,0,0,0,3.26-2.59,23.22,23.22,0,0,1,4.66-2.92c1.77-.85,3.7-1.34,5.49-2.13,1.6-.72,3-2,4.57-2.63.68-.29,1.44-.36,2.12-.65,1.89-.81,3.25-2.61,5-3.69a6.47,6.47,0,0,1,1.43-.57,4.33,4.33,0,0,0,2.06-1.46,15.28,15.28,0,0,1,1.92-1.87,4.12,4.12,0,0,1,2-.08,12.82,12.82,0,0,1,5.35,1.2,14.66,14.66,0,0,0,2.78,1.22c1.21.35,2.16,1.09,3.35,1.5,2.66.91,5.9.51,8.66.45,2.27,0,3.74-1.39,5.86-1.95,1.66-.44,3.6-.33,5-1.45a16.68,16.68,0,0,0,1.32-1.07c.27-.42.08-1.17,0-1.63a35.12,35.12,0,0,1-.46-4.81c0-2,0-4,0-6,0-1.83.27-3.59.25-5.4,0-3.33.58-6.72.19-10.05a12.34,12.34,0,0,0-.47-2.17,5.08,5.08,0,0,1-.12-2c0-1.37-1-2-1.33-3.23s.36-2.29.54-3.35a24.19,24.19,0,0,1,4.16-9.34c.79-1.08,1.45-1.57,1.12-3s-1.54-2.16-2.32-3.22a13.7,13.7,0,0,1-.57-1.84,4.89,4.89,0,0,1-.51-1.73c-.15-1.72-.42-4.71.56-6.21.23-.34.58-.57.8-1a12.69,12.69,0,0,0,.34-1.72,8,8,0,0,0,.83-2.37c.06-1.23-.71-1.55-1-2.54s-.34-1.82-.5-2.69a7.17,7.17,0,0,0-1.43-3.11c-.74-1.17-.61-1.44-2-1.93a8,8,0,0,0-2.56-.5,35.93,35.93,0,0,0-7.12.49c-3.26.52-6.43,1.49-9.75,1.46-1.11,0-2-.25-2.87.55a12.89,12.89,0,0,0-1,1.52c-.43.58-1,1-1.44,1.58-.86,1.18-1,2-2.44,2.68a8.58,8.58,0,0,1-4,.45c-2.17,0-3-.11-4.6-1.45-1-.83-1.81-1-1.61-2.53a5,5,0,0,1,.87-2.07c1.08-1.76.61-4,.61-6.06a16,16,0,0,1,1.2-7c1-2,2.68-4.33,4.9-5,3-1,5.9-1.8,8.91-2.59,2.57-.68,4.1-.14,6.27,1.21a15.56,15.56,0,0,1,2.41,1.32c.56.51.48,1.07.83,1.68a3.59,3.59,0,0,0,2.25,1.76c1.71.4,3,1.33,4.81,1.66,3.1.59,7.27-.56,9.75,1.77q4,3.8,8.39,7.25a35.92,35.92,0,0,1,4.29,3.28,30.35,30.35,0,0,1,.88,4.7c.56,6.37-1.75,13.42.69,19.21.17,4.14.61,8.55,0,12.49-.85,5.76-.35,8.17.07,14.11.5,7.17-5.29,13.8-3.12,21,.61,2,2.5,3.44,2.82,5.56.27,1.83-.83,3.35-1,5.11-.29,2.65-.67,5.18-1,7.82-.43,3.29-.51,4.5-3.12,6.82-3.53,3.12-2.86,3.92-2.1,8.57,1.19,7.3-3.54,10.43-9.51,13.26-5.23,2.48-10.17,0-15.28,1.57-3.32,1-4.58,3.41-8.17,2.21a7.45,7.45,0,0,1-2.91-1.3c-.65-.64-.3-1.5-1-2.09s-1.9-.42-2.7-.94-1-1.19-1.67-2c-1.32-1.67-1.87-2.15-2.32-4.28-.34-1.59-.74-2.16-.18-3.81.5-1.44,1.49-2,1.28-3.61-.18-1.5-1.87-3.76-3.42-4.09-.75-.16-1.08.31-1.75.31-1.68,0-3.78-.82-5.38-.4l-.19.06c-2.18.69-2.35,1.4-4.4,1.67a45,45,0,0,1-6.14-.06c-2.06,0-5.46-.67-7.38.19-.91.4-1.26,1.43-2.08,1.8-1.08.49-2.81-.11-4,0a34.86,34.86,0,0,0-4,1,18.82,18.82,0,0,1-5.51.14c-.45-.06-2.29-1-2.8-1-.94,0-1.54.75-2.35.82-1.51.14-3.49-1.27-4.87-1.66-.92-.26-2.65-.24-3.42-.9-1.14-1-.7-2.43-1.91-3.47-1.94-1.65-8.2-1.37-10.68-.7a9.55,9.55,0,0,0-4.49,3c-1.14,1.4-2.41,3.84-1.85,5.6.42,1.29,1.52,2,1.83,3.31a13.5,13.5,0,0,1,0,3.24c0,2.72-.58,6,.18,8.65.57,2,1.59,3,1.9,5.09a34.06,34.06,0,0,0,.45,3.69,15.64,15.64,0,0,0,.71,2.66c.48.72,1.38.83,1.77,1.55,1.76,3.29-.39,8-.76,11.43-.59,5.35-.78,11,.9,16.24,1.91,5.91,3.73,4.6,8.39,5.87,7,1.93,4.9,1.18,7.89,8.51C146,270,144.26,272.88,142.58,276.38Zm15-14.59a6.86,6.86,0,0,0-1-.71,18.5,18.5,0,0,0-2.24-.62c-2.77-1.18-3.81-4.25-5.65-6.42-2.14-2.52-3.82-1.77-5.68-5.17-1.6-2.92,0-11.67.56-14.59.66-3.17,2.47-6,2.9-9.19.41-2.94-.72-5.52.15-8.51,3.28-.86,9.38-1.36,12.62-.66,5,1.07,5.69,3.94,10.33,5.7,4.41,1.67,9.31-.84,13.77.6a27.86,27.86,0,0,1,4.93,2c.55.32,2.69,3.71,1.05,3.69-3.36-.06-4.27,2.67-5,5.22-.81,2.89-2.74,1.74-5.21,2.2a27.69,27.69,0,0,1-4,.82,33,33,0,0,0-4.87.18c-2.64.51-8.47,2.43-5.15,6,.84.89,2.31.76,3,1.84s-.11,2.76,0,3.86c.58,3.88,6,6.88,5.35,11.21a4.16,4.16,0,0,1-3.26,3.37c-1.46.18-1.68-.89-2.91-1-2-.24-3.83,2-6,2.11C159.49,263.75,158.72,262.73,157.6,261.79Z"
     class="cls-1" />
  <path
     id="path16"
     d="M503.14,350.61l.08,0c.3,2.4,1.37,4,1.92,6.17.48,1.87-.29,3.87.35,5.7,1.54,4.4,6,4.3,9.88,5,1.86.33,4.53-.47,6.22.12a13.51,13.51,0,0,1,2.24,1.68,11.59,11.59,0,0,0,5.42.54c3.58,0,6.92.07,10.19-1.74,3-1.67,3-2.88,3.46-5.89.56-3.72,2.22-8.39-.08-11.71-1.78-2.55-1.94-1.27-1.32-4.43a34.68,34.68,0,0,0,.29-6.2c.05-2.54-.65-3.24-1.57-5.3-1.13-2.55-1.26-5.42-2.49-7.92-1.62-3.27-2.07-7.1-4.24-10-2.71-3.67-5-7.78-8-11.21-7.4-8.43-22.73-.39-29,5.86-2.43,2.4-2.9,5.48-4.71,8.19-1.56,2.34-5.8,5.67-8.83,4.7-1.77-.57-1.54-1.43-2-3-.38-1.25-1.51-2.09-1.82-3.37a8.58,8.58,0,0,1,.56-4.3,29.62,29.62,0,0,1,2.75-5.87,13.34,13.34,0,0,0,1.85-5.22c.23-2.27-.21-4.56.06-6.82a7.5,7.5,0,0,1,2.32-5.14c.51-.43,5.54-2.28,5.56-1.75-.08-2.79.74-7.06,4-7.2,2.34-.11,3.13,3.19,4.86,4.44,3.71,2.66,11,3.87,15.56,3.32,7-.84,8.75-5.87,14.86-9.27,6.36-3.56,20.14.61,22.85-9.49,1.48-5.5-.18-12.61-4.66-15.48s-10.94-.77-14.68-4.73c-2.94-3.11-3.64-7.89-8.06-9.52a8.93,8.93,0,0,0-5.57.17,13,13,0,0,0-6.32,3.37c-1.68,1.68-3,3.74-5.26,4.74-1.79.79-3.63-.36-5.33.15-2,.59-1.43.91-2.38,2.82s-2.89,3.51-3.55,5.32c-1.08,2.93,1.57,4,1.61,6.23,0,1.62-.9,3.13-.94,4.86,0,1.38.32,2.85,0,4.2-.7,2.95-4.35,2-6.82,2s-5,0-7.36,1c-1.88.8-1.57,1.28-2.57,3.08-.83,1.49-1.82,1.55-2.95,2.57a59,59,0,0,0-7.05,7.77c-2.05,2.67-4.68,4.32-5.4,7.85a39.58,39.58,0,0,0-1.22,8.1c.06,3.54-.39,4.46-2.75,7.08-1,1.11-2.41,1.87-3.37,3-1.21,1.37-1.48,3.45-2.48,5a47.07,47.07,0,0,1-6.07,7.24c-1,1-2.72,1.86-3.61,2.92-1.25,1.48-.78,3-.89,4.81-.21,3.59-3.23,7.16-1.36,10.49.75,1.33,1.53,1.31,2.37,2.21,1.46,1.56.55,2.81,1.11,4.75.64.05,1.29.09,1.94.12,1.85,2.68,0,5.72,2.92,7.9,1,.77,2.33,1.24,3,2.43.75,1.4.19,2.79,1.43,4,1.82,1.85,5.86,3.75,8.29,4.76,4.65,1.94,7.95-.85,12.12-2.09a25.86,25.86,0,0,0,3.7-1c3.31-1.56,5.06-5.58,5.06-9.08,0-3.28-.51-5.14,2.9-6.81,1.67-.81,3.43-1.4,5.06-2.22C497.88,349.13,500.26,349.46,503.14,350.61Z"
     class="cls-1" />
</svg>
