<?xml version="1.0" encoding="UTF-8" standalone="no"?>
<svg
   xmlns:svg="http://www.w3.org/2000/svg"
   xmlns="http://www.w3.org/2000/svg"
   viewBox="0 0 859.03 390.86" class="hole">
  <path
     id="path16"
     d="M859,331.27a14.74,14.74,0,0,0-1-6.31c-.94-2.28-2.91-4.3-4.37-6.27-1.82-2.46-3.73-7-7.31-7.28-2.39-6.74-6.42-13.55-7.2-20.77-.55-5.11.05-10.81.05-15.95,0-6.95-2.28-12.83-1.15-19.69.38-2.28,2.95-1.94,4.14-3.4.89-1.09,1.34-2.79,2.13-4,2.73-4.18,4.54-7.09,4.23-12.3-.27-4.59-4.45-6.89-4.88-11.49-.28-3,.71-6.1,0-9a16,16,0,0,1-5.61-1.21c-2.32-1-1.95-1.54-2.56-4.06-1-4.28-2.77-6.61-6.9-8.14-1.8-.66-5.66-.85-6.68-2.83-.73-1.41,0-4.34,0-5.81a109.22,109.22,0,0,0-.2-13.78c-.55-5.47-1.86-10.77-2.06-16.29-.34-9.37-.09-18.78-.05-28.15a27.48,27.48,0,0,0-.09-4.89c-2-.65-4.16.34-6.19-.23-1.45-.4-2.35-2.5-3.94-2.14-1.56,2.71,3,2.13,3.94,3.67-1.15,1.23-9.36,10.69-5.79,12.35.88.41,2.15-.53,2.94-.16,1.78.82,1.11,3.57,1.09,5.18-.12,8.5-.2,14.4,2.64,22.08a55.38,55.38,0,0,1,3.11,18.84c0,3.85-.1,7.73,0,11.58a17.08,17.08,0,0,0,2.52,9.62c.66,1.12,1.26,2,1.09,3.33-.26,2.09-6.83,9.68-7.21,9.28-2.6-2.75-3.89-2.83-6.88-1.41s-7,2.67-7.9-1.11c-.49-2,.61-4.56-.2-6.57-.64-1.56-1.68-1.9-2.8-3-3-3.06-3.93-8.37-5.3-12.28-6.66-1.52-15.62,4-20,8.6-6.7,7.05-8.62,14.66-10.42,23.92-.61,3.14-1,6.53-2,9.55-.82,2.32-2,4.51-2.05,7.05,0,2.94-1,5.13-1.69,7.88a3.24,3.24,0,0,1-.52,1.62c-.61.68-.73.37-1.87.13s-2-.12-2.15-1.43a12.16,12.16,0,0,1,.36-3.24c.22-1.2,0-2.39.19-3.57a13.39,13.39,0,0,1,1-2.89c.44-.91,1-1.85,1.43-2.76a22.22,22.22,0,0,0,2-3.71,13,13,0,0,0-.8-9.07c-.41-1-.79-1.8-1.12-2.79-.26-.75-.82-1.31-.83-2.13a6.3,6.3,0,0,0-5.6.89,23.94,23.94,0,0,0-2.92,3.52,15.52,15.52,0,0,0-1.66,2.14c-.76,1.47-1.3,3-2.08,4.51-.32.6-1,2.25-1.92,2.29-1.52,0-1.4-1.51-1.74-2.34-.43-1.09-3.44-2.32-4.48-2.57a9.57,9.57,0,0,0-2.27-.07c-1.16,0-2.84-.35-3.86.38a2.7,2.7,0,0,0-1,2.39c-.09,2,0,4.11,0,6.15a16.84,16.84,0,0,1-.4,3.57q-.57,2.82-1.29,5.59a2.23,2.23,0,0,1-1,2.08c-1.05-.5-1.89-1.36-2.91-1.92a6,6,0,0,1-2.2-1.61c-.88-1.16-1-2.45-2.62-2.83a10.46,10.46,0,0,0-4,0c-2.34.73-3.22,5.18-3.35,7.13a11.18,11.18,0,0,1-2.17,6.29,6.19,6.19,0,0,1-2.37,1.75,11.79,11.79,0,0,0-4.26,3.46c-3.89,5-10,11-11.24,17.28-2.15.73-3.18-3.43-5.21-4.36-4.73-2.17-10,1.59-14.73.93-9.3-1.3-4.18-15.6-7.82-21.09-.79-1.2-4.28-3.22-5.74-3.85-3.58-1.52-9.11-.66-12.92-.42-1.73,2,.27,8.19.41,9.92.32,3.84.28,7.69.3,11.53,0,4.51-2.28,6.71-3.26,11-.93,4.07-1,8.9-5.43,10.77-2.19.92-4.27.33-6.54.47-5,.31-5.92,3.75-9.07,7.13-1.4,1.5-3,2.87-5.09,2-1.52-.62-2.2-2.53-3.82-3.15-.77-.3-1.88,0-2.61-.34-3.14-1.56-3.9-7.82-4.67-10.75a12.32,12.32,0,0,1-.09,4.95c-2.6-1.36-3.15-5.44-3.28-8-.21-4.07-1-9.68.23-13.54,4.24.15,6.14-10.29,6.61-13.63.5-3.6,1.09-9.64,0-13.17-.79-2.56-2.41-2.75-4.37-4.28-1.1-.86-.9-.48-1.26-1.6a12.21,12.21,0,0,0,1.73-2.34c2-3.82,0-5.23-1.16-9.19-1.24-4.26-5-12.81-.47-15.75,2.46-1.59,4.45-2.44,5.5-5.56.66-2,0-4.66.84-6.44,1.91-4.11,6.81-2.58,10.3-4.43,3-1.58,2.75-6.58,2.45-10.67.4.88,1.29,1.18,3.16,1.09,3.4-.15,6.9.33,10.41.3,4,0,6.67.59,9.9-1.88a13.49,13.49,0,0,1,4.7-3.21,22.41,22.41,0,0,1,4.7-2c2.2-1.67,2.74-6.34,2.57-8.69-.25-3.47-4-8.08-3.2-11.32.78-3,4.88-1.81,7.19-2.77,1.71-.72,1.74-1.93,2.91-2.86,1.53-1.22,3.91-1.24,5.68-2.45,5.15-3.52.16-6.39-.83-10.73-.51-2.2-.21-4.82-.18-7.08.08-4.71-2.67-5.18-5.33-8.91-2.4-3.36-1.54-7.08-1.57-11a39.92,39.92,0,0,1,1.29-8.89c.71-3.43.85-6.83,2-10a24.55,24.55,0,0,1,3.56-6.87c1.65-2,3.39-1.55,4.68-3.91a2.34,2.34,0,0,1,0-1.65,1.07,1.07,0,0,1,1.07-1,20,20,0,0,1,2.46-2.5c2.64-2.76,8.76-7.47,11.74-1.88-.47,3.3-5,3-6.16,5.67-1,2.21-1.17,5.68-1.13,8.14,0,1.88,1.62,4.9,1.17,6.47-.66,2.3-3.49,1.22-5.2,2.44-4.19,3-3,9.86-2.86,14.31.11,2.82,0,3.81,2.81,5.56,2.59,1.61,4.91,1.69,7.59,2.31,3.09.72,5.23,4.2,8.51,5.27,4.81,1.56,8.88.19,13.52-.48a51.07,51.07,0,0,1,7-.09c2.62,0,4.78-.15,7.25.67,4.19,1.39,9.29,3.27,13.25,0a20,20,0,0,0,5-7.84,14.89,14.89,0,0,0,.81-4.2c.07-1.42-.82-6.07.07-7.7,1.23-2.25,4.62-2.43,5.77-4.86.78-1.65-.16-6.3-.14-8.22,0-2.34.23-4.68.08-7C740,92,738.07,90,736.1,90c-3.85,0-6.56-.32-9.88,1.79a15.47,15.47,0,0,0-5.77,4.89,9.12,9.12,0,0,1-4,4c-1.92.61-4-.36-6.32.77-3.56,1.77-5.13,4.24-9.51,3.79-1.91-.19-7.83-3.14-6.22-6.15,1-1.91.91,0,2.48-.87,2.93-1.59,5.68-5.9,7.48-8.62,2.5-3.78,4.2-10.78,9.44-11.13a53.05,53.05,0,0,0,7.54-.75c3.62-.74,6.89-2,10.42-3,2.7-.74,5.65-.56,8.16-1.88,4.28-2.24,3.27-5.43,2.19-9.27-.54-1.93-1.79-5.16-1.52-7.09.2-1.46.8-2,1.17-3.32-2.38,1.17-3.51,5.16-5.51,6.81s-5.34,3.93-8,3.54c-2.23-.33-1.44-1.4-3.19-.58a3.16,3.16,0,0,0-1.06.88,1.73,1.73,0,0,0-.47-1.63,51.34,51.34,0,0,1-5.26.16c-2.45.07-5.17,1.47-7.52.94-1-5.09,1.7-10-2-14.21a11.68,11.68,0,0,0-7.43-4c-5.05-.58-11,1.32-15.88,0-3.51-.93-1.13-4-4.13-4.72-1.69-.39-2.8.82-4.2,1.3A39.14,39.14,0,0,1,669.78,43c-2.15.35-2.87.88-5.08.07s-3.2-2.43-5.82-1.67c-4.4,1.29-6.15,2-10.29-.43-3.42-2-6.25-1.45-10-2-1.93,4.21-3.66,12-8,14.3-5.14-7-3.44-17.89-7.48-25.51-1.78-3.36-3.55-3.81-6.45-.74-3.12,3.29-5.08,7.51-6.83,11.63-1.65,3.87-2.35,9.75-5.23,13-.84,1-2.17,1-2.89,2.43-1.14,2.22-.08,4.64.74,6.73,1.48,3.79.12,6.35-.46,10.56a134,134,0,0,0-.8,18.47c0,3.28-.79,9.21.73,12.34,1.17,2.38,3.87,3.81,5.22,6,1.74,2.87.67,5.87,1.05,9,2.07.89,4.83.31,7,.42a30.89,30.89,0,0,1,8,1.28c0,1,.35,2.89-.13,3.85-.87,1.72-1.34,1.08-2.85,1.68a14.56,14.56,0,0,1-3,1.1c-2,.18-1.82-.84-3.4-1.58s-3.32-1.27-5-.49c-1.35.62-1.89,2.33-3.55,2.3-2.84-.07-3.37-5-6.27-5.9-5.92-1.9-17.62,3.75-21-3.28-1.36-2.83-1-6.59-.95-9.59.19-5.5.2-11.31-1-16.67-1.9-8.29-5-17.4-13.8-20.72l-5.72-1.61a4.52,4.52,0,0,0-4.86,2.71c-2.45,1.57-4.48-.55-6.8-1.33a20.69,20.69,0,0,0-6.82-1.28c-.92,3.57-5.37,3.9-8.22,4.6s-5,2.51-7.82,3.11c-7.91,1.69-10-4.56-9.59-11.45,3.24-1,15,1,14-5.42,5.12-1.26,11-.07,16.27-1a11.63,11.63,0,0,0,9.22-6.61c2.62-4.94,3.44-11.52,4.09-17,.38-3.2,1.41-8,.27-11.21-1.32-3.7-5.67-8-9.23-9.09s-8.15,1.2-11.52-1.28c-1.58-1.17-.75-1.76-2.77-2.32s-3.86.48-5.81-.18c-4.14-1.39-3.61-5.56-7.69-1.75-3.7,3.46-6.36,9.1-8.82,13.45-2.59,4.6-4.66,9.38-7,14.11-.6-3.83-.41-6.43-4.77-6.19-3.76.21-9.74-1.35-12.84,1.35-1.71,1.48-2.44,5.15-3.27,7.25-1.49,3.78-2.11,3.07-6.41,4.26-6.32,1.75-9.62.88-9.86-6.46-.12-3.45.83-6.43,1.21-9.83.7-6.37-1.59-5.92-6.17-8.85-2.95-1.88-6.17-3.06-9.19-4.82S445.35,6.74,441.42,7c-4.32.31-6.75,3.53-11.49,2-4.36-1.4-5.3-5.47-8.6-7.82-5.5-3.9-9.54,2.67-13.94,4.88-4.05,2-7-.28-10.88.72-3.08.8-5.37,4.1-7.27,6.36-2.89,3.45-6.22,4.79-10,7.21-6.14,3.9-11.86,7.66-18.85,9.91,4.82-.9,7.38-.15,9.94,4,.2.33,2.93,6.31,4.58,6.29,1.44,0,3.44-2.68,4.76-3.43,4.87-2.78,10.71.16,15.86.73,2.7.3,4.11,1,6.49,1.44,4.86.8,7.25-1.11,9.32,4.72,1.28,3.58.61,7.1,1.25,10.7.34,1.91.92,4,1.46,5.9s1.85,3.21,2.43,4.87c1.29,3.68.87,9.25,0,13.06-9-2.67-16.63-8.58-25.79-11.09A26.38,26.38,0,0,1,386,66.25c-3-1.45-4.89-4.09-8.22-5.48-1.27-.53-6.3-2.7-8.22-2.87-1.66-.15-1.21.29-2.33.66-2.62.85-3.73,1.53-6.54.83a28.55,28.55,0,0,0-4.31-1.69,14,14,0,0,0-9.48,1.08c-5.56,1.81-11.53,4.62-15.23,9.37-.21-7.85,1.3-15.91-2.54-23-1.33-2.47-1.66-4.68-4.46-5.69-4.15-1.51-7.32-.26-8.29,3.78a10.12,10.12,0,0,1-1.37,5A2.26,2.26,0,0,1,313.2,50c-1.38,1.84-1.41,3.35-3.66,4.39q-3.26-.16-6.51-.17-4.89,0-9.76.22c-2.79-1.09-3.49-5.27-6.23-6.75-3.88-2.09-6.89,2.6-9.59,4.69-2.28,1.77-3.1,2.09-5.88,1.62-3.84-.65-6.82-2-10.84-.25-2.93,1.26-4.64,5.75-7.31,6.45-1.37.36-5-1.32-6.7-1.37-1.88-.07-3.77,0-5.65,0-3.3,0-7.75-1.61-8.7,2.59q.45,6.15,1.15,12.29a63,63,0,0,1,.35,7.89c-.2,4.15-2.79,4.77-5.38,7.69-1.58,1.8-2,6.37-3.88,7.43-2.92,1.66-5.38-1.67-4.4,3.73a63.06,63.06,0,0,1,.86,10.39c.06,3,.17,2.37,1.75,4.37s2.32,1.87,1.13,4.11a6.19,6.19,0,0,1-4,3c-3,.54-6.17.53-9.22,1.32-3.64.94-6.7,2.11-9-1.7a16.19,16.19,0,0,0-2.11-3.31c-1.91-2.07-5-3.77-5.21-6.86-.25-3.67,3.47-6.86,6.91-7,.56-1.93.26-3.66,1-5.59a15.43,15.43,0,0,1,2.62-4.7c2.08-2.52,4.84-4.14,6.84-6.75,4.29-5.58,7-10,5.75-17.51-.68-4-2.29-7-5.76-9.19-3.71-2.33-7.57-1.32-11.44-2.61-.4-6.47-1.81-10.2-7-14.09-2.23-1.68-4.28-4.71-6.83-5.84-1.66-.74-3.39-.43-5.13-.39-4.84.1-7.71-4.08-12.55-3.56-3,.32-5.15,2.14-8,3.09-2.55.86-5.24.5-7.88.44-2.45,0-4.1-.3-6,1.11-1.16.88-1.25,2.36-3.07,2.5-1.41.12-3.51-1.2-5-1.35a45.87,45.87,0,0,0-10.67.18c-4.27.67-7,3.23-8.94,6.92-1.17,2.17-1.57,5.39-3.62,7-1.42,1.11-2.05.31-3.38.85-3.12,1.26-4.5,5.73-5,8.85a35.19,35.19,0,0,0-.1,11.72c.56,3,2.26,4.64,3.92,6.94,2.59,3.57,2.81,8.5,5.69,11.69,1.28,1.42,2.86,2.24,4.08,3.77a35.82,35.82,0,0,0,3.77,4.38c2.39,2.23,3.82,5,6.59,7,4.45,3.16,11.53,1.91,16.71,3.47a20.85,20.85,0,0,1,4.75,2.44c1.05,1.19.43,3.29.42,4.72,0,2.21.37,6.81-3.51,5.55-1.28-.41-1.49-1.79-2.73-2.35s-3.32-.06-4.6-.06c-3.48,0-7.2.49-10.52-.62-2.1-.7-4.33-1.8-5.52-3.73-.48-.77-.46-1.86-.91-2.56-2.38-3.72-6.73-1.46-10.1-2.45-.59-2,.1-3-1.21-4.78-.59-.8-1.89-2.45-2.62-3.21-1.55-1.59-2.91-2.38-4.38-4.26a26.62,26.62,0,0,1-2.53-3.91c-3.2-5.87-3.54-11.4-4.62-17.82-.8-4.84-3.36-5.34-8-4.85-1.11-1.09,0-7,.4-8.38a11.31,11.31,0,0,1,2.1-3.07,30,30,0,0,0,2.13-8.24c.15-1.12.9-5.44.2-6.72-.85-1.55-7.35-3.38-8.77-3.86-3.7-1.26-7.57-.71-11.27-1.84-2.59-.8-3.22-2.75-5.58-3.63-1.56-.58-2.87.06-4.39-.12-2.9-.35-3.83-2.17-5.93-4.4-3.64-3.85-4.72-3.75-9.61-3.73-2.32,0-4-.12-6.06,1-2.92,1.64-3.42,4.21-7,4.83a17.46,17.46,0,0,0-3.54,1.09,3.77,3.77,0,0,0-2.88.32,18.12,18.12,0,0,0-3.63,3.07c-1.95,1.81-2.86,3.87-4.35,5.78-1.65,1-3.32,2-5,3A33.19,33.19,0,0,0,12,61.91c-.17.42-2,9.8-3.12,10.22C7.72,69.89,4.66,68.25,2.22,68c-.57,2.91,0,6.33,0,9.3a114.37,114.37,0,0,0,.92,12.38c.7,3.5,0,3.62-3.11,3.91-.16,3,4.1,5.8,5.13,8.49.89,2.33.52,4.78.52,7.28,0,5.82-.42,11.79-.08,17.6.2,3.52,2.13,5.93,3,9.26.85,3.14,1.07,6.38,2,9.56,1.27,4.36,2,8.55,7.08,8.9,4.86.34,8.94-1.56,13.47-2.88,7.83-2.29,15.54.79,23.31,2.23,4.87.9,6.72.37,11.16-1.59,2.16-1,4.38-1.83,6.79-1.49,2.71.39,4.18,2.65,6.66,3.4,2,.6,5.87.1,7.38-1.53,2-2.19.49-2.92,4-3s7,.94,10.52,1.18c2.06.14,7.71-.19,7.16,3.28-2.49.57-5.65.19-7.84,1.76-3.26,2.34-3.3,7.95-7.17,9.71-1.78.81-3.13-.44-4.65.24-2.85,1.29.43,6.93-1.73,8.88-3.37,3-7.41-1.43-9.43-3.43-1.69-1.68-2.16-3.24-3.35-5.24-1.6-2.69-5-3.1-7.89-2.49-1.54,2,2,8.16,1.73,11.06-.3,3.28-.92,8-2.27,11-.27.59-1.43,1.35-1.43,2,0,1.44,2.34,2.5,3.34,3,2.75,1.36,5.14,1.95,6.21,5.08,6.06.31,10.43-2.76,15.6-5.21,4.75-2.26,10.54-1.89,15.6-2.9.28-2.47-1.24-7.17-.14-9.48.84-1.76,6.16-2.58,7.84-4.16s3.16-4.83,5.36-5.76c2-.83,5.77,0,7.85,0,5.07,0,7.86-1.49,11.28-5.08,2.12-2.21,4.74-1.71,6.61-4.2a54.32,54.32,0,0,0,7-12.15,55.46,55.46,0,0,0,2.54-8.77c.14-.57-.42-1.4.12-1.95,1.12-1.15,3.86.13,4.75.66,1.79,1.08,1.76,1.58,4.29,1.48,4-.14,2.52-2.34,4.86-4.77,1.61-1.66,3.37-.8,5.48-1,3.92-.29,4.64-3.73,7.87-5.41,2.8-1.45,5.39.62,8,1.62,1.7.66,3.32.8,4.83,2,1.17.9,1.92,2.06,3.16,2.92,2.25,1.55,3.93,2.35,5.12,4.13a3.64,3.64,0,0,1,0-.48c2.49-.31,4.54-2.58,6.56-.28.68.77.6,2.11,1.3,2.88.95,1,2,.84,3.2,1.41,3.14,1.52,6.41,5,6.18,8.72-.15,2.51-1.9,4-2.43,6.21-1.14,4.79.71,8.94,3.42,12.65a19,19,0,0,0,1.29,1.64c.12.94.68,1.51,1.93,1.34-.67,1.94-2.75,3.47-3.68,5.42a46.9,46.9,0,0,0,6.22,5.75,19.78,19.78,0,0,1,2.32,1.76c1,1.3.56,2.85.76,4.54.46,4.1,1.8,7.4,6.09,8a9.85,9.85,0,0,0,8-2.21c2-1.7,2.74-5.08,5.15-6.1a47.44,47.44,0,0,1,4.3,10.7c.95,3.72.86,8.23,2.54,11.67,1.1,2.27.68,2,3.67,2,1.43,0,4.22-.59,5.66.13,3.82,1.93,5.61,8.06,7.67,11.35a19.48,19.48,0,0,1,2.75,5.72c.69,2.47.84,2.19,3.46,2.5,1.44,3.08-2.1,7.42-4.47,9.17-2.88,2.12-4.46,0-4.63,4.39s-.73,9.72,0,14,4.54,11.48,7.69,14.41c.8.53,1.56,1.09,2.31,1.68a3.92,3.92,0,0,1,.58,2.33c1.28,2.12,3.5,1.53,5.41,2.26,2.71,1,2,1.31,4.58,3.54,2.84,2.4,6.26,2.41,9.72,2.29.85,0,2.45-.45,3.25.07,2,1.26.82,4.15,2.88,5.41,3.92,2.4,5.25-1.27,5.09-4.2,2.32-.48,6.28-1,8,.49a2.16,2.16,0,0,1,.28,1.39,5.92,5.92,0,0,0,2.09,1c3.49,2.45,1.54,4.68,2.1,8.05s4.39,6.2,6.71,7.93c5.53,4.09,11.37,4.8,17.79,6.44,5.83,1.48,11.72.76,17.53-.9,8.67-2.48,9.69-13,10.94-20.37.47-2.79.21-2.52,2.13-4.16s3.77-3,5.1-5.16c3.21-5.15,3.86-11.84,7.87-16.74,1.45-1.78,4.21-4.39,6.91-2.24,1.52,1.21,1.15,2.58,1.4,4.37,5.09,1.49,11-.32,16.33,1.22,3.13.9,5,1.82,5.56,5.51.45,3.2,1,10.41-.77,13.14-1,1.48-2.28,1.3-2.9,3.14-.7,2,.08,5.67.08,7.89,0,6.15-.8,12.92.17,18.93,3.59-.24,8.46-1,11.38.48a3,3,0,0,0,1.06,1.41,14.26,14.26,0,0,0,2.48.86c2.7,2.28.19,8.95,0,12a83.24,83.24,0,0,1-1,11.29c-.49,2.57-.76,5.48.27,7.94,1.56,3.74,3.83,3.12,6.44,1.12a17.68,17.68,0,0,0,5.48-6.24c1.41-2.71,2.38-3.39,5.68-3.75,2.25-.25,4.11.54,6.38-.4,2.49-1,4.43-2,5.73-4.18,1.63-2.72,2-6.26,3.12-9.17a37.79,37.79,0,0,1,3.28-6.43,28,28,0,0,0,2.26-5c1.39-1.43,2.61-1.47,4.56-2.49,3.75-2,4.51-4.46,6.36-7.92,5.58,1.2,5.24,6.56,3.9,11.4-1.13,4.09-2.94,8.12-4.19,12.21-1.56,5.08-4,4-8.81,4.82-4.62.74-2.87,3.69-3.77,7.43-.73,3.07-1.2,2.67-4,3.55-6.07,1.9-7.37,4.4-8.91,10-3.19.42-8-.27-10.73,1.73-2.42,1.76-1.14,4.74-3.16,6.54-1.07,1-1.51.11-2.2,1.78-.46,1.11.15,4.18.15,5.53,0,2.61-.95,6.88.65,9,1.81,2.41,7.17.26,9.86-.3.67-.14,1.43.29,2.13,0,1.79-.83,2.56-3.61,3.42-5.19,2.5-4.61,4.57-6.53,9.17-9,4.17-2.27,8.64-4.39,12.07-7.71a7.85,7.85,0,0,0-.46-1,18.18,18.18,0,0,1,2.78,1.16c.87.5,1.49,1.85,2.4,2.55,2,1.52,4.92,2,7.31,2.11,3.92.18,4.31-.56,7,1,.51.3.34.9,1.12,1.24,2.35,1,8.3,0,10.83-.06,5.21-.09,10.48-1,14.9-4,3.39-2.26,7.71-7.66,8.88-11.67.37-1.26.62-3.48,0-4.6-.8-1.51-3.08-1.55-4.08-3-1.54-2.25-1.52-7.1-1.62-9.75-.13-3.68-.64-8.2.77-11.58,1.1-2.64,3.15-4.68,4-7.49a30.86,30.86,0,0,0,1-9.12c0-5.75,1-11.36,1.09-17.13,0-3.35.93-6.14,4.66-7.06,1.75-.42,2.25.56,4-.8,1.17-.92,2-3.32,2.65-4.59s2.11-6.7,3.63-7.32c5.54-2.27,4.06,15,3.4,17.34-2.89.54-5-1.21-5.73,2.12-.89,3.91.84,8.45.13,12.41-.43,2.39-1.26,2.85-1.23,6,0,2.49,0,5,0,7.48s-.63,6.47,1.14,8.52c1.18,1.35,3.29,1.33,4.71,2.43a12,12,0,0,1,2.58,3.53c1.91,3.14,2.45,6.32,5.3,8.89a10,10,0,0,0,6,3c1.22.12,2.14-.41,3.27.3.83,4.31-.71,5.34,4.38,6.26a44.52,44.52,0,0,0,9.45.31,116.43,116.43,0,0,0,16-2c1.9-.36,6.16-.6,7.16-2.84.65-1.48-.3-3.71-.75-5.12,1.93-1.82,3.95-1.68,5.19-4.72.81-2,1.1-4.64,1.61-6.72.43-1.77.79-4.26,2-5.77,1.38-1.78,2.39-1.66,4.48-2.53,3.4-1.42,6.78-2.65,9.5-5.41.64-.65,2.51-2.73,3.39-2.83,1.26-.14,2,1.48,3,2.19a15.41,15.41,0,0,0,12.27,2.12c3.35-1,5.47-5.29,6.38-8.48.83-2.94-.14-3.37,3.28-4.07,2.35-.48,4.28-.13,6.74-1.09a16.5,16.5,0,0,1,7.06-1.18c2.26.05,9.71,1.37,10.66-1.1-1.64-1.32-4.33-1.22-5.31-3.28,4.89-1.58,13.89,2.63,16.69-2.49,1.79-3.26,2.93-5.49,6-7.82A23.59,23.59,0,0,1,700,281.7c2.27-.87,5.07.64,6.83-1,.2,5.12,6.77,2.62,10,3,2,.23,3.66,1.09,5.64,1.27,3.65.33,9.13-1.45,12.52,0s1.5,8.17,1.88,11.16c.51,4,1.28,7.5,4.49,10.25s3.37,2.31,3.34,6.57c0,3.78,1.22,6.72,4.19,8.89s5.59,3.8,8.32,6.22c3.22,2.85,5.56,6.11,8.42,9.29,1.47,1.63,2.8,2.65,2.25,4.84a71.83,71.83,0,0,0-5,7.31,23.84,23.84,0,0,0-3,9.77c-.39,3.17-.21,4.44,2.93,5.73,2.22.91,5.42,1,7.78,1.41,6.18,1.13,14.48,1.18,19.39-3.05a17.11,17.11,0,0,0,1.94-1.87c.13-1,.24-2,.31-3,1.16-1.76,4.4-1.81,6.17-2.7,2.16-1.1,3.41-2.71,5.19-4.16,2.47-2,5.72-3.24,7.66-5.87,2.81-3.8.32-6.87,1.47-10.68.57-1.92.79-1.51,2.08-2.92,2.1-2.31,2.54-5.22,3.74-7.95,1-2.39,3.22-3.62,4.41-5.92,1.36-2.66,2.57-5.32,2.52-8.22-.06-4.5-1.45-14,3.47-16.78,5.59-3.18,2.3,5.9,2.21,8-.22,5.87,3,12.18,1,18.07l-1.88-.14c-.65,5.52.18,11.82-2.45,17-1.74,3.39-4.67,2.91-6.84,5.49-4,4.82,2.32,16.46-5,19.6-1.89.81-5.46-1.11-7.57-.59-3,.74-3.41,3.41-4.86,6.46-2.18,4.58-2.51,6.44-6.67,8.43-2.27,1.09-2.89,1.05-2.07,3.72,1.14,3.68,5,7.09,7.87,9.46,4.45,3.72,9.86,1.64,14.1-1.9,2.37-2,3.28-4.56,5.1-6.85q.75-2.56,3.64-1.89a26.58,26.58,0,0,0,11.88-.94c7.66-2.33,13.21-5.79,17-12.48,2.51-4.41,4.55-6.09,4.6-11.52.06-5.94-2.37-8.4-6.13-12.57C854.71,337,858.66,336.25,859,331.27Zm-296.32-89c-.87,1.6-.78,4.57-2.48,5.58-2,1.18-4.9-.47-7,.36-4.07,1.6-4,7.76-6.6,10.51-2.31,2.47-4.85.37-6.9-1.39-1.41-1.2-4.73-3.1-5.57-4.83-1-2.09.72-6.11-3.44-5.44-1.16,3.35-6.21,2.34-9.11,2.27-6.22-.17-6.12-1.68-6.08-6.69,0-3.65,1.37-8.39-2.69-10.29-2-.94-6.33-1.07-7.91.91-.92,1.15-.29,4-1.82,4.46-.2-3.13-3.6-8-6.1-9.68-2.07,1.3-1.12,3.94-2.48,5.26-1.14,1.1-1.81.79-3.23,1.09a20.73,20.73,0,0,0-10.55,6.4c-.67.82-3.37,8-5.47,7.84-5.49-6.54-11.75-14.75-20.92-15.82-1.61-7.07-4.57-14.53-13.32-12.22-3.6.95-3,2-6.27,1.29-2.4-.57-5.64-1.21-8,0-.93.47-1.45,1.39-2.38,1.85s-2.29.34-3.37.88-1.26,1.38-2.87,1.69-5.48.26-7-.58c-3.75-2.11-4.14-7.56-4-11.57a36.67,36.67,0,0,1,.9-5.16c.32-1.87-.08-3.74.2-5.55.54-3.47,3.57-3.7,4.46-7.13.77-3,.13-7.64-4.17-7.1-2.71.34-3.49,3.39-3.89,5.75-1.94.21-8.24.54-9.15,2.4s.42,6.08.22,8.37c-.35,3.91-3.25,6.91-4.12,10.73a31.71,31.71,0,0,0-.59,6.67c0,.91.28,2.06-.32,2.78-1,1.21-6.48.84-7.84.43-2.11-.66-4.12-3.9-6-5.35a20.29,20.29,0,0,0-8.18-3.92c-4.08-.72-10.11,0-12.39,4-1.15,2-1.53,4.19-2.76,6.21-2.06,3.38-3.13,7.2-4.51,10.89s-1.75,4.38-5.57,4.21-10.79-.9-11.38,4.4c-.44,4,1.93,22.1-5.07,19.22-1.09-.45-1.65-1.68-2.64-2.25-1.67-1-3.85-.83-5.81-.74a17.43,17.43,0,0,0-9.42,3.14c-2.69,1.87-3.42,2.54-4.46-.36s-1.28-4.55-4.75-5c-4.27-.59-6.86.26-11-1.73-3-1.43-6.58-2.82-9.24-4.78,3.38-3,4.35-3.92,4.26-8.62-.11-5.66,1.47-12.61-.42-18-1.41-4-4.17-6-4.18-10.44,0-2,.49-5-.2-7-.85-2.45-.84-2-3-2.37s-2.13.66-2.7-1.95c-.52-2.38.41-2.49,1.25-4.08a7.07,7.07,0,0,0,1.15-3.77c.11-2.35-.37-3.46,2.26-4,1.16-.24,2.41.32,3.51.1,1.75-.36,3-1.82,4.31-2.92,5.73-4.67,3.88-11.41,3.76-18.38a17,17,0,0,0,2-2.41l1.09-1.83a6.21,6.21,0,0,1,3.67-1.57c2.6-2.14.75-4.71,2.42-6.68,1.39-1.63,4.55-1.89,6.23-3.54,1.49-1.47,1.76-3.26,3-4.8,1.76-2.25,4.62-3.68,4.43-7-.17-3.05-3.21-2.82-3.66-4.56-.7-2.77,3.16-2.19,1.44-5.43-1.63-3.08-3.49-3.27-2.66-7.3.47-2.35,2.5-4.69,3.46-7,2-4.75,2-9,2.28-14,.11-2.39.54-4.62.85-7,.34-2.69-.53-7.25.89-9.77,1.7-3,8.05-6.86,10.7-3.12,1.87,2.65-.33,9.6.32,12.73.77,3.64,3.73,6.52,5.61,9.49,1.27,2,3.18,5.58,5.8,5.32,1-.1,2.54-1.74,3.52-1.45,1.15.33,1.87,3.4,2.38,4.15,2.35,3.45,8.62,7.79,6.66,12.9,3.66,1.29,7.31-1.46,8.18,3.16.47,2.47.25,5.21,2.57,7a19.44,19.44,0,0,0,3.42,1.46c1.92.92,3.61,2.35,5.53,3.18s4-.11,5.79.61c2.44,1,3.66,7.64,4.32,9.37.6,1.55,1.74,5.57,3.63,6.67,2.61,1.52,8-.45,10-2.11,4.22-3.5,4.74-7,5.36-12.14.06-.56.32-6.48,1-7.43,1.06-1.47,5.14-1.13,6.7-1.22,7-.39,13.92-1.94,21-2.22,1.75-.07,6.1.81,5.61-1.94,1.18,1.59,4.6-1.73,5.78-2.76a76.52,76.52,0,0,1,9.14-6.65c2.81-1.8,6.72-2.62,9.05-5.16,1.31-1.43,2.31-4.15,3-5.92,2.1-5.2-1.28-11.92,2-16.88,1.52-2.29,4.08-2.73,5.86-4.5,2.26-2.27,2-4.79,2-7.73s-.1-4.41-1.26-6.67c-1.47-2.86-3.32-5-3.45-8.38-.1-2.44.09-18.57,4.74-16.64,2.41,1,0,3.88,1.14,5.31s4.49.24,6.24.57c5.45,1,2.22,8.73,3.06,12.8,4.5,1.31,7.43-15.91,13.46-16.45,1.8-.16,3.67.26,3.92,2.27.13,1.09-2.56,3.47-3.05,4.89-1.49,4.34.31,8.72-1.67,12.77-1.51,3.1-4.17,11.65-7.6,13.28-1.36.65-2.9-.1-4.11.81-1.6,1.19-1.09,4.47-1.07,6s.59,3.33-1.07,4.09a10.57,10.57,0,0,0-2.31-.16,10.07,10.07,0,0,0-3.24,4.51c-2.69,5-5,10.59-4,16.42.57,3.33,1.36,2.89,4,4.16,3.87,1.85,7,5.08,11.3,6,.13,1.44,1.33,2.26,2.24,3.32a10.51,10.51,0,0,1,2.83,4.5c.95,2.39,1.41,4.14,3.71,5.45,2.47,1.42,5.89.76,8.66.68,3.75-.1,4.26.84,7.43,2.33,3.69,1.73,7.73.84,11.61,1.06a13.8,13.8,0,0,1,5.51,1.35c2,1,3.27,3.48,5.28,4.37,2.91,1.29,3.87-1,5.25-2.87a27.61,27.61,0,0,1,4.52-4.19c2.66-2.3,2.74-3.22,2.87-6.43.12-3-.8-6.63.15-9.55.85-2.56,2.68-4.64,4.31-6.67,3-3.73,5.8-11.27,4.73-16.31-.82-3.85-1.64-5.81-.07-9.85,1.67-4.28,1.52-5.34,6.37-5.17,4.14.15,4.75,1.88,3.76,5.83-.78,3.12-1.53,5.32,0,8.46.63,1.31.2,1.22,1.37,2.22.78.68,1.79.42,2.32,1.48.85,1.69.45,6.69-.13,8.45-2.23.51-4.57-.28-6.82,0-3.51.51-1.93,2.31-2.09,5.34a28,28,0,0,1-3.62,12,53.86,53.86,0,0,0-4.77,11.07,34.61,34.61,0,0,0-1.77,6.1c-.35,2.14-.26,5.46-1.46,7.36-.63,1-2,1.44-2.35,2.54-.6,2.13,2,4.35,2.32,6.48.49,3.22-1.24,5.33-2.5,8.11,1.44-1,4.06.56,5.21,1.81,3.62,4,1.07,9.91,1.86,14.45.7,4,2.31,7.59,2.35,11.89s-1.21,10.8,3.14,13.51c3,1.9,7.79.5,11.39,1-1.45-2.22,1.69-8.32,3-10.54,1.69-2.85,5.5-4.86,7.86-7.11,3.53-3.36,2.43-9.18,7.47-11.78,2.3-1.18,4.9-.59,7.41-.64,1.7,0,6-1.72,6.89-.41-5.33,1.89.18,9.44-3.2,12.68-2.38,2.27-10.94-.37-13.93.5-.63,2.42.3,5,0,7.46-.41,3.16-2.21,3.21-4.46,5.12a28.32,28.32,0,0,0-4,3.48c-2.09,2.68-.51,7.34-2.47,10.29a6.26,6.26,0,0,0-2.81.39,16.18,16.18,0,0,0-.48,3.44C565.93,234.39,564.45,239,562.68,242.27Z"
     class="cls-1" />
  <path
     id="path18"
     d="M241.27,272.29c-.18,4.25,8.89,5.47,11.47,7.49,3.48,2.7-.68,11.31-1.39,14.93-.5,2.53-.08,6-3.11,6.48-2,.34-3.92-1.11-5.88-1.31-3-.32-3.63.63-5.74-2.27-2.3-3.17-2.77-6.84-4.57-10.25-2.92-.39-3.39,10.42-4.87,12.84-2.7,4.42-7.49-.17-9.2-3.31a18.38,18.38,0,0,1-2.17-7.44c-.05-.86-.4-4.54.17-5.13,1.18-1.22,3.87-.21,5.54-.5.48-2.32-.15-4.62.33-6.94a13.53,13.53,0,0,0,6.78-1.92c4.05-2.18,3.88-9.61,4.29-13.45.17-1.59-.14-4.38,1.1-5.77s2.46-.5,3.54-2.52c2-3.67.37-10.05,5.79-9.9.5-4.71,5.63-5.71,7.22-1,.88,2.58,1.21,5.2,2.54,7.8,3.15,6.17-5.67,13.57-11.64,14.26-.69,2.39-1.76,4.53-2.5,6.73"
     class="cls-1" />
  <path
     id="path20"
     d="M692.9,243.48c0,5,0,9.9,0,14.85,0,1.43.72,5.57-.12,7.16-3.5,6.71-8.25-2-10.3-4.84-.76-1.08-2.22-3.74-3.4-4.38s-2.51.4-3.8,0c-2.64-.75-1.28-1.7-2.21-3.7-.67-1.46-1.59-.65-2.14-2.62-.6-2.15.09-5.69.09-7.86,0-2.66-.64-6,.17-8.51a11.91,11.91,0,0,1,6.84-7.43c2.05-.71,3.41-1,5.14-2.28,1.18-.9,1.87-1.84,3.4-2.23,2.46-.64,4.95.81,7-.87,2.88-2.41,1.5-8.31,1.89-11.55.34-2.77.47-5,3.17-6,1.94-.74,4,.68,5.89-.6,2.38-1.6,3.51-7.56,4.09-10a23.88,23.88,0,0,0,.46-6.89c-.12-3.32.17-4.79,3.3-6.51a24.65,24.65,0,0,1,8.43-2.67c2.49-.33,2.76,1,3.38-2.18s-3.37-4.69.51-6.74A18.93,18.93,0,0,1,735,166.25c1.1.23,1.83.84,2.91,1.1,1.43.34,4.24-.83,5.08.53a5.85,5.85,0,0,0-2,3c3.37,1.56,7,2.46,10.26,4.1,1.8.89,3.48,2.21,5.42,2.7,2.92.73,4.79-.73,7.11,1.43,2.9,2.71,3.65,4.81,1.68,8-1.38,2.26-4,6.37-6.88,6.93-1.37.26-2.57-.61-3.92,0-1.16.51-1.78,1.72-2.58,2.72-2.61,3.24-6.71,6.14-7.35,10.36-.59,3.86-1.42,7.17-6.07,6.18-3.55-.76-6.28-1.58-10.23-.85-3.2.59-3.3,1.1-3.3,4.42,0,3.89,1.28,5.84-3.36,5.92-2.58,0-5.63-.6-8.15-.15s-3.68,2.32-6.38,2.43c-2.91.13-5.61-1.07-6.35,2.39-.32,1.46.33,3.27.23,4.76-.23,3.36-1.15,3.36-2.79,5.48a11.41,11.41,0,0,1-4,3.77C691.8,242.8,691.73,242.77,692.9,243.48Z"
     class="cls-1" />
</svg>
