<?xml version="1.0" encoding="UTF-8" standalone="no"?>
<svg
   xmlns="http://www.w3.org/2000/svg"
   viewBox="0 0 863.7 589.82"
>
<defs><style>.cls-1{fill:black;}.cls-2{fill:none;}</style></defs>
  <path
     id="path14"
     d="M75.72,177.08c-1.08,0-2.27.12-3.08-.66A4.89,4.89,0,0,1,71,171.76a16.66,16.66,0,0,1,1.33-2.59,6.43,6.43,0,0,0,.3-2.82c.07-1.94,1.26-3.68,1.56-5.59.21-1.35.09-2.72.26-4.08A15.13,15.13,0,0,1,75,154.1a11.57,11.57,0,0,1,2-3.85c1.25-1.51,2.27-1.26,4.09-1.26a28.37,28.37,0,0,1,3.8,0,8,8,0,0,1,4.33,2.67c.85.92,1.51,2.63,3.06,2.41.55-.86.52-2,1.06-2.85A7.65,7.65,0,0,1,94.64,150c.42-.41.73-1.2,1.26-1.47s1.08.16,1.61-.13c1.36-.74.43-6.29.5-7.37a24.36,24.36,0,0,1,.53-2.54c.19-1.1-.17-2.27.33-3.32-.65,1.38,12.65,2.62,14,3a9.46,9.46,0,0,1,7.06,7.62c.78,4.28-.87,5.42,2.76,8.17,4.1,3.11,1.89,2.44,1.57,6-.18,2,1.36,4.8,1.8,6.81a33.87,33.87,0,0,1,.66,8.53c-.07,3.16-.48,3.47-3.54,4.79a46.81,46.81,0,0,1-10.51,3c-2.93.51-5.93.33-8.44,2.07-1.9,1.32-2.59,2.66-5.12,2.9s-5.13-1.76-7.25,0c-1.75,1.42-3.19,2.57-5.53,1.57A13.08,13.08,0,0,1,79.93,184,26.24,26.24,0,0,1,78,180.67c-.23-.67.07-2.38-.23-2.82A2.31,2.31,0,0,0,75.72,177.08Z"
     class="cls-1" />
  <path
     id="path16"
     d="M168.73,380.41a1.56,1.56,0,0,0-.69,1.12c-1.49.87-3.86,1.32-5.16,2.58-1.87,1.83-.69,3.38-1.47,5.48-1.11,3-3.26,2.58-2.22,6.43,1.31,4.82,7,1.85,8.95,7,.92,2.43.66,8,0,10.51-2.69.24-4.5,2.21-7,2.82-3.48.84-4.1.8-6.74,4-1.47,1.78-2.95,2.72-3.52,4.72-.64,2.26.67,4.63-.55,6.92-1.91,3.59-5.62,6.27-8.79,8.76a25.24,25.24,0,0,0-6,6.13c-1.66,2.62-4.53,5.46-4.86,8.46-.29,2.72.45,5.36-.18,8.06-.68,2.9-1.3,3.79-.13,6.68,3.11,7.62,9.06,8.63,14.93,13.23a23.44,23.44,0,0,0,7.31,4.06c3.6.95,5.24-.62,7.79,2.88,1.71,2.36,3.15,4.77,6.67,3.89,2.15-.53,3.68-4,5.74-1.34,2.1-1.88,3.35-8.33,2.23-11.2-.68-1.74-1.1-1.55-2.64-2.12.21.08-3.21-1-2.94-1-2.84,0-6,1.06-9.13,1.11-4.09.06-5-.84-7.41-4-4.15-5.43-2.34-14.37,1-20.06a53.85,53.85,0,0,0,3.44-6.45c.84-2,.93-5.27,2.9-6.58,1.5-1,3.35.14,4.27-1.71.37-.72-.19-2.7-.07-3.57a14.14,14.14,0,0,1,2.07-5.24,58.57,58.57,0,0,0,2.65-5.95c1.91-4.14,5.65-5.29,10-5.53,9.4-.52-1.56,6.77-1.17,10.8.13,1.3,1.22,2.38,1.24,3.89,0,2.8-1.62,4.68-2.86,7-.71,1.31-1.85,4-2.83,5-1.79,1.83-4.57,1.48-6.05,3.74-2,3.06-1.28,11.86,2.05,13.15.81.32,6.37-.15,7-.41a6.7,6.7,0,0,0,2.81-2c6.29,9.91,20.43-13.51,23.77-2.71.74,2.38-8.71,14.87-1.41,14.16.21,1.63-1.07,3.27-1.56,4.81-.6,1.94-.51,4-1.12,5.9-1.73,5.3-7.2,9.59-4.48,15.44,1,2.07,2.5,3.71,3.35,5.91.54,1.41.88,2.95,1.55,4.31.84,1.74,2.89,3.35,3.57,5,.62,1.52,0,3.22.36,4.82,2.56,1,3.22,1,4.53,3.43.85,1.59,2.34,5.86,4.63,6.44s7.31-1.48,8.7-3.49c2.08-3-.16-6.34,2.34-9.49,2.13-2.68,3.36-2.62,3.92-6a20.48,20.48,0,0,0-.22-6.09,13.67,13.67,0,0,1-6,2.55c1.91-1.38,4-2.71,4.71-5,1.16-3.64-.49-3.78-3-4.76-3.48-1.32-7.11-.73-7.62-5.84s4.35-8.63,5.2-13.27c.47-2.59,1.38-5.07,1.51-7.66.21-3.92-.7-5.43,2-8.68,4.74-5.66,10.76-1.84,12.5-11.08.51-2.68,0-5.33.17-8,.11-2.26,1.21-4.15,1.15-6.38,0-.42-1-1.54-1.14-2.19-.25-1.34.76-3.42-.33-4.66-2-2.3-6.78-.8-9.17-3.13-2-2-1-2.23-3.86-2.73-2.07-.36-3.18,0-4.37-2.22-2.85,2.23-5.71,2.36-9.09,3.27-3.67,1-5.77-.88-9.3-1.28-.47-2.71,2.57-3.88,1.06-7.54-.68-1.61-2.36-1.8-3.11-3-1.34-2.1-.53-5.43-2.12-7.82a6,6,0,0,0-4.32-2.66c-.84-.18-3.67.21-4.47-.12-1.92-.81-1.58-.61-2-3s.28-5,.15-7.36a27.84,27.84,0,0,0-1.1-4.58c-.41-1.91,0-3.52-.23-5.41-.3-2.23-1.45-6.78-4.07-6.9-1.18,0-1.82,1.08-2.71,1.57-2.14,1.2-1.65,1.19-4,1.35S169.53,378.49,168.73,380.41Z"
     class="cls-2" />
  <path
     id="path18"
     d="M329.73,207.06c-3.9-.6-8.65-3-12-.27-1.41-2.42-3.48.24-5.37-.91-2.15-1.3-1.17-4.5-4.8-4.46-1.48,0-1.94,1.18-3.12,1.63-3.14,1.2-5.08-2-4.31-5.75l0-.13c.68-3.23,1.14-2.71-1.85-4.48a19.71,19.71,0,0,1-2.35-1.76c-.51-.41-.17-1.3-.85-1.68-.51-.28-2.25.07-2.83.07a3.43,3.43,0,0,1-1,0c-.26-.09-.36-.39-.62-.53-.55-.29-.65-.26-.67-1,0-.38.1-.82-.12-1.16s-.78-.5-1.07-.82-.4-.69-.73-1a3.34,3.34,0,0,0-1.56-.43,1.9,1.9,0,0,1-1-.43c-.25-.28-.21-.55-.58-.78-1.35-.87-2.19.78-3.15,1.46s-2.18.59-2.53,1.77a9.62,9.62,0,0,0,0,1.61c-.08.71-.84,1.06-.94,1.72s.88,2.21-.16,2.43c-.47.1-.44-.29-.7-.55-2-2.06-3.08,2.47-3.52,2.72-1.54.88-4,.7-5.76,1.19a9.66,9.66,0,0,0-4.53,2.17c-1.92,1.82-2.56,4.63-5.12,5.8-1.51.69-3.33.08-4.75.86-1.62.88-2.18,3-3.52,4.22-2.18,2-5.05,4-8.05,3.39-2.46-.54-2.13-1.78-4.12,1.54-1.22,2-1.54,5.05-2.25,7.21s-1.68,4.83-1.61,7.27c2.62,1.28,3.56-.4,6.14,2.51,3.44,3.87,1.14,10.1,4.27,14.14,1.3,1.66,2,2.14,2.14,4.55.12,2.84-.63,8.13-3.22,9.9a2.18,2.18,0,0,0-2.46.87c-.16,1.74-.29,3.48-.39,5.23-.36,2.94-.52,4.55-2.42,6.52a11.26,11.26,0,0,0-3.54,2.36,7.62,7.62,0,0,1-1.89,2.4c-2.08,1.55-5.07,2-4.33,6.07.62,3.46,7.75,8.94,11.36,7.27,3.12-1.43,4.62-6,5-9,.56-4-.2-3,2.36-6.37,1.63-2.17,1.35-4.25,2.81-6s5.13-3.39,7.21-3.79a19,19,0,0,1,5.07-.18,5.24,5.24,0,0,1,2.65,4,3,3,0,0,0,2.69,3c1.95,2,4.06,3.84,5.07,6.94s.4,7.27,4.37,7.78c2.34.3,7.28-2.22,9.65-2.93a23.65,23.65,0,0,0,6.52-3.38,4.39,4.39,0,0,1,4.58,1.71c2,.81,6.05.12,8-.93,2.77-1.53,2.52-5.1,6-6.35a21.8,21.8,0,0,0,6.17-1.42,47.18,47.18,0,0,1,5.76-3.52c3.62-1.57,5.8-2.33,7.43-6.24,1.23-2.95,1-6.18,2.41-9.18,1.77-3.68,5.55-5.78,6.66-9.52q-.12-2.94,0-5.88a14.2,14.2,0,0,0-1.21-6.28c.38-2.34,1-1.77,2.55-3.8,1.71-2.25,1.1-4,1.57-6.71.42-2.5,2.32-5.89.87-8.49C341.45,208.69,334.11,207.74,329.73,207.06Z"
     class="cls-2" />
  <path
     id="path24"
     d="M562.21,383c-3.4-1.78-7.92,2.27-11.21,2.27l-1.72-.82a3.39,3.39,0,0,0-2.93.52c-2.42,0-1.7-.43-3.75-1.75-3.7-2.39-6.91-1.49-11.21-1.65-5-.18-3.49-3.29-6.3-6.24-.89-.92-2.81-1.94-3.93-2.84s-3.1-2.15-4.55-1.59c-1.2.48-1.38,3-2.58,3.75-1,.61-2-.11-3,.38-1.86.87-2.48,2.81-4.76,3.61-1.39.49-2.52.24-3.7,1-.91.59-1.5,1.69-2.61,2.3-2,1.1-5.21,1.77-6.8.15s-2.23-8-.71-9.68c1.71-1.93,4.14-1.19,4.89-4.26.65-2.65-1.1-6.79-1.7-9.27-.72-.11-1.45-.25-2.17-.41a12.28,12.28,0,0,1-.25-2.44c-3.56.07-6.2,2.51-8.61,4.82-2.84,2.71-4.1,4.53-7.56,6-4.34,1.77-6.16,5-4,9.1,2.33,4.4.72,5.49-1.37,10.22a18.12,18.12,0,0,0-1.32,8.84c.17,3.52,1.81,4.55,3.8,7,1.31,1.65-.12,1.76,2.2,2.43,1.58.45,3.17-1,4.56.36,1.84,1.82-.54,6.85,1.19,9.33.52.75,1.55,1.18,2.07,1.93,1.28,1.85.52,3.44,1.2,5.61l2.23.31c.93,3.05-.12,4.89,1.58,7.59,1.28,2,1.48,3.46,4,3.38,4.45-.13,10.17.17,13.52-3.31,2-2.05,2.07-5.12,2.58-7.68s2.66-7.46,1.35-10c-.56-1.09-2.05-1.65-3-2.73-1.66-2-1.74-4.82-3.87-6.26s-5.45-1.23-5.88-4.33c3.16-2.21,11.74-2.63,8.49-8.91a2,2,0,0,1-2-.63,8.07,8.07,0,0,1,4.9-5.94c3.47-1.6,3.67-1,6.05,1.69,2.26,2.5,3.26,3.91,4.12,7.3.55,2.2.17,4.53.8,6.6,3.3-.09,6.5,4,6.35,6.88-.11,2.15-1.79,4.36-2.25,6.44s-.18,4.24-.56,6.38a100.27,100.27,0,0,1-4,14.38c-.8,2.36-3.76,8.06-5.9,9.05-2.87,1.33-6.12-1.45-8.71,1.3-1.21,1.28-1,2.58-1.77,4.06-1.11,2.12-4.78,3.39-4.85,6.21,0,1.12,1.59,5.89,2.67,6.1.84.16,1.75-1.27,2.6-1.54,1.64-.54,3.51-.29,5.11-1.05,1.28,2.09,5.25-.62,7.42-.37,1.17.13,2.6,1.39,3.61,1.4,2.5,0,4.9-3.45,6.6-4.91,3.86,5,9-9,10.15-11,1.36-2.35,4.86-7,7.92-6.78,1.28.09,1.06,1.45,2.54,1.63,2.82.34,2.4-1.72,4.15-3.18s3.41-.44,5.06-1.73c1.41-1.11,1.7-4.63,1.31-6.28-.43-1.84-2.79-3.48-1.31-5.72,1.33-2,7.92-1.84,6.6-6.13-2-.3-4.18-1.1-6.33-1.47a6.27,6.27,0,0,0-.51-2.57c-2-.3-3.67.58-5.4-.92-1.42-1.24-1.19-4.55-1.24-6.15-.06-1.84,0-7.4,1.48-8.92,2.91-3,9.12-.37,12.2-4C565,387.83,565.1,384.48,562.21,383Z"
     class="cls-2" />
  <path
     id="path26"
     d="M614.12,418.53a11.66,11.66,0,0,1-1.62-1.7c-1.82-2.43-1.63-5.63-2.71-8.37-4.55-.44-4.74-.87-6.54-5.33-1.18-2.94-2.55-4.47-2.82-7.78-3.55-1.77-8.68,6.79-10.74-.3-.57-1.93.78-4.22.11-6.16-.81-2.33-2.7-2.24-4.08-3.93-1.17-1.43-1.18-3-1.56-4.71a8.22,8.22,0,0,1-1.1-4.09c0-1.39.07-2.78.18-4.16-.85-2.66-4.18-5-6.28-6.44-.85-.06-1.7-.15-2.55-.26a36.77,36.77,0,0,1-3-4.42c-1.85-1.53-3.25-1.14-5.45-.52-6.26,1.77-12.51,0-18.91,1-4.23.64-9.11,4.87-12.62.4-2.64-3.36-1.69-7.88-3.29-11.55-4.8-11-16.63-4.26-25-5.38-7.82-1.05-6.48-2.38-12.43-6.05-2.72-1.67-7.08-2.54-9.55-4.41-5.36-4-6-8.56-9.07-14.14-2-3.58-2.85-7.18-7.19-7.45-3-.2-6.09.12-9.12-.18-3.77-.37-7.36-1.7-11.06-2.43a36.68,36.68,0,0,0-5.53-15.64c-.86-1.43-1-.49-1.38-2.19-.25-1.05.29-2.29.14-3.37-.37-2.5-1.32-7.29-2.95-9.16-1.07-1.24-2.9-1.8-4-3-.88-1-1-1.87-2-2.51a20.06,20.06,0,0,0-8-2.88c-4.16-.33-3.42,1.53-6.11,4-1.91,1.77-4.64,1.25-6.3,3.34-1,1.27-1,2.95-2.26,4.22-1,1-2.39,1.25-3.4,2.09-3.81,3.15-2.28,9-5.3,12.13-2.87,3-3.32-.14-5.38-1.33s-6.07-.31-8.14-.13c-4.62.39-10-.13-9.46,5.25.29,2.73,1.72,4.89,1.52,7.7-.17,2.46-1.43,7.12-3.92,8.28s-6.27-.66-8.61-1.63c-1.4-.59-2.75-1.33-4.17-1.88-.57-.23-1.36.22-1.82,0-1.78-.85-2.36-3.08-4-4s-4.64.07-5.71-1.57c-.64-1-.17-6.48-.15-6.9.2-6,2-4.65,6.5-6.31,1.47-.55,2.66-1.44,4.19-1.79,1.92-.43,4.07.53,6.05.1,6.25-1.38,6-9.85,13.06-8.35,4.06.87,6.68,2.18,10.56.26,3.56-1.77,4.92-2.3,6-6.74.59-2.46.31-5,.87-7.39.35-1.56,1.15-2.49,1.77-3.95,1.17-2.79.48-5.46.89-8.37.58-4.14,2.2-6.35-.1-10.37-3-5.18-10.25-8-15.85-9.23-4-.89-4.23.76-7.31,3.54-2.69,2.43-4.37,2.24-7.78,2.23-2,0-3.1.47-4.37-1.17-1.45-1.88-1.19-5.45-2.28-7.64a23.39,23.39,0,0,1-2.7-9.38c-.1-4.46-.28-7.84,1.44-12,1.12-2.73,2.55-6.49,1.12-9.4-3.65-7.47-9-2.59-14.9-4.17a15.29,15.29,0,0,1-6.13-3.73c-1.85-1.69-3.49-3.59-5.23-5.39a31,31,0,0,0-2.5-2.36c-.39-.32-.87-.58-1.25-.92-.22-.21-.21-.48-.41-.66s-.53-.07-.78-.18-.44-.55-.73-.84c-.58-.58-1.4-.44-2.14-.43a13.24,13.24,0,0,1-2.09,0,4,4,0,0,0-.95-.24,4.91,4.91,0,0,0-2.09.93c-.88.51-1.72,1.08-2.55,1.65a7.39,7.39,0,0,1-1.2.73,4.36,4.36,0,0,0-1.25.13c-1,.25-1.76,1-2.78,1a4.85,4.85,0,0,1-1-.1,3.87,3.87,0,0,0-1.15.24,7.91,7.91,0,0,1-3.14.18,6.3,6.3,0,0,1-1.37-.63c-.83-.38-1.71,0-2.48-.61-.58-.45-.67-.84-1.49-.91a1.76,1.76,0,0,1-1.13-.17,2.74,2.74,0,0,0-1.17-.7l-1.05-.34c-.58-.11-1.17-.05-1.61-.52a11.1,11.1,0,0,1-1-1.54c-2.09-3.08-3.16-6.7-4.33-10.2-1.1-3.28-2.29-6.81-4.83-9.28a4.61,4.61,0,0,0-2.29-1.43,3.48,3.48,0,0,1-.35.66,5.12,5.12,0,0,1-2.67-2c-1.7-1.88-2.53-2.1-4.72-3.33-5.66-3.16-.51-7.21-.26-11.92.21-4,.31-9.84-1.29-13.37-.82-1.8-3-1.5-3.94-3.35-.74-1.49.05-3.33-.41-5-.29-1.06-1.26-2-1.68-3-1.87-4.56-.09-7.1,1.28-11.4.89-2.8-.21-5.91.64-8.51.48-1.48,3.61-5.67,4.8-7.08,1.44-1.7,3-1.78,5.12-1.91,4.45-.27,5.93-1.8,9.15-4.3,5.12-4,17.58-5.17,13.18-14-.94-1.87-1.78-4.26-3.07-5.92-1-1.32-1.79-1.13-2.42-2.71-1-2.54.49-5.94-1.2-8.6-1.21-1.91-1.75-2-4.08-2.07s-5.49-.43-7.86.09c-2.74.59-4.64,3.2-7.49,3-2-.11-4.6-1.86-6.15-3-2.21-1.66-2.57-2.06-5.37-2.72-2.45-.57-3.89-2-6.09-2.62-2.76-.83-7.31-.2-10.12.26a14.73,14.73,0,0,1-7,0c-2.64-.56-3.49-.59-5.08,1.66-1.11,1.57-1.05,2.3-2.49,3.34-2.25,1.62-4,1.93-5.54,4.72-1.89,3.44-2.29,4.92-6,6.16-2,.65-3.27.92-4.79,2.15-2.34,1.87-4.05,5.21-7.34,5.79-1.25.22-2.8-.49-3.86.21-1.38.89-1.82,4.47-2.56,5.85-1.64,3.1-3.65,3.48-6.63,4.58a13.8,13.8,0,0,0-3.1,1.6c-2.69,1.76-3.16,4.49-6.15,5.88a8,8,0,0,1-5.2.57c-.72-1.17-1.24-2-1.43-2.36a18.7,18.7,0,0,0-5.47-6.39c-2.1-1.73-2.79-4.56-4.57-6.56-3.34-3.77-7.22-2.3-11.37-3.9-2.71-1-2.05-2.75-3.86-4.56-.67-.67-2.27-.93-3.09-1.48-1.11-.74-1.88-2-2.94-2.73-2.07-1.46-2.52-1.51-5.1-1.41-1.59.06-4.09.58-5-.65-1.12-1.45.19-6.64-.24-8.52-.67-2.86-2.43-3.54-3.95-5.65-2.57-3.57,2.55-4.46,5.49-5.65a28.24,28.24,0,0,0,9.31-5.94c4-4.09-.89-6.39-3.87-9.07-2.26-2-2.79-3-2.75-6.08,0-2.12,0-4.23,0-6.34,0-2.73,1-8,0-10.38S145,4.29,142.83,3,139.75.49,137.13.2c-4-.46-8.41.11-12.47.1-4.89,0-14.13-1.76-17.34,3.36C106,5.73,107,8,106.49,10.27c-.45,2-1.88,3.65-2.62,5.56-1.91,4.86-1.69,10.61-2.62,15.75-.47,2.65-.27,8.64-2.81,10.28-2.23,1.44-6.44-.2-9.18,1.62-2.21,1.46-2.53,3.15-4.89,4.16-3.64,1.55-7.79,1-10.65,4C72,53.32,71.59,54.9,69.5,56.27c-5.42,3.55-11.18,7.5-9.91,15,.59,3.43,2.76,3.82,5.46,5.53s2.19,2.66,3.55,5.14c2.37,4.32,8.66,3.72,10,9.54,1.47.14,2.94.26,4.41.37q2.44,1.07,4.82,2.3c5,.49,4.71-2.61,5.61-6.67,1.11-5,3-4.41,7.71-4.08,3.25.23,6.58.66,6.68,4.52.09,3.39-2.28,3,0,6.27a12,12,0,0,1,3.53,4.09,10.75,10.75,0,0,0,2.19,4.83c.52.58,5,4.09,5.89,4.19,1.84.21,5.16-4.09,6-5.26,1.63-2.17,2.81-6.15,5.23-7.56,2.06-1.21,4-.69,5.88-2.81,2.62-2.94,5.17-11.78,9.68-12,2.16-.13,10.44,5.32,11.22,7.85,1.08,3.5-3.61,5.41.61,8.35,2.75,1.92,5.9,0,8.48,1.64.76,1.7-.48,2.76-.78,4.33a20.53,20.53,0,0,0,.11,7.42c1.13,4.87,4.77,5.31,6,10.18,4.14,17.13-5.71,35.45-11.69,50.89-3.26,8.41-4.93,11.64-4.72,22,.08,4,1.35,9.7.4,13.55-2.19,9-5,5.8-10.11,11.95-2.13,2.59-1.27,6.82-3.58,9.57-2.56,3-6.79,4.91-7.39,9.06a32.31,32.31,0,0,1-4,12.3c-1.9,3.45-2.29,4.3-6.11,3.73-2.72-.41-.63-1.54-4.62-.84-4.39.77-8.08,3.71-12.14,4.93-3.86,1.17-5.33-3.61-9.71-3.94-3.73-.29-3.19,1.39-5.72,3.25-1.73,1.27-2.62.69-4.71.87-5.5.47-.89,3.4-1.15,6.78-.1,1.4-2.1,2.49-2.89,3.61-1.45,2.07-1.27,3.84-4,4.51-3.19.77-7-1.4-10,.11-.72.37-1.06,1.12-1.71,1.56a22.63,22.63,0,0,1-6.58,2.71c-1,.28-3.71,1.93-4.69,1.78-2.68-.39-3.86-4.22-3.93-6.27-.13-3.53-.57-7.25.42-10.7.44-1.52,1.44-2.61.88-4-.34-.87-3.29-2.84-4.11-3.27-2.93-1.53-8-1-11.18-.84-5,.27-7.62,2.11-9.81,6.41-1.94,3.8-2.61,10.42-6.35,12.5-6.74,3.78-19.47,3.86-19.48,14,0,4.83,3,4.89,5.17,8.77,2.48,4.37,1.72,6.47-1.81,9.25-3,2.35-7,6-6.53,10.16l6.43.86c3.1,8.64-3.47,15.65-2.7,24.08a13,13,0,0,0,6.2,2c.54,7.18,5,10.55,10.78,14,2.38,1.43,1.62,2.91,5.15,3.87,6.13,1.67,10.52-2.66,14.66,3.83.77,1.21,1.29,4.31,1.9,5.84.9,2.28,2.12,4.34,2.74,6.73,1.9,7.26-.68,14.94,1.19,22.08,9.83.52,5.71,12,16.25,4.09,3.38-2.55,3.77-2.31,7.33-3.55,2.35-.82,4.81-1.06,6.75-2.9,5.92-5.64,8.34-14.59,8.53-22.54.1-3.94-3-8.67-2.23-12.47.63-2.94,3.81-4,6.17-5.39,1.75,1.56,2.08,6.66,3,9.17a28.24,28.24,0,0,0,3.48,6.67c2.2,3,5.53,5.87,9.32,3.75,4.18-2.35,3.58-7.66,5.34-11.48a31.26,31.26,0,0,0,2.92-14.07c0-1.21-.63-5.28,0-6.68s6.39-5.14,7.58-5.92c2.22-1.47,4.81-1.53,5.76-4.54,1.3-4.09.67-8.6-3.51-9.74a44.08,44.08,0,0,0-12.91-1.63c-1.43,0-3.86.63-5.1-.12-1.57-.95-1.32-3.8-2.52-5.2a3.31,3.31,0,0,0-2.75,1.22c-2.87-.85-2.24-5-5.42-5.55.18-2.88,5-5,7.26-6.32s4.45-.69,6.68-1.64c2-.87,2.56-3.09,4.87-3.61,1.22-.27,2.63.75,3.66.51,1.66-.39,1.7-1.86,2.87-3a32.15,32.15,0,0,0,3-2.65c1-1.15,1.54-2.73,2.49-3.95,6.27-8,20.86-7.29,24.43,3.3a44.54,44.54,0,0,0,2.87,11.7s0,0,0-.07c.11,5.07-1.81,9.11-3.92,13.6-3.93,8.37-1,13.13,4.55,18.4.5.47,7.48,6.31,8.23,6.58,4.54,1.63,5.8-1,9.42-2.65,4.79,16.89-5.14,24.27-18.57,31.63-5.51,3-12.08,7.23-18.83,4.31-6.17-2.68-5.44-9.61-14.08-6.57-4.86,1.71-10.75,12.66-10.35,18,.27,3.7,4.18,3.24,4.41,6.94.27,4.11-4.41,7-4.41,11.17,0,6.2,6.83,11.42,4.37,18.46-3.2,9.15-13.11,4-19,6.9-5.64,2.74-3.1,9.16-3.63,14.34a26.1,26.1,0,0,1-3.46,10c-2.7,4.84-8.29,9.44-9.53,14.95-1.68,7.51,6.65,10.65,10.44,15.83,5.41,7.4,10.62,14.31,19.26,16.63,1.42.38,3-.21,4.37.43s1.79,2.06,3.15,2.86c3.07,1.8,4.28,1.29,7.93,1.68,9.89,1,11.29,7,13.92,15,1.85,5.62,5.69,14,10,18.44,3.87,4,9.65,5.41,13.54,9.17,1,.94,1.77,2.2,2.73,3.18,2.06,2.13,4.28,4.2,7.27,4.85,2.76.6,6.29-.89,8.54,1.38a10.19,10.19,0,0,0,1.35,3.61,8.69,8.69,0,0,0,3.87,1.45c1.95,1.31,2.67,4.7,4.57,5.61,2.46,1.18,6.22-.1,8.87.14,4.07.36,7.73,1.41,11.94,1.43,2.55,0,3.62.21,5.73-1.22,1.79-1.22,4.34-6.37,6.9-2.93,2.72-1.39,1.35-9,.48-11.21-1.41-3.62-4.42-6.79-3.93-11,.07-.58,4.41-2.1,5.06-2.53a26.38,26.38,0,0,0,4.82-4.13c3.18-3.62-1.18-3.11-3.44-5.63-3.18-3.56,1.69-7,4.15-9.42,4.95-4.82,7-8.92,9.12-15.37,1.08-3.29,3.11-6.38,6.66-7.38,3-.85,7.74,1.45,10.22-1,3.73-3.66-2.89-11.11-4.57-14.22-1.18-2.18-6.6-8.49-6.37-10.81.52-5.14,4.83-3.63,8-6.35s7-10.23,6.48-15c-.34-3.41-3.67-4.94-3.6-7.73.12-5,8.32-6.45,8.46-11.36,0-.53-3.92-10-4.24-10.78-2-4.91,2.66-5.62-3.47-7.67-4.15-1.39-7.31,2.11-10.15,3.65,1.37-.74-7-9.11-8.24-9.58-3.94-1.49-8.4-.85-12.52-2.57a21.69,21.69,0,0,1-11.58-10.68c-1.74-3.29-3.24-6.63-4.8-9.95a92.35,92.35,0,0,0-5.25-9.91c-5.24-8.33-5.6-13.85-1.32-22.83a9.65,9.65,0,0,0-3.62,1.81c3.47-3,6.08-7.23,5.93-12-11.17-4.9-10.19-10.63-10.73-21.25-.56-10.93-4.27-7.79-14.49-9.4-.15-5.53-1.76-8.83-3.08-13.94-1.8-7,1.25-14.73-.56-21.48-2.16-8-4.36-5.79-10.89-10-4.63-3-7.9-8.66-12.11-12.49-1.06-1-5.07-5-8.59-8,2.66-2.81,5.8-5.16,10.44-5.55q1.05-4.33,2.07-8.69c2.89-.67,5.79-1.36,8.68-2.06.72-10.6,10.56-17.3,12-28.54.76-6.06-1.91-13.17-.47-19.08,1.09-4.51,4.88-5.57,6-10.18,1.21-5.24-.61-9.85.9-15.23,1.11-4,3.62-6.7,4.3-11.82,2.14-16.12-2.07-22.38,8.64-36.68.11-.15-1-2.12-2.55-4.71a7.59,7.59,0,0,1,2.15-1.36c5.51-2.26,8.23,1.39,12.89,3.81,11.53,6,16.91,7.86,19.49,22.43.07.4,6.78,1.54,7.68,1.86-.12,5.11-10.06,6.19-4.34,11.41,2.32,2.13,6.24.73,8.21,2.84s.76,5.76.8,8.52c0,1.76-.26,4.12,1.23,5.46,1.87,1.69,3.84.23,5.67,1.38,2.89,1.81,1.94,5.22,6.34,5.34,1.13,3.57,2.75,8.88,1,12.5-.94,1.91-2,1.89-3.44,3.34-1.15,1.13-1.52,2.68-2.26,4.06-1.17,2.19-2.37,3.1-4.1,5s-2.68,5.17-4.64,7c-1.78,1.64-7.43,2.54-9.84,2.87-4.42.6-8.2-1-12.32,1.16a17.42,17.42,0,0,0-5.9,4.83c-1.17,1.81-.8,2.7-1.18,4.76-.49,2.69-1.29,4.28-4,5.71-2.44,1.29-5.33,1.27-7.84,2.59s-6,2.25-8.18,4.16c-6.46,5.54-7.38,13.39-4.88,21.51,4.26.47,8.32.91,12.58,1.36.38,4.25.86,8.27,1.46,12.47,15.8.81,11.69,13.21,13,24.14.61,4.92,1.13,10.14,4.67,13.91,7.52,8,4,.69,14.28.7a7.2,7.2,0,0,1,3.79,1c.14.08,1.14,10.93,1.56,12.23,1.47,4.61,3.88,7.53,6.78,11.29A16.89,16.89,0,0,1,247.7,329c.87,2.9.2,5.82.32,8.78.17,4,1.4,8.76,4.94,11.09,1.82,1.21,3.94,1.58,5.59,3.12,1.29,1.2,1.26,2.53,3.35,2.58,3.48.08,5.18-5.33,8.47-5.46,1.11,0,4.18,1.38,5.26,1.55A47.62,47.62,0,0,1,282.4,352c3.58,1.09,3.23,2.37,5.54,4.59,1,1,2.08.65,2.69,2,.48,1.09-.31,5.92-.43,6.54-.69,3.61-1.16,5.46-3,8.28-.94,1.41-1.7,4.5-3.34,5.32-1.11.55-2.68.1-3.87.29-.81,2-.22,5.12-.17,7.33.09,4.38-.53,5.59-3.38,8.54-1.89,1.95-5.38,6.47-3.15,9.6,1,1.36,4.26,1.92,5.78,2.39,2.71.84,5.69,2,8.44,2.58s6.44-.68,8.85.33c1,.43.73,1.36,1.63,1.84a7.68,7.68,0,0,0,4.33.84c2.44-.08,4.21-1.39,6.48-1.91,2.08-.48,3.5.26,5.67.38,4.32.24,7.71-1.88,10-5.5,3.47-5.59-2.25-12.77,1.51-18.11-.05.06,12.91-5.94,13.11-5.92,5.79.56,5.93,6.49,10.24,8.81,7.62,4.1,11-.44,16.63-3.7.55-3.15,2.37-4.81,5.44-5q4.82.27,9.65.46c10.79-1.27,5.93-2.21,12.56-9.63,9.08-10.15,24.3,2,34.69,3.93,17.5,3.29,23.36-15.94,25.93-30.55.63-3.59-.78-16.6,1.76-19.11,5.5-5.43,18.74,9.7,20.75,13.58,5.53,10.66-.37,11-6.39,19.55-.74,1-1.36,3.58-2.39,4.25-.53.35-1.37,0-2,.22-1.48.58-3,1.18-4.55,1.69-2,.67-3.5.44-5.5.66-3.77.42-3.82,3.67-3.6,7.06.17,2.47,2,5.15,1.3,7.62-.63,2.23-2.51,3.47-3.91,5.16-1.06,1.28-1.5,2.73-2.42,4.08-2,2.85-5.33,3.94-8.32,5.36a78.19,78.19,0,0,1-12.38,4.83c-8.57,2.14-13-2.81-18.83-3.82-4.62-.79-8.28-3.07-13.16-.22-4.61,2.69-5.27,9.59-10,12.15-14,7.63-13.71-13.35-26.2-7.63-.49,2.6-1,5.2-1.57,7.8a7.94,7.94,0,0,1-6,1c-6.93,2.28-6.94-.1-12.82,4.23a18.92,18.92,0,0,1-8.14,8.86,18.86,18.86,0,0,1-9.66.52c-3.76,1.08-5,4.66-8.92,5.15-9.44,1.15-14.27-13.25-22.55-4.16-6.1,6.67,3.78,23.76,4.61,30.91L301.1,457c1.11,9.73,4.21,15.3,8.78,23.5,3.84,6.89,13.52,24.38-2.58,23-.38,3,.11,9.58-1.55,12.15-1.47,2.26-6.12,2.67-7.73,5.42-2.85,4.89-1.83,11.53-.6,16.75,1,4.32,2.44,11.71,5.82,14.72C305,554,307,554,309,555c.63.3.62,1.66,1.57,1.87s2-1.16,2.83-1c2.31.48,1.6,3.73,2.91,5.35,0,0,2.15,1.28,2.39,1.48a17.31,17.31,0,0,1,1.86,2.12c1.54,2.33,1.13,5.85,2.94,8,1.64,1.93,4.58,2.54,5.7,5.39.44,1.11,0,5.31,1.95,3.51,1.2,1.27.92,3.4,1.21,5.11,6.27.59,12,4.87,18.56,2.09,4.43-1.9,8.27-6,11.54-9.43,1.18-1.2,3.22-2.57,3.11-4.32-.05-.82-1.65-2.47-2-3.5-1.06-3.5.86-4,1.84-7.22.58-1.89,0-3.4.16-5.32.13-1.49.83-2.72,1.12-4.14A36.42,36.42,0,0,0,367,548c0-3.7.46-4.18,4-4.06,7,.23,11.51-2.08,16.5-7.05,4.47-4.46,13.27-5.54,9.46-13.46-1.62-3.35-3.15-6-6.84-3.82-2.78,1.61-3.17,4.86-5.87,6.56-3,1.88-6.72,2.22-9.46,4.59s-5,5-9,3.56c.6-4,3.68-11.16-1.4-13.93-2.56-1.4-4.17,0-5.48-3.32-.91-2.24-.45-3.91-3.2-5.28-1.24-.62-3.83-.41-5.3-.75a17.74,17.74,0,0,0-4.59-.73c-4.3.08-2.71,1.65-1.91,4.38.6,2.08-.28,4.37.5,6.39,2.1,5.38,7,6.24,11.94,7-1.47,3.57-7.21,4.47-8.84,8.42-.89,2.17-1.08,3.55-2.57,5.49-1.9,2.47-4,5-4.65,8-.76,3.35-.58,3.62-3.81,3-.39-.08-1.23-.9-1.87-1.08-1.22-.34-2.88,0-4.2-.26a17.14,17.14,0,0,1-5.36-2c-1.35-.79-1.58-1.75-3.44-2-.53-2.18-.15-4.21-2.34-5.7s-4.35.09-6.67-.67c-5.51-1.79-.77-8.84,3.42-9.57,2.61-.46,4.16.25,6.71-.91,2-.89,5.3-1.49,6.8-3,2.3-2.24.82-5.33,1.18-8.12.24-1.86,1.16-3.49,1.35-5.37.23-2.3-.57-3.9-1-6.06s.32-5.2-.51-7.16c-.41-1-1.81-1.5-2.23-2.47-1.65-3.71.3-9.29-.32-13.26-.51-3.27-2.84-5.3-4.09-8.1s-3-5.09-4.05-7.94c-1-2.56-1.62-4-.61-6.68a8.76,8.76,0,0,1,3.06-4.21c2-1.15,3.27,0,4.61-1.78.38-.5-.7-2-.57-2.56,1.84-7.84,12.66-8.77,18.91-8.18,2.68.25,5.17.7,7.23,2.56,4.44,4,10.08,16.81,5.07,20.89-1.27,1-3.76.82-5.32,1.54a16.64,16.64,0,0,0-5.09,4.06c-3.52,3.8-3.41,9-4.19,13.89-.9,5.59,6.78,19.67,13.89,13.46,2.84-2.48,2.07-10.08,7.56-5.3,1.69,1.47,2.18,3.81,4.18,5.22a44.25,44.25,0,0,0,7.28,4.06c1.31.58,6.1,2.41,7.45,1.51,2.18-1.44.11-3.41,1.34-5.44s2.82-1.86,4.89-1.56c1,.25,2,.54,2.94.88a24.74,24.74,0,0,0,3.69-1.9c1.94-.54,4,.29,5.81-.16s2.63-1.52,4.18-2.7c5.27-4,8.29-7.48,10.54-13.77,1.61-4.49,2.27-10.08,2.72-14.94a16.72,16.72,0,0,0-.36-4.9c-.31-1.57-.58-5.36-1.5-6.49l-2.24-.11q-3.09-.33-2.68-3.47c-1.58-2.69-1.29-3.59-5-4.52-4-1-8.26-.69-12.25-1.68-.15-1.22-.25-2.45-.31-3.68a3.06,3.06,0,0,0-3.59-1.59,14.5,14.5,0,0,1-4-2.26c-3.38-3.09.16-7.14,2.34-10.47,1.16-1.78,2.79-3.36,4.09-5.05a12.08,12.08,0,0,1,2.69-3.61,2.78,2.78,0,0,1,2.65,1c2.85.46,2.44-.16,5-2.13,3.19-2.4,3.33-1,6.45-.93,5.37.13,8.72-3.21,13.23-5.84,3.72-2.18,8-1.52,11.68-4s5.59-.85,9.63.52c6.18,2.1,12.71.73,18.4,4.73,4.41,3.11,6.93,8.19,9.44,12.81a114,114,0,0,0,5.63,9.92c2.36,3.49,5.23,6.48,6.09,10.75,1.87,9.31-4.76,19.08.14,28,1.67,3,4.06,5.43,5.08,8.84.73,2.45.56,4.83.72,7.34.17,2.7,1.11,5.11,1.74,7.72.9,3.74-.43,6.24,4.08,6.17,2.34,0,4.62-.56,7-.45,2.92.13,5.53,1.15,8.42,1.44s6.57-.85,9.53-.14,3.89,2.07,7,.17a14.94,14.94,0,0,0,2.61-2.6,3.14,3.14,0,0,1,2.24,0c3.5-2.1,4.21-4.29,4.11-8.22a9.14,9.14,0,0,1,.53-5.58,8,8,0,0,1,3.33-2.91c.62-1.37.19-3.39.16-4.88,0-3.21-.72-7.2-.16-10.3.36-2,3.43-6.23,5.57-6.77,6-1.51,4,6.11,5.54,8.72,1,1.75,6.07,2.19,7.55,2.52,3.19.7,5.05,2.82,8.25,3.15,4.34.46,10.1-1.82,13.53,1.54,2.14,2.09,1.65,2.37,5,2.44,3.05.07,6-.41,8.26-2.71,4.7-4.74,5.71-11,9.63-16.24,1.92-2.56,3.48-4.75,4.05-8,.49-2.76.6-5.21,1.58-8q1-2.65,2.13-5.24a20.37,20.37,0,0,1,.41-2.58c1.21-.47,2.4-1,3.58-1.52a6.27,6.27,0,0,0,2.25-3c1.62-2.28,4.48-4.95,4.86-7.84s-1.51-3.55-3.41-5.31C618.44,421.63,616,420.16,614.12,418.53Zm-440.41-41c2.38-.16,1.89-.15,4-1.35.89-.49,1.53-1.62,2.71-1.57,2.62.12,3.77,4.67,4.07,6.9.26,1.89-.18,3.5.23,5.41a27.84,27.84,0,0,1,1.1,4.58c.13,2.38-.58,5-.15,7.36s.08,2.14,2,3c.8.33,3.63-.06,4.47.12a6,6,0,0,1,4.32,2.66c1.59,2.39.78,5.72,2.12,7.82.75,1.18,2.43,1.37,3.11,3,1.51,3.66-1.53,4.83-1.06,7.54,3.53.4,5.63,2.26,9.3,1.28,3.38-.91,6.24-1,9.09-3.27,1.19,2.19,2.3,1.86,4.37,2.22,2.83.5,1.83.74,3.86,2.73,2.39,2.33,7.12.83,9.17,3.13,1.09,1.24.08,3.32.33,4.66.12.65,1.13,1.77,1.14,2.19.06,2.23-1,4.12-1.15,6.38-.13,2.69.34,5.34-.17,8-1.74,9.24-7.76,5.42-12.5,11.08-2.71,3.25-1.8,4.76-2,8.68-.13,2.59-1,5.07-1.51,7.66v0c-.77,4.12-9.37,13.26-3.25,16.71,1.27.72,3.14.09,4.31,1,2.94,2.21-.91,11.63-1.07,15-.09,1.84-1.16,3.55-1.08,5.32,0,.72.74,1.4.89,2.1.36,1.65-.2,2.89-.57,4.47s-.25,4-1.48,5.33c-4.82,5.37-8.49-1.39-10.38-4.92-1.31-2.46-2-2.46-4.53-3.43-.4-1.6.26-3.3-.36-4.82-.68-1.69-2.73-3.3-3.57-5-.67-1.36-1-2.9-1.55-4.31-.85-2.2-2.39-3.84-3.35-5.91-2.72-5.85,2.75-10.14,4.48-15.44.61-1.88.52-4,1.12-5.9.49-1.54,1.77-3.18,1.56-4.81-7.3.71,2.15-11.78,1.41-14.16-3.34-10.8-17.48,12.62-23.77,2.71a6.7,6.7,0,0,1-2.81,2c-.68.26-6.24.73-7,.41-3.33-1.29-4.05-10.09-2.05-13.15,1.48-2.26,4.26-1.91,6.05-3.74,1-1,2.12-3.7,2.83-5,1.24-2.27,2.88-4.15,2.86-7,0-1.51-1.11-2.59-1.24-3.89-.39-4,10.57-11.32,1.17-10.8-4.36.24-8.1,1.39-10,5.53a58.57,58.57,0,0,1-2.65,5.95,14.14,14.14,0,0,0-2.07,5.24c-.12.87.44,2.85.07,3.57-.92,1.85-2.77.71-4.27,1.71-2,1.31-2.06,4.58-2.9,6.58a53.85,53.85,0,0,1-3.44,6.45c-3.33,5.69-5.14,14.63-1,20.06,2.45,3.19,3.32,4.09,7.41,4,3.08,0,6.29-1.15,9.13-1.11-.27,0,3.15,1.13,2.94,1,1.54.57,2,.38,2.64,2.12,1.12,2.87-.13,9.32-2.23,11.2-2.06-2.62-3.59.81-5.74,1.34-3.52.88-5-1.53-6.67-3.89-2.55-3.5-4.19-1.93-7.79-2.88a23.44,23.44,0,0,1-7.31-4.06c-5.87-4.6-11.82-5.61-14.93-13.23-1.17-2.89-.55-3.78.13-6.68.63-2.7-.11-5.34.18-8.06.33-3,3.2-5.84,4.86-8.46a25.24,25.24,0,0,1,6-6.13c3.17-2.49,6.88-5.17,8.79-8.76,1.22-2.29-.09-4.66.55-6.92.57-2,2-2.94,3.52-4.72,2.64-3.19,3.26-3.15,6.74-4,2.54-.61,4.35-2.58,7-2.82.67-2.47.93-8.08,0-10.51-1.95-5.14-7.64-2.17-8.95-7-1-3.85,1.11-3.48,2.22-6.43.78-2.1-.4-3.65,1.47-5.48,1.3-1.26,3.67-1.71,5.16-2.58a1.56,1.56,0,0,1,.69-1.12C169.53,378.49,171.47,377.66,173.71,377.51ZM343.15,221.78c-.47,2.76.14,4.46-1.57,6.71-1.53,2-2.17,1.46-2.55,3.8a14.2,14.2,0,0,1,1.21,6.28q-.08,2.94,0,5.88c-1.11,3.74-4.89,5.84-6.66,9.52-1.44,3-1.18,6.23-2.41,9.18-1.63,3.91-3.81,4.67-7.43,6.24a47.18,47.18,0,0,0-5.76,3.52,21.8,21.8,0,0,1-6.17,1.42c-3.49,1.25-3.24,4.82-6,6.35-1.92,1.05-5.95,1.74-8,.93a4.39,4.39,0,0,0-4.58-1.71,23.65,23.65,0,0,1-6.52,3.38c-2.37.71-7.31,3.23-9.65,2.93-4-.51-3.33-4.62-4.37-7.78s-3.12-5-5.07-6.94a3,3,0,0,1-2.69-3,5.24,5.24,0,0,0-2.65-4,19,19,0,0,0-5.07.18c-2.08.4-5.86,2.13-7.21,3.79s-1.18,3.87-2.81,6c-2.56,3.41-1.8,2.4-2.36,6.37-.42,3-1.92,7.59-5,9-3.61,1.67-10.74-3.81-11.36-7.27-.74-4.1,2.25-4.52,4.33-6.07a7.62,7.62,0,0,0,1.89-2.4,11.26,11.26,0,0,1,3.54-2.36c1.9-2,2.06-3.58,2.42-6.52.1-1.75.23-3.49.39-5.23a2.18,2.18,0,0,1,2.46-.87c2.59-1.77,3.34-7.06,3.22-9.9-.1-2.41-.84-2.89-2.14-4.55-3.13-4-.83-10.27-4.27-14.14-2.58-2.91-3.52-1.23-6.14-2.51-.07-2.44.84-5,1.61-7.27s1-5.19,2.25-7.21c2-3.32,1.66-2.08,4.12-1.54,3,.65,5.87-1.38,8.05-3.39,1.34-1.23,1.9-3.34,3.52-4.22,1.42-.78,3.24-.17,4.75-.86,2.56-1.17,3.2-4,5.12-5.8a9.66,9.66,0,0,1,4.53-2.17c1.71-.49,4.22-.31,5.76-1.19.44-.25,1.52-4.78,3.52-2.72.26.26.23.65.7.55,1-.22.08-1.85.16-2.43s.86-1,.94-1.72a9.62,9.62,0,0,1,0-1.61c.35-1.18,1.69-1.17,2.53-1.77s1.8-2.33,3.15-1.46c.37.23.33.5.58.78a1.9,1.9,0,0,0,1,.43,3.34,3.34,0,0,1,1.56.43c.33.26.46.65.73,1s.83.46,1.07.82.11.78.12,1.16c0,.73.12.7.67,1,.26.14.36.44.62.53a3.43,3.43,0,0,0,1,0c.58,0,2.32-.35,2.83-.07.68.38.34,1.27.85,1.68a19.71,19.71,0,0,0,2.35,1.76c3,1.77,2.53,1.25,1.85,4.48l0,.13c-.77,3.73,1.17,6.95,4.31,5.75,1.18-.45,1.64-1.61,3.12-1.63,3.63,0,2.65,3.16,4.8,4.46,1.89,1.15,4-1.51,5.37.91,3.37-2.7,8.12-.33,12,.27,4.38.68,11.72,1.63,14.29,6.23C345.47,215.89,343.57,219.28,343.15,221.78Zm220,168.13c-3.08,3.6-9.29.95-12.2,4-1.46,1.52-1.54,7.08-1.48,8.92,0,1.6-.18,4.91,1.24,6.15,1.73,1.5,3.4.62,5.4.92a6.27,6.27,0,0,1,.51,2.57c2.15.37,4.34,1.17,6.33,1.47,1.32,4.29-5.27,4.12-6.6,6.13-1.48,2.24.88,3.88,1.31,5.72.39,1.65.1,5.17-1.31,6.28-1.65,1.29-3.36.31-5.06,1.73s-1.33,3.52-4.15,3.18c-1.48-.18-1.26-1.54-2.54-1.63-3.06-.21-6.56,4.43-7.92,6.78-1.15,2-6.29,16-10.15,11-1.7,1.46-4.1,4.93-6.6,4.91-1,0-2.44-1.27-3.61-1.4-2.17-.25-6.14,2.46-7.42.37-1.6.76-3.47.51-5.11,1.05-.85.27-1.76,1.7-2.6,1.54-1.08-.21-2.7-5-2.67-6.1.07-2.82,3.74-4.09,4.85-6.21.78-1.48.56-2.78,1.77-4.06,2.59-2.75,5.84,0,8.71-1.3,2.14-1,5.1-6.69,5.9-9.05a100.27,100.27,0,0,0,4-14.38c.38-2.14.09-4.27.56-6.38s2.14-4.29,2.25-6.44c.15-2.86-3.05-7-6.35-6.88-.63-2.07-.25-4.4-.8-6.6-.86-3.39-1.86-4.8-4.12-7.3-2.38-2.65-2.58-3.29-6.05-1.69a8.07,8.07,0,0,0-4.9,5.94,2,2,0,0,0,2,.63c3.25,6.28-5.33,6.7-8.49,8.91.43,3.1,3.87,3,5.88,4.33s2.21,4.31,3.87,6.26c.92,1.08,2.41,1.64,3,2.73,1.31,2.52-.82,7.32-1.35,10s-.61,5.63-2.58,7.68c-3.35,3.48-9.07,3.18-13.52,3.31-2.51.08-2.71-1.34-4-3.38-1.7-2.7-.65-4.54-1.58-7.59l-2.23-.31c-.68-2.17.08-3.76-1.2-5.61-.52-.75-1.55-1.18-2.07-1.93-1.73-2.48.65-7.51-1.19-9.33-1.39-1.37-3,.09-4.56-.36-2.32-.67-.89-.78-2.2-2.43-2-2.49-3.63-3.52-3.8-7a18.12,18.12,0,0,1,1.32-8.84c2.09-4.73,3.7-5.82,1.37-10.22-2.17-4.1-.35-7.33,4-9.1,3.46-1.42,4.72-3.24,7.56-6,2.41-2.31,5.05-4.75,8.61-4.82a12.28,12.28,0,0,0,.25,2.44c.72.16,1.45.3,2.17.41.6,2.48,2.35,6.62,1.7,9.27-.75,3.07-3.18,2.33-4.89,4.26-1.52,1.72-.76,8.19.71,9.68s4.78.95,6.8-.15c1.11-.61,1.7-1.71,2.61-2.3,1.18-.77,2.31-.52,3.7-1,2.28-.8,2.9-2.74,4.76-3.61,1-.49,2,.23,3-.38,1.2-.73,1.38-3.27,2.58-3.75,1.45-.56,3.49.75,4.55,1.59s3,1.92,3.93,2.84c2.81,2.95,1.26,6.06,6.3,6.24,4.3.16,7.51-.74,11.21,1.65,2,1.32,1.33,1.73,3.75,1.75a3.39,3.39,0,0,1,2.93-.52l1.72.82c3.29,0,7.81-4.05,11.21-2.27C565.1,384.48,565,387.83,563.19,389.91Z"
     class="cls-1" />
  <path
     id="path28"
     d="M412.1,254.8c0-.43.07-.83.09-1.16.15-2,1.16-3.95.54-6.09a9.46,9.46,0,0,1-1.07-.06c-.55-1.76.45-3.9-.21-5.59-1.37.81-2.4.13-3.18-1.24-1.14-2-.24-4.29-2.89-5.38-.71-.3-5.89-1.59-5.93-1.77l-.78-3.78c-5.58-1.92-16.38,0-16.18-9.24l-3.8-.77c-.27-2.09-.51-4.06-.76-6.15-1.33-.29-2.67-.53-4-.73-.31-5.09,6.24-8.38,6.9-13.54.76-6-5.54-5.82-4.93-11.4.49-4.45,8.95-10.49,13-11.51,8.59-2.12,20.58-3.43,28.85-1.62-.17,1.54-.41,5.07.59,6.38,2.14,2.82,5.45.36,7.19,2.44,1.91,2.28,2,8.14.78,11.13-1.35,3.34-5,5.51-6.06,9.24-1.07,3.91.68,7.4-3.83,9.11-5.84,2.23-8.07-1.64-5.28,8.33,2.4,8.62,6.5,16,14.46,19.45,3.32,1.46,2.89,4,6.37.13,3.61-4,1-4.39,7.41-4.72,3.15-.17,6.6-2.24,9.35-2.22,6,0,2.17,4.47,3.23,8.75.95,3.88,3.66,4.16,1.41,8.54-1.7,3.3-4.48,4.22-8.09,5.15-5.16,1.33-6.6-.53-10.71-1.6-4.51-1.17-5.39,1.35-9,3.09-2.63,1.26-5.64,1.65-8.45,2.42a5.78,5.78,0,0,1-3.12.41C412,260.12,412,257,412.1,254.8Z"
     class="cls-1" />
  <path
     id="path30"
     d="M604.9,366.3c.34-6.45.93-21.66,6.16-26.81,1.75-1.72,3.21.19,4.69-.59,2.89-1.51,6.87-5.84,9.75-6.79,4.48-1.45,4.41.46,9.7,1.13,3.95.49,8.54,0,12.55-.09,12.63-.24,14.78-10.77,20.59-20,2.63-4.19,6-8.71,11.19-9.87,5-1.12,7.72,3,12.44,2.28,9.57-1.5,9.79-17.2,15.1-23.31,2.25-2.58,5.89-3.68,8.06-6,2.46-2.59,5.62-9.92,11.67-6.93,3.58,1.77,2.25,4.73,3.1,8.54.69,3.07,3.58,6.32,4.29,8.92,1.9,6.95,2.65,18.78-7.18,19.07-1.65,4.92.86,10.21-.36,15-1.3,5.12-4.2,4.69-9.8,4.08-12.15-1.31-10.48-10.65-7.19-18.94-14.86-5.45-14.15,21.52-25.74,14.5-4.22-2.56-4.82-7.33-8.66.09-1.93,3.71-2.08,10.94-.84,14.85,12,.37,6.71,10.63,13.54,14.29,4.87,2.6,14.09-2.93,18.73.42.55.39,2.15,7.36,2.48,8,1.23,2.47,2.86,2.54,3.66,5.23,2,6.81-3.38,14.81-9.81,16.62-5.79,1.64-11.6,0-17.34,3.42-3.86,2.31-7.66,8-12.3,10-5.17,2.15-16,2-19.68-1.87-2.33-2.46-2.31-8.41-3.88-11.69-1.41-2.94-3.75-3.76-4-7.48a6.51,6.51,0,0,1-4.52-.08c-2-8.66,2.44-28.13-13-15.69-2.77,2.22-5.59,6.36-8.37,8.12-4,2.52-10,2.39-14.77,1.18C604,362.77,605.07,360.25,604.9,366.3Z"
     class="cls-1" />
  <path
     id="path32"
     d="M760.78,331.76c-5.79,3.08-12.64,9.25-19.28,10-4.67.52-8.77.78-8.15,6.93.21,2.12,1,3,2.32,4.5a5.81,5.81,0,0,1,1.87,1.47l.2,1.91c1.56,2.75,1.27,1.84,4.1,2.87,1,.35,1.59,1.24,2.87,1.33.21.78.39,1.56.53,2.35,2.28.52,4.32,1,6.58,1.6,1.41-2.66,4-4.87,5.18-7.57.7-1.63.41-3,1-4.57.86-2.35,2.86-2.61,4.32-4.52s.62-4.75,2.71-6c1.72-1.08,2.74.58,4.19-1.46,1.23-1.73.15-3.78-1.14-4.93a37.4,37.4,0,0,0-4.09-2.43c-2-1.2-1.82-1.41-4.62-1.4"
     class="cls-1" />
  <path
     id="path34"
     d="M767.36,353.59c1.74-1.43,5.6-5.25,8.5-4.15.67.25.73,1.68,1.55,2,2.78,1.21,6.74,1.76,9.83,2.36-.09,2.3-.17,5,3,5.1s2.37-3.52,4.26-4.82c2.8-1.94,7.24.12,10.12-1.37,1.85-.95,1.44-2.93,4.32-1.88,2,.72,3.14,3.71,4.69,5,4.05,3.33,7.85.62,12.28,2.28.13,3,4.08,3.53,6.49,2.79,3.21-1,2.63-2.23,3.76-5.24s7.79-8.35,11.31-7.67a3.26,3.26,0,0,0,1.62,2.35c2.64-.81,2.85-4.61,1.8-6.62-1.25-2.41-4.35-2.71-6.68-3a25.08,25.08,0,0,0-9.26.21c-2.29.6-3.73,2.26-6,2.73-6.78,1.43-8.55-8.86-4.38-12.45,5.4-4.66,14.69-.62,20.87-1.94,3.59-.77,7.87-4.76,12.1-3.17,3.44,1.29,4.25,7.67,4.5,11.06.18,2.51-.47,5.16-.13,7.66,0,.35,1.71,3.85,1.69,4.38-.09,2.57-2.9,5.49-4.37,7.55-5.39,7.56-12.91,12.67-20.31,18.06-3.38,2.47-4.34,4-5.57,7.81-1,3-1,3.76-3.92,5.17-1.34.65-6.06,2.34-7.5,1.57-1.91-1-1.37-2.51-1.84-4.42-.67-2.78-3-4.58-3.83-7.08a22.07,22.07,0,0,1-1.57-8.26c-5.73-1.53-14-1-19.39,1.28-4.63,2-8.67,5.18-13.68,5.7-4.18.44-5.67-1-5.82-5.36s-.82-6.35-1.58-10.24C771,360.39,761,358.89,767.36,353.59Z"
     class="cls-1" />
  <path
     id="path36"
     d="M820.61,251.11c.59-3.15,1.43-8,3.22-10.73s2.41-1.81,5.72-2.89c4.36-1.42,7.81-4.38,11.4,0,2.54,3.13,4.09,8.16,1.68,12-1.51,2.39-2.64,1.7-5.56,2.64a12.31,12.31,0,0,0-5,3.25c-1.81-1.25-1-3.23-2.73-4.61-5.28.84-4.4,14.72-11.66,11.94-2.12-.81-1.3-3-1.46-5-.09-1-1.53-1-1.14-2.28s2.33-1.2,2.7-2.87"
     class="cls-1" />
</svg>
